<svg class="main-svg" xmlns="http://www.w3.org/2000/svg" xmlns:xlink="http://www.w3.org/1999/xlink" width="2200" height="686" style="" viewBox="0 0 1100 343"><rect x="0" y="0" width="1100" height="343" style="fill: rgb(255, 255, 255); fill-opacity: 1;"/><defs id="defs-e250d7"><g class="clips"><clipPath id="clipe250d7xyplot" class="plotclip"><rect width="904" height="42.16666666666666"/></clipPath><clipPath id="clipe250d7x2y2plot" class="plotclip"><rect width="904" height="42.16666666666666"/></clipPath><clipPath id="clipe250d7x3y3plot" class="plotclip"><rect width="904" height="42.16666666666666"/></clipPath><clipPath id="clipe250d7x4y4plot" class="plotclip"><rect width="904" height="42.166666666666664"/></clipPath><clipPath class="axesclip" id="clipe250d7x"><rect x="181" y="0" width="904" height="343"/></clipPath><clipPath class="axesclip" id="clipe250d7y"><rect x="0" y="50" width="1100" height="42.16666666666666"/></clipPath><clipPath class="axesclip" id="clipe250d7xy"><rect x="181" y="50" width="904" height="42.16666666666666"/></clipPath><clipPath class="axesclip" id="clipe250d7y2"><rect x="0" y="120.27777777777779" width="1100" height="42.16666666666666"/></clipPath><clipPath class="axesclip" id="clipe250d7xy2"><rect x="181" y="120.27777777777779" width="904" height="42.16666666666666"/></clipPath><clipPath class="axesclip" id="clipe250d7y3"><rect x="0" y="190.55555555555557" width="1100" height="42.16666666666666"/></clipPath><clipPath class="axesclip" id="clipe250d7xy3"><rect x="181" y="190.55555555555557" width="904" height="42.16666666666666"/></clipPath><clipPath class="axesclip" id="clipe250d7y4"><rect x="0" y="260.83333333333337" width="1100" height="42.166666666666664"/></clipPath><clipPath class="axesclip" id="clipe250d7xy4"><rect x="181" y="260.83333333333337" width="904" height="42.166666666666664"/></clipPath><clipPath class="axesclip" id="clipe250d7x2"><rect x="181" y="0" width="904" height="343"/></clipPath><clipPath class="axesclip" id="clipe250d7x2y"><rect x="181" y="50" width="904" height="42.16666666666666"/></clipPath><clipPath class="axesclip" id="clipe250d7x2y2"><rect x="181" y="120.27777777777779" width="904" height="42.16666666666666"/></clipPath><clipPath class="axesclip" id="clipe250d7x2y3"><rect x="181" y="190.55555555555557" width="904" height="42.16666666666666"/></clipPath><clipPath class="axesclip" id="clipe250d7x2y4"><rect x="181" y="260.83333333333337" width="904" height="42.166666666666664"/></clipPath><clipPath class="axesclip" id="clipe250d7x3"><rect x="181" y="0" width="904" height="343"/></clipPath><clipPath class="axesclip" id="clipe250d7x3y"><rect x="181" y="50" width="904" height="42.16666666666666"/></clipPath><clipPath class="axesclip" id="clipe250d7x3y2"><rect x="181" y="120.27777777777779" width="904" height="42.16666666666666"/></clipPath><clipPath class="axesclip" id="clipe250d7x3y3"><rect x="181" y="190.55555555555557" width="904" height="42.16666666666666"/></clipPath><clipPath class="axesclip" id="clipe250d7x3y4"><rect x="181" y="260.83333333333337" width="904" height="42.166666666666664"/></clipPath><clipPath class="axesclip" id="clipe250d7x4"><rect x="181" y="0" width="904" height="343"/></clipPath><clipPath class="axesclip" id="clipe250d7x4y"><rect x="181" y="50" width="904" height="42.16666666666666"/></clipPath><clipPath class="axesclip" id="clipe250d7x4y2"><rect x="181" y="120.27777777777779" width="904" height="42.16666666666666"/></clipPath><clipPath class="axesclip" id="clipe250d7x4y3"><rect x="181" y="190.55555555555557" width="904" height="42.16666666666666"/></clipPath><clipPath class="axesclip" id="clipe250d7x4y4"><rect x="181" y="260.83333333333337" width="904" height="42.166666666666664"/></clipPath></g><g class="gradients"/><g class="patterns"/></defs><g class="bglayer"/><g class="layer-below"><g class="imagelayer"/><g class="shapelayer"/></g><g class="cartesianlayer"><g class="subplot xy"><g class="layer-subplot"><g class="shapelayer"/><g class="imagelayer"/></g><g class="minor-gridlayer"><g class="x"/><g class="y"/></g><g class="gridlayer"><g class="x"><path class="xgrid crisp" transform="translate(364.48,0)" d="M0,50v42.16666666666666" style="stroke: rgb(0, 0, 0); stroke-opacity: 0.1; stroke-width: 1px;"/><path class="xgrid crisp" transform="translate(543.49,0)" d="M0,50v42.16666666666666" style="stroke: rgb(0, 0, 0); stroke-opacity: 0.1; stroke-width: 1px;"/><path class="xgrid crisp" transform="translate(722.49,0)" d="M0,50v42.16666666666666" style="stroke: rgb(0, 0, 0); stroke-opacity: 0.1; stroke-width: 1px;"/><path class="xgrid crisp" transform="translate(901.5,0)" d="M0,50v42.16666666666666" style="stroke: rgb(0, 0, 0); stroke-opacity: 0.1; stroke-width: 1px;"/><path class="xgrid crisp" transform="translate(1080.5,0)" d="M0,50v42.16666666666666" style="stroke: rgb(0, 0, 0); stroke-opacity: 0.1; stroke-width: 1px;"/></g><g class="y"/></g><g class="zerolinelayer"><path class="xzl zl crisp" transform="translate(185.48,0)" d="M0,50v42.16666666666666" style="stroke: rgb(0, 0, 0); stroke-opacity: 0.1; stroke-width: 1px;"/><path class="yzl zl crisp" transform="translate(0,71.08)" d="M181,0h904" style="stroke: rgb(0, 0, 0); stroke-opacity: 0.1; stroke-width: 1px;"/></g><g class="layer-between"><g class="shapelayer"/><g class="imagelayer"/></g><path class="xlines-below"/><path class="ylines-below"/><g class="overlines-below"/><g class="xaxislayer-below"/><g class="yaxislayer-below"/><g class="overaxes-below"/><g class="overplot"><g class="xy" transform="translate(181,50)" clip-path="url(#clipe250d7xyplot)"><g class="violinlayer mlayer"><g class="trace violins" style="opacity: 1;"><path class="violin" d="M4.47,19.86Q4.47,19.18 4.47,18.79C4.47,18.31 4.47,17.75 4.47,17.18C4.47,16.52 4.47,15.79 4.47,15.05C4.47,14.25 4.47,13.39 4.47,12.56C4.47,11.73 4.47,10.86 4.47,10.07C4.47,9.35 4.48,8.6 4.48,7.99C4.48,7.51 4.48,6.99 4.48,6.69C4.48,6.53 4.48,6.32 4.48,6.32C4.48,6.32 4.48,6.63 4.48,6.83C4.48,7.12 4.48,7.53 4.48,7.91C4.48,8.33 4.48,8.81 4.48,9.26C4.48,9.7 4.48,10.16 4.48,10.58C4.48,10.98 4.48,11.36 4.48,11.73C4.48,12.07 4.48,12.39 4.48,12.7C4.48,13 4.48,13.27 4.48,13.56C4.48,13.85 4.48,14.13 4.48,14.42C4.48,14.73 4.48,15.05 4.48,15.37C4.48,15.71 4.48,16.07 4.48,16.42C4.48,16.78 4.48,17.15 4.48,17.51C4.48,17.86 4.48,18.22 4.48,18.55C4.48,18.86 4.48,19.16 4.48,19.43C4.48,19.67 4.48,19.9 4.48,20.1Q4.48,20.26 4.48,20.55L4.48,21.62Q4.48,21.91 4.48,22.07C4.48,22.27 4.48,22.5 4.48,22.74C4.48,23.01 4.48,23.32 4.48,23.62C4.48,23.95 4.48,24.3 4.48,24.65C4.48,25.01 4.48,25.38 4.48,25.74C4.48,26.09 4.48,26.45 4.48,26.79C4.48,27.11 4.48,27.43 4.48,27.74C4.48,28.04 4.48,28.32 4.48,28.61C4.48,28.9 4.48,29.17 4.48,29.47C4.48,29.78 4.48,30.1 4.48,30.44C4.48,30.81 4.48,31.19 4.48,31.59C4.48,32.01 4.48,32.47 4.48,32.91C4.48,33.35 4.48,33.83 4.48,34.25C4.48,34.63 4.48,35.05 4.48,35.34C4.48,35.54 4.48,35.84 4.48,35.84C4.48,35.84 4.48,35.64 4.48,35.48C4.48,35.18 4.48,34.66 4.48,34.18C4.48,33.57 4.47,32.83 4.47,32.1C4.47,31.3 4.47,30.43 4.47,29.6C4.47,28.77 4.47,27.92 4.47,27.12C4.47,26.38 4.47,25.64 4.47,24.98C4.47,24.41 4.47,23.86 4.47,23.38Q4.47,22.99 4.47,22.31Z" style="vector-effect: none; stroke-width: 0px; stroke: rgb(124, 181, 236); stroke-opacity: 1; fill: rgb(153, 153, 153); fill-opacity: 1;"/><path class="box" d="M4.48,24.77V17.39M4.48,24.77V17.39H4.48V24.77ZM4.48,21.08H4.48M4.48,21.08H4.48" style="vector-effect: non-scaling-stroke; stroke-width: 0px; stroke: rgb(124, 181, 236); stroke-opacity: 1; fill: rgb(153, 153, 153); fill-opacity: 1;"/><path class="mean" d="M4.48,24.77V17.39" style="fill: none; vector-effect: non-scaling-stroke; stroke-width: 0px; stroke-dasharray: 0px, 0px; stroke: rgb(124, 181, 236); stroke-opacity: 1;"/></g></g><g class="scatterlayer mlayer"><g class="trace scatter trace27e9ee" style="stroke-miterlimit: 2; opacity: 1;"><g class="fills"/><g class="errorbars"/><g class="lines"/><g class="points"><path class="point" transform="translate(4.48,21.08)" d="M2,0A2,2 0 1,1 0,-2A2,2 0 0,1 2,0Z" style="opacity: 1; stroke-width: 0px; fill: rgb(11, 121, 230); fill-opacity: 1;"/></g><g class="text"/></g><g class="trace scatter trace9419a3" style="stroke-miterlimit: 2; opacity: 1;"><g class="fills"/><g class="errorbars"/><g class="lines"/><g class="points"><path class="point" transform="translate(4.48,21.08)" d="M2,0A2,2 0 1,1 0,-2A2,2 0 0,1 2,0Z" style="opacity: 1; stroke-width: 0px; fill: rgb(11, 121, 230); fill-opacity: 1;"/></g><g class="text"/></g><g class="trace scatter trace307983" style="stroke-miterlimit: 2; opacity: 1;"><g class="fills"/><g class="errorbars"/><g class="lines"/><g class="points"><path class="point" transform="translate(4.48,21.08)" d="M2,0A2,2 0 1,1 0,-2A2,2 0 0,1 2,0Z" style="opacity: 1; stroke-width: 0px; fill: rgb(11, 121, 230); fill-opacity: 1;"/></g><g class="text"/></g><g class="trace scatter traced642cc" style="stroke-miterlimit: 2; opacity: 1;"><g class="fills"/><g class="errorbars"/><g class="lines"/><g class="points"><path class="point" transform="translate(4.48,21.08)" d="M2,0A2,2 0 1,1 0,-2A2,2 0 0,1 2,0Z" style="opacity: 1; stroke-width: 0px; fill: rgb(11, 121, 230); fill-opacity: 1;"/></g><g class="text"/></g><g class="trace scatter trace6eeaef" style="stroke-miterlimit: 2; opacity: 1;"><g class="fills"/><g class="errorbars"/><g class="lines"/><g class="points"><path class="point" transform="translate(4.48,21.08)" d="M2,0A2,2 0 1,1 0,-2A2,2 0 0,1 2,0Z" style="opacity: 1; stroke-width: 0px; fill: rgb(11, 121, 230); fill-opacity: 1;"/></g><g class="text"/></g><g class="trace scatter trace5d60d0" style="stroke-miterlimit: 2; opacity: 1;"><g class="fills"/><g class="errorbars"/><g class="lines"/><g class="points"><path class="point" transform="translate(4.48,21.08)" d="M2,0A2,2 0 1,1 0,-2A2,2 0 0,1 2,0Z" style="opacity: 1; stroke-width: 0px; fill: rgb(11, 121, 230); fill-opacity: 1;"/></g><g class="text"/></g></g></g></g><g class="zerolinelayer-above"/><path class="xlines-above crisp" d="M0,0" style="fill: none;"/><path class="ylines-above crisp" d="M0,0" style="fill: none;"/><g class="overlines-above"/><g class="xaxislayer-above"><g class="xtick"><text text-anchor="middle" x="0" y="102.16666666666666" transform="translate(185.48,0)" style="font-family: system-ui, -apple-system, 'Segoe UI', Roboto, 'Helvetica Neue', 'Noto Sans', 'Liberation Sans', Arial, sans-serif, 'Apple Color Emoji', 'Segoe UI Emoji', 'Segoe UI Symbol', 'Noto Color Emoji'; font-size: 9px; fill: rgb(0, 0, 0); fill-opacity: 0.5; white-space: pre;">0%</text></g><g class="xtick"><text text-anchor="middle" x="0" y="102.16666666666666" style="font-family: system-ui, -apple-system, 'Segoe UI', Roboto, 'Helvetica Neue', 'Noto Sans', 'Liberation Sans', Arial, sans-serif, 'Apple Color Emoji', 'Segoe UI Emoji', 'Segoe UI Symbol', 'Noto Color Emoji'; font-size: 9px; fill: rgb(0, 0, 0); fill-opacity: 0.5; white-space: pre;" transform="translate(364.48,0)">20%</text></g><g class="xtick"><text text-anchor="middle" x="0" y="102.16666666666666" style="font-family: system-ui, -apple-system, 'Segoe UI', Roboto, 'Helvetica Neue', 'Noto Sans', 'Liberation Sans', Arial, sans-serif, 'Apple Color Emoji', 'Segoe UI Emoji', 'Segoe UI Symbol', 'Noto Color Emoji'; font-size: 9px; fill: rgb(0, 0, 0); fill-opacity: 0.5; white-space: pre;" transform="translate(543.49,0)">40%</text></g><g class="xtick"><text text-anchor="middle" x="0" y="102.16666666666666" style="font-family: system-ui, -apple-system, 'Segoe UI', Roboto, 'Helvetica Neue', 'Noto Sans', 'Liberation Sans', Arial, sans-serif, 'Apple Color Emoji', 'Segoe UI Emoji', 'Segoe UI Symbol', 'Noto Color Emoji'; font-size: 9px; fill: rgb(0, 0, 0); fill-opacity: 0.5; white-space: pre;" transform="translate(722.49,0)">60%</text></g><g class="xtick"><text text-anchor="middle" x="0" y="102.16666666666666" style="font-family: system-ui, -apple-system, 'Segoe UI', Roboto, 'Helvetica Neue', 'Noto Sans', 'Liberation Sans', Arial, sans-serif, 'Apple Color Emoji', 'Segoe UI Emoji', 'Segoe UI Symbol', 'Noto Color Emoji'; font-size: 9px; fill: rgb(0, 0, 0); fill-opacity: 0.5; white-space: pre;" transform="translate(901.5,0)">80%</text></g><g class="xtick"><text text-anchor="middle" x="0" y="102.16666666666666" style="font-family: system-ui, -apple-system, 'Segoe UI', Roboto, 'Helvetica Neue', 'Noto Sans', 'Liberation Sans', Arial, sans-serif, 'Apple Color Emoji', 'Segoe UI Emoji', 'Segoe UI Symbol', 'Noto Color Emoji'; font-size: 9px; fill: rgb(0, 0, 0); fill-opacity: 0.5; white-space: pre;" transform="translate(1080.5,0)">100%</text></g></g><g class="yaxislayer-above"><g class="ytick"><text text-anchor="end" x="180" y="3.15" transform="translate(0,71.08)" style="font-family: system-ui, -apple-system, 'Segoe UI', Roboto, 'Helvetica Neue', 'Noto Sans', 'Liberation Sans', Arial, sans-serif, 'Apple Color Emoji', 'Segoe UI Emoji', 'Segoe UI Symbol', 'Noto Color Emoji'; font-size: 9px; fill: rgb(0, 0, 0); fill-opacity: 0.5; white-space: pre;">Caenorhabditis_elegans % Unambig  </text></g></g><g class="overaxes-above"/></g><g class="subplot x2y2"><g class="layer-subplot"><g class="shapelayer"/><g class="imagelayer"/></g><g class="minor-gridlayer"><g class="x2"/><g class="y2"/></g><g class="gridlayer"><g class="x2"><path class="x2grid crisp" transform="translate(364.48,0)" d="M0,120.27777777777779v42.16666666666666" style="stroke: rgb(0, 0, 0); stroke-opacity: 0.1; stroke-width: 1px;"/><path class="x2grid crisp" transform="translate(543.49,0)" d="M0,120.27777777777779v42.16666666666666" style="stroke: rgb(0, 0, 0); stroke-opacity: 0.1; stroke-width: 1px;"/><path class="x2grid crisp" transform="translate(722.49,0)" d="M0,120.27777777777779v42.16666666666666" style="stroke: rgb(0, 0, 0); stroke-opacity: 0.1; stroke-width: 1px;"/><path class="x2grid crisp" transform="translate(901.5,0)" d="M0,120.27777777777779v42.16666666666666" style="stroke: rgb(0, 0, 0); stroke-opacity: 0.1; stroke-width: 1px;"/><path class="x2grid crisp" transform="translate(1080.5,0)" d="M0,120.27777777777779v42.16666666666666" style="stroke: rgb(0, 0, 0); stroke-opacity: 0.1; stroke-width: 1px;"/></g><g class="y2"><path class="y2grid crisp" transform="translate(0,141.35777777777778)" d="M181,0h904" style="stroke: rgb(0, 0, 0); stroke-opacity: 0.1; stroke-width: 1px;"/></g></g><g class="zerolinelayer"><path class="x2zl zl crisp" transform="translate(185.48,0)" d="M0,120.27777777777779v42.16666666666666" style="stroke: rgb(0, 0, 0); stroke-opacity: 0.1; stroke-width: 1px;"/></g><g class="layer-between"><g class="shapelayer"/><g class="imagelayer"/></g><path class="xlines-below"/><path class="ylines-below"/><g class="overlines-below"/><g class="xaxislayer-below"/><g class="yaxislayer-below"/><g class="overaxes-below"/><g class="overplot"><g class="x2y2" transform="translate(181,120.27777777777779)" clip-path="url(#clipe250d7x2y2plot)"><g class="violinlayer mlayer"><g class="trace violins" style="opacity: 1;"><path class="violin" d="M4.46,20.05Q4.47,19.43 4.47,19.07C4.47,18.62 4.47,18.09 4.47,17.54C4.47,16.89 4.48,16.16 4.48,15.43C4.48,14.63 4.49,13.75 4.49,12.91C4.49,12.06 4.49,11.16 4.49,10.34C4.49,9.58 4.5,8.81 4.5,8.16C4.5,7.64 4.5,7.1 4.5,6.76C4.5,6.57 4.51,6.32 4.51,6.32C4.51,6.32 4.51,6.58 4.51,6.76C4.51,7.04 4.52,7.44 4.52,7.82C4.52,8.25 4.53,8.73 4.53,9.19C4.53,9.66 4.53,10.15 4.53,10.61C4.53,11.06 4.54,11.5 4.54,11.92C4.54,12.31 4.54,12.69 4.54,13.05C4.54,13.38 4.55,13.7 4.55,14.01C4.55,14.3 4.55,14.58 4.55,14.86C4.55,15.15 4.56,15.43 4.56,15.72C4.56,16.02 4.57,16.34 4.57,16.65C4.57,16.97 4.57,17.3 4.57,17.63C4.57,17.95 4.58,18.29 4.58,18.6C4.58,18.89 4.58,19.18 4.58,19.45C4.58,19.68 4.59,19.91 4.59,20.11Q4.59,20.27 4.59,20.56L4.59,21.61Q4.59,21.9 4.59,22.06C4.59,22.26 4.58,22.49 4.58,22.72C4.58,22.98 4.58,23.27 4.58,23.56C4.58,23.87 4.57,24.21 4.57,24.53C4.57,24.86 4.57,25.2 4.57,25.52C4.57,25.83 4.56,26.14 4.56,26.44C4.56,26.73 4.55,27.01 4.55,27.3C4.55,27.59 4.55,27.87 4.55,28.16C4.55,28.47 4.54,28.79 4.54,29.12C4.54,29.48 4.54,29.85 4.54,30.24C4.54,30.66 4.53,31.11 4.53,31.56C4.53,32.02 4.53,32.51 4.53,32.98C4.53,33.44 4.52,33.91 4.52,34.34C4.52,34.72 4.51,35.12 4.51,35.4C4.51,35.58 4.51,35.84 4.51,35.84C4.51,35.84 4.5,35.59 4.5,35.4C4.5,35.07 4.5,34.53 4.5,34.01C4.5,33.36 4.49,32.59 4.49,31.83C4.49,31.01 4.49,30.11 4.49,29.26C4.49,28.42 4.48,27.54 4.48,26.74C4.48,26.01 4.47,25.28 4.47,24.63C4.47,24.08 4.47,23.55 4.47,23.1Q4.47,22.73 4.46,22.11Z" style="vector-effect: none; stroke-width: 0px; stroke: rgb(43, 144, 143); stroke-opacity: 1; fill: rgb(153, 153, 153); fill-opacity: 1;"/><path class="box" d="M4.51,24.77V17.39M4.5,24.77V17.39H4.53V24.77ZM4.5,21.08H4.5M4.53,21.08H4.56" style="vector-effect: non-scaling-stroke; stroke-width: 0px; stroke: rgb(43, 144, 143); stroke-opacity: 1; fill: rgb(153, 153, 153); fill-opacity: 1;"/><path class="mean" d="M4.52,24.77V17.39" style="fill: none; vector-effect: non-scaling-stroke; stroke-width: 0px; stroke-dasharray: 0px, 0px; stroke: rgb(43, 144, 143); stroke-opacity: 1;"/></g></g><g class="scatterlayer mlayer"><g class="trace scatter trace263c60" style="stroke-miterlimit: 2; opacity: 1;"><g class="fills"/><g class="errorbars"/><g class="lines"/><g class="points"><path class="point" transform="translate(4.5,21.08)" d="M2,0A2,2 0 1,1 0,-2A2,2 0 0,1 2,0Z" style="opacity: 1; stroke-width: 0px; fill: rgb(11, 121, 230); fill-opacity: 1;"/></g><g class="text"/></g><g class="trace scatter trace3283a6" style="stroke-miterlimit: 2; opacity: 1;"><g class="fills"/><g class="errorbars"/><g class="lines"/><g class="points"><path class="point" transform="translate(4.52,21.08)" d="M2,0A2,2 0 1,1 0,-2A2,2 0 0,1 2,0Z" style="opacity: 1; stroke-width: 0px; fill: rgb(11, 121, 230); fill-opacity: 1;"/></g><g class="text"/></g><g class="trace scatter trace8dd3bf" style="stroke-miterlimit: 2; opacity: 1;"><g class="fills"/><g class="errorbars"/><g class="lines"/><g class="points"><path class="point" transform="translate(4.5,21.08)" d="M2,0A2,2 0 1,1 0,-2A2,2 0 0,1 2,0Z" style="opacity: 1; stroke-width: 0px; fill: rgb(11, 121, 230); fill-opacity: 1;"/></g><g class="text"/></g><g class="trace scatter trace79dbe9" style="stroke-miterlimit: 2; opacity: 1;"><g class="fills"/><g class="errorbars"/><g class="lines"/><g class="points"><path class="point" transform="translate(4.53,21.08)" d="M2,0A2,2 0 1,1 0,-2A2,2 0 0,1 2,0Z" style="opacity: 1; stroke-width: 0px; fill: rgb(11, 121, 230); fill-opacity: 1;"/></g><g class="text"/></g><g class="trace scatter trace69a9f8" style="stroke-miterlimit: 2; opacity: 1;"><g class="fills"/><g class="errorbars"/><g class="lines"/><g class="points"><path class="point" transform="translate(4.56,21.08)" d="M2,0A2,2 0 1,1 0,-2A2,2 0 0,1 2,0Z" style="opacity: 1; stroke-width: 0px; fill: rgb(11, 121, 230); fill-opacity: 1;"/></g><g class="text"/></g><g class="trace scatter trace270601" style="stroke-miterlimit: 2; opacity: 1;"><g class="fills"/><g class="errorbars"/><g class="lines"/><g class="points"><path class="point" transform="translate(4.5,21.08)" d="M2,0A2,2 0 1,1 0,-2A2,2 0 0,1 2,0Z" style="opacity: 1; stroke-width: 0px; fill: rgb(11, 121, 230); fill-opacity: 1;"/></g><g class="text"/></g></g></g></g><g class="zerolinelayer-above"/><path class="xlines-above crisp" d="M0,0" style="fill: none;"/><path class="ylines-above crisp" d="M0,0" style="fill: none;"/><g class="overlines-above"/><g class="xaxislayer-above"><g class="x2tick"><text text-anchor="middle" x="0" y="172.44444444444446" transform="translate(185.48,0)" style="font-family: system-ui, -apple-system, 'Segoe UI', Roboto, 'Helvetica Neue', 'Noto Sans', 'Liberation Sans', Arial, sans-serif, 'Apple Color Emoji', 'Segoe UI Emoji', 'Segoe UI Symbol', 'Noto Color Emoji'; font-size: 9px; fill: rgb(0, 0, 0); fill-opacity: 0.5; white-space: pre;">0%</text></g><g class="x2tick"><text text-anchor="middle" x="0" y="172.44444444444446" style="font-family: system-ui, -apple-system, 'Segoe UI', Roboto, 'Helvetica Neue', 'Noto Sans', 'Liberation Sans', Arial, sans-serif, 'Apple Color Emoji', 'Segoe UI Emoji', 'Segoe UI Symbol', 'Noto Color Emoji'; font-size: 9px; fill: rgb(0, 0, 0); fill-opacity: 0.5; white-space: pre;" transform="translate(364.48,0)">20%</text></g><g class="x2tick"><text text-anchor="middle" x="0" y="172.44444444444446" style="font-family: system-ui, -apple-system, 'Segoe UI', Roboto, 'Helvetica Neue', 'Noto Sans', 'Liberation Sans', Arial, sans-serif, 'Apple Color Emoji', 'Segoe UI Emoji', 'Segoe UI Symbol', 'Noto Color Emoji'; font-size: 9px; fill: rgb(0, 0, 0); fill-opacity: 0.5; white-space: pre;" transform="translate(543.49,0)">40%</text></g><g class="x2tick"><text text-anchor="middle" x="0" y="172.44444444444446" style="font-family: system-ui, -apple-system, 'Segoe UI', Roboto, 'Helvetica Neue', 'Noto Sans', 'Liberation Sans', Arial, sans-serif, 'Apple Color Emoji', 'Segoe UI Emoji', 'Segoe UI Symbol', 'Noto Color Emoji'; font-size: 9px; fill: rgb(0, 0, 0); fill-opacity: 0.5; white-space: pre;" transform="translate(722.49,0)">60%</text></g><g class="x2tick"><text text-anchor="middle" x="0" y="172.44444444444446" style="font-family: system-ui, -apple-system, 'Segoe UI', Roboto, 'Helvetica Neue', 'Noto Sans', 'Liberation Sans', Arial, sans-serif, 'Apple Color Emoji', 'Segoe UI Emoji', 'Segoe UI Symbol', 'Noto Color Emoji'; font-size: 9px; fill: rgb(0, 0, 0); fill-opacity: 0.5; white-space: pre;" transform="translate(901.5,0)">80%</text></g><g class="x2tick"><text text-anchor="middle" x="0" y="172.44444444444446" style="font-family: system-ui, -apple-system, 'Segoe UI', Roboto, 'Helvetica Neue', 'Noto Sans', 'Liberation Sans', Arial, sans-serif, 'Apple Color Emoji', 'Segoe UI Emoji', 'Segoe UI Symbol', 'Noto Color Emoji'; font-size: 9px; fill: rgb(0, 0, 0); fill-opacity: 0.5; white-space: pre;" transform="translate(1080.5,0)">100%</text></g></g><g class="yaxislayer-above"><g class="y2tick"><text text-anchor="end" x="180" y="3.15" transform="translate(0,141.35777777777778)" style="font-family: system-ui, -apple-system, 'Segoe UI', Roboto, 'Helvetica Neue', 'Noto Sans', 'Liberation Sans', Arial, sans-serif, 'Apple Color Emoji', 'Segoe UI Emoji', 'Segoe UI Symbol', 'Noto Color Emoji'; font-size: 9px; fill: rgb(0, 0, 0); fill-opacity: 0.5; white-space: pre;">Caenorhabditis_elegans % Ambig  </text></g></g><g class="overaxes-above"/></g><g class="subplot x3y3"><g class="layer-subplot"><g class="shapelayer"/><g class="imagelayer"/></g><g class="minor-gridlayer"><g class="x3"/><g class="y3"/></g><g class="gridlayer"><g class="x3"><path class="x3grid crisp" transform="translate(364.48,0)" d="M0,190.55555555555557v42.16666666666666" style="stroke: rgb(0, 0, 0); stroke-opacity: 0.1; stroke-width: 1px;"/><path class="x3grid crisp" transform="translate(543.49,0)" d="M0,190.55555555555557v42.16666666666666" style="stroke: rgb(0, 0, 0); stroke-opacity: 0.1; stroke-width: 1px;"/><path class="x3grid crisp" transform="translate(722.49,0)" d="M0,190.55555555555557v42.16666666666666" style="stroke: rgb(0, 0, 0); stroke-opacity: 0.1; stroke-width: 1px;"/><path class="x3grid crisp" transform="translate(901.5,0)" d="M0,190.55555555555557v42.16666666666666" style="stroke: rgb(0, 0, 0); stroke-opacity: 0.1; stroke-width: 1px;"/><path class="x3grid crisp" transform="translate(1080.5,0)" d="M0,190.55555555555557v42.16666666666666" style="stroke: rgb(0, 0, 0); stroke-opacity: 0.1; stroke-width: 1px;"/></g><g class="y3"><path class="y3grid crisp" transform="translate(0,211.63555555555558)" d="M181,0h904" style="stroke: rgb(0, 0, 0); stroke-opacity: 0.1; stroke-width: 1px;"/></g></g><g class="zerolinelayer"><path class="x3zl zl crisp" transform="translate(185.48,0)" d="M0,190.55555555555557v42.16666666666666" style="stroke: rgb(0, 0, 0); stroke-opacity: 0.1; stroke-width: 1px;"/></g><g class="layer-between"><g class="shapelayer"/><g class="imagelayer"/></g><path class="xlines-below"/><path class="ylines-below"/><g class="overlines-below"/><g class="xaxislayer-below"/><g class="yaxislayer-below"/><g class="overaxes-below"/><g class="overplot"><g class="x3y3" transform="translate(181,190.55555555555557)" clip-path="url(#clipe250d7x3y3plot)"><g class="violinlayer mlayer"><g class="trace violins" style="opacity: 1;"><path class="violin" d="M898.36,20.46Q898.37,20.12 898.37,19.93C898.37,19.69 898.38,19.42 898.38,19.14C898.39,18.82 898.4,18.47 898.4,18.11C898.41,17.72 898.41,17.3 898.41,16.88C898.41,16.45 898.42,16.01 898.42,15.57C898.43,15.13 898.43,14.68 898.44,14.23C898.44,13.79 898.45,13.34 898.45,12.9C898.45,12.46 898.45,12.01 898.46,11.57C898.46,11.13 898.47,10.68 898.48,10.25C898.48,9.83 898.49,9.42 898.49,9.02C898.49,8.65 898.5,8.28 898.5,7.95C898.5,7.66 898.5,7.38 898.51,7.13C898.51,6.93 898.52,6.73 898.53,6.58C898.53,6.48 898.53,6.32 898.54,6.32C898.54,6.32 898.55,6.36 898.55,6.4C898.56,6.5 898.57,6.7 898.57,6.9C898.58,7.18 898.58,7.53 898.58,7.9C898.58,8.35 898.59,8.88 898.59,9.42C898.59,10.02 898.6,10.68 898.6,11.33C898.61,12.01 898.61,12.73 898.62,13.43C898.62,14.12 898.63,14.83 898.63,15.5C898.63,16.12 898.63,16.73 898.64,17.3C898.64,17.8 898.65,18.29 898.66,18.73C898.66,19.1 898.67,19.44 898.67,19.74Q898.67,19.98 898.68,20.38L898.68,21.78Q898.67,22.19 898.67,22.43C898.67,22.73 898.66,23.07 898.66,23.44C898.65,23.87 898.64,24.36 898.64,24.86C898.63,25.43 898.63,26.05 898.63,26.67C898.63,27.33 898.62,28.04 898.62,28.73C898.61,29.43 898.61,30.15 898.6,30.84C898.6,31.49 898.59,32.15 898.59,32.75C898.59,33.28 898.58,33.81 898.58,34.26C898.58,34.63 898.58,34.98 898.57,35.26C898.57,35.46 898.56,35.66 898.55,35.76C898.55,35.8 898.54,35.84 898.54,35.84C898.53,35.84 898.53,35.68 898.53,35.58C898.52,35.43 898.51,35.24 898.51,35.04C898.5,34.8 898.5,34.51 898.5,34.22C898.5,33.89 898.49,33.52 898.49,33.15C898.49,32.75 898.48,32.33 898.48,31.91C898.47,31.48 898.46,31.04 898.46,30.6C898.45,30.16 898.45,29.71 898.45,29.27C898.45,28.82 898.45,28.38 898.44,27.93C898.44,27.49 898.43,27.04 898.42,26.6C898.42,26.16 898.41,25.71 898.41,25.28C898.41,24.87 898.41,24.45 898.4,24.06C898.4,23.7 898.39,23.35 898.38,23.03C898.38,22.75 898.37,22.48 898.37,22.24Q898.37,22.05 898.36,21.71Z" style="vector-effect: none; stroke-width: 0px; stroke: rgb(128, 133, 233); stroke-opacity: 1; fill: rgb(153, 153, 153); fill-opacity: 1;"/><path class="box" d="M898.53,24.77V17.39M898.5,24.77V17.39H898.57V24.77ZM898.5,21.08H898.44M898.57,21.08H898.6" style="vector-effect: non-scaling-stroke; stroke-width: 0px; stroke: rgb(128, 133, 233); stroke-opacity: 1; fill: rgb(153, 153, 153); fill-opacity: 1;"/><path class="mean" d="M898.53,24.77V17.39" style="fill: none; vector-effect: non-scaling-stroke; stroke-width: 0px; stroke-dasharray: 0px, 0px; stroke: rgb(128, 133, 233); stroke-opacity: 1;"/></g></g><g class="scatterlayer mlayer"><g class="trace scatter trace77251c" style="stroke-miterlimit: 2; opacity: 1;"><g class="fills"/><g class="errorbars"/><g class="lines"/><g class="points"><path class="point" transform="translate(898.5,21.08)" d="M2,0A2,2 0 1,1 0,-2A2,2 0 0,1 2,0Z" style="opacity: 1; stroke-width: 0px; fill: rgb(11, 121, 230); fill-opacity: 1;"/></g><g class="text"/></g><g class="trace scatter trace510682" style="stroke-miterlimit: 2; opacity: 1;"><g class="fills"/><g class="errorbars"/><g class="lines"/><g class="points"><path class="point" transform="translate(898.57,21.08)" d="M2,0A2,2 0 1,1 0,-2A2,2 0 0,1 2,0Z" style="opacity: 1; stroke-width: 0px; fill: rgb(11, 121, 230); fill-opacity: 1;"/></g><g class="text"/></g><g class="trace scatter trace9e1016" style="stroke-miterlimit: 2; opacity: 1;"><g class="fills"/><g class="errorbars"/><g class="lines"/><g class="points"><path class="point" transform="translate(898.51,21.08)" d="M2,0A2,2 0 1,1 0,-2A2,2 0 0,1 2,0Z" style="opacity: 1; stroke-width: 0px; fill: rgb(11, 121, 230); fill-opacity: 1;"/></g><g class="text"/></g><g class="trace scatter tracef9c520" style="stroke-miterlimit: 2; opacity: 1;"><g class="fills"/><g class="errorbars"/><g class="lines"/><g class="points"><path class="point" transform="translate(898.6,21.08)" d="M2,0A2,2 0 1,1 0,-2A2,2 0 0,1 2,0Z" style="opacity: 1; stroke-width: 0px; fill: rgb(11, 121, 230); fill-opacity: 1;"/></g><g class="text"/></g><g class="trace scatter traceebf0dc" style="stroke-miterlimit: 2; opacity: 1;"><g class="fills"/><g class="errorbars"/><g class="lines"/><g class="points"><path class="point" transform="translate(898.55,21.08)" d="M2,0A2,2 0 1,1 0,-2A2,2 0 0,1 2,0Z" style="opacity: 1; stroke-width: 0px; fill: rgb(11, 121, 230); fill-opacity: 1;"/></g><g class="text"/></g><g class="trace scatter tracea8c475" style="stroke-miterlimit: 2; opacity: 1;"><g class="fills"/><g class="errorbars"/><g class="lines"/><g class="points"><path class="point" transform="translate(898.44,21.08)" d="M2,0A2,2 0 1,1 0,-2A2,2 0 0,1 2,0Z" style="opacity: 1; stroke-width: 0px; fill: rgb(11, 121, 230); fill-opacity: 1;"/></g><g class="text"/></g></g></g></g><g class="zerolinelayer-above"/><path class="xlines-above crisp" d="M0,0" style="fill: none;"/><path class="ylines-above crisp" d="M0,0" style="fill: none;"/><g class="overlines-above"/><g class="xaxislayer-above"><g class="x3tick"><text text-anchor="middle" x="0" y="242.72222222222223" transform="translate(185.48,0)" style="font-family: system-ui, -apple-system, 'Segoe UI', Roboto, 'Helvetica Neue', 'Noto Sans', 'Liberation Sans', Arial, sans-serif, 'Apple Color Emoji', 'Segoe UI Emoji', 'Segoe UI Symbol', 'Noto Color Emoji'; font-size: 9px; fill: rgb(0, 0, 0); fill-opacity: 0.5; white-space: pre;">0%</text></g><g class="x3tick"><text text-anchor="middle" x="0" y="242.72222222222223" style="font-family: system-ui, -apple-system, 'Segoe UI', Roboto, 'Helvetica Neue', 'Noto Sans', 'Liberation Sans', Arial, sans-serif, 'Apple Color Emoji', 'Segoe UI Emoji', 'Segoe UI Symbol', 'Noto Color Emoji'; font-size: 9px; fill: rgb(0, 0, 0); fill-opacity: 0.5; white-space: pre;" transform="translate(364.48,0)">20%</text></g><g class="x3tick"><text text-anchor="middle" x="0" y="242.72222222222223" style="font-family: system-ui, -apple-system, 'Segoe UI', Roboto, 'Helvetica Neue', 'Noto Sans', 'Liberation Sans', Arial, sans-serif, 'Apple Color Emoji', 'Segoe UI Emoji', 'Segoe UI Symbol', 'Noto Color Emoji'; font-size: 9px; fill: rgb(0, 0, 0); fill-opacity: 0.5; white-space: pre;" transform="translate(543.49,0)">40%</text></g><g class="x3tick"><text text-anchor="middle" x="0" y="242.72222222222223" style="font-family: system-ui, -apple-system, 'Segoe UI', Roboto, 'Helvetica Neue', 'Noto Sans', 'Liberation Sans', Arial, sans-serif, 'Apple Color Emoji', 'Segoe UI Emoji', 'Segoe UI Symbol', 'Noto Color Emoji'; font-size: 9px; fill: rgb(0, 0, 0); fill-opacity: 0.5; white-space: pre;" transform="translate(722.49,0)">60%</text></g><g class="x3tick"><text text-anchor="middle" x="0" y="242.72222222222223" style="font-family: system-ui, -apple-system, 'Segoe UI', Roboto, 'Helvetica Neue', 'Noto Sans', 'Liberation Sans', Arial, sans-serif, 'Apple Color Emoji', 'Segoe UI Emoji', 'Segoe UI Symbol', 'Noto Color Emoji'; font-size: 9px; fill: rgb(0, 0, 0); fill-opacity: 0.5; white-space: pre;" transform="translate(901.5,0)">80%</text></g><g class="x3tick"><text text-anchor="middle" x="0" y="242.72222222222223" style="font-family: system-ui, -apple-system, 'Segoe UI', Roboto, 'Helvetica Neue', 'Noto Sans', 'Liberation Sans', Arial, sans-serif, 'Apple Color Emoji', 'Segoe UI Emoji', 'Segoe UI Symbol', 'Noto Color Emoji'; font-size: 9px; fill: rgb(0, 0, 0); fill-opacity: 0.5; white-space: pre;" transform="translate(1080.5,0)">100%</text></g></g><g class="yaxislayer-above"><g class="y3tick"><text text-anchor="end" x="180" y="3.15" transform="translate(0,211.63555555555558)" style="font-family: system-ui, -apple-system, 'Segoe UI', Roboto, 'Helvetica Neue', 'Noto Sans', 'Liberation Sans', Arial, sans-serif, 'Apple Color Emoji', 'Segoe UI Emoji', 'Segoe UI Symbol', 'Noto Color Emoji'; font-size: 9px; fill: rgb(0, 0, 0); fill-opacity: 0.5; white-space: pre;">primary_chrX % Unambig  </text></g></g><g class="overaxes-above"/></g><g class="subplot x4y4"><g class="layer-subplot"><g class="shapelayer"/><g class="imagelayer"/></g><g class="minor-gridlayer"><g class="x4"/><g class="y4"/></g><g class="gridlayer"><g class="x4"><path class="x4grid crisp" transform="translate(364.48,0)" d="M0,260.83333333333337v42.166666666666664" style="stroke: rgb(0, 0, 0); stroke-opacity: 0.1; stroke-width: 1px;"/><path class="x4grid crisp" transform="translate(543.49,0)" d="M0,260.83333333333337v42.166666666666664" style="stroke: rgb(0, 0, 0); stroke-opacity: 0.1; stroke-width: 1px;"/><path class="x4grid crisp" transform="translate(722.49,0)" d="M0,260.83333333333337v42.166666666666664" style="stroke: rgb(0, 0, 0); stroke-opacity: 0.1; stroke-width: 1px;"/><path class="x4grid crisp" transform="translate(901.5,0)" d="M0,260.83333333333337v42.166666666666664" style="stroke: rgb(0, 0, 0); stroke-opacity: 0.1; stroke-width: 1px;"/><path class="x4grid crisp" transform="translate(1080.5,0)" d="M0,260.83333333333337v42.166666666666664" style="stroke: rgb(0, 0, 0); stroke-opacity: 0.1; stroke-width: 1px;"/></g><g class="y4"><path class="y4grid crisp" transform="translate(0,281.91333333333336)" d="M181,0h904" style="stroke: rgb(0, 0, 0); stroke-opacity: 0.1; stroke-width: 1px;"/></g></g><g class="zerolinelayer"><path class="x4zl zl crisp" transform="translate(185.48,0)" d="M0,260.83333333333337v42.166666666666664" style="stroke: rgb(0, 0, 0); stroke-opacity: 0.1; stroke-width: 1px;"/></g><g class="layer-between"><g class="shapelayer"/><g class="imagelayer"/></g><path class="xlines-below"/><path class="ylines-below"/><g class="overlines-below"/><g class="xaxislayer-below"/><g class="yaxislayer-below"/><g class="overaxes-below"/><g class="overplot"><g class="x4y4" transform="translate(181,260.83333333333337)" clip-path="url(#clipe250d7x4y4plot)"><g class="violinlayer mlayer"><g class="trace violins" style="opacity: 1;"><path class="violin" d="M4.46,20.05Q4.47,19.43 4.47,19.07C4.47,18.62 4.47,18.09 4.47,17.54C4.47,16.89 4.48,16.16 4.48,15.43C4.48,14.63 4.49,13.75 4.49,12.91C4.49,12.06 4.49,11.16 4.49,10.34C4.49,9.58 4.5,8.81 4.5,8.16C4.5,7.64 4.5,7.1 4.5,6.76C4.5,6.57 4.51,6.32 4.51,6.32C4.51,6.32 4.51,6.58 4.51,6.76C4.51,7.04 4.52,7.44 4.52,7.82C4.52,8.25 4.53,8.73 4.53,9.19C4.53,9.66 4.53,10.15 4.53,10.61C4.53,11.06 4.54,11.5 4.54,11.92C4.54,12.31 4.54,12.69 4.54,13.05C4.54,13.38 4.55,13.7 4.55,14.01C4.55,14.3 4.55,14.58 4.55,14.86C4.55,15.15 4.56,15.43 4.56,15.72C4.56,16.02 4.57,16.34 4.57,16.65C4.57,16.97 4.57,17.3 4.57,17.63C4.57,17.95 4.58,18.29 4.58,18.6C4.58,18.89 4.58,19.18 4.58,19.45C4.58,19.68 4.59,19.91 4.59,20.11Q4.59,20.27 4.59,20.56L4.59,21.61Q4.59,21.9 4.59,22.06C4.59,22.26 4.58,22.49 4.58,22.72C4.58,22.98 4.58,23.27 4.58,23.56C4.58,23.87 4.57,24.21 4.57,24.53C4.57,24.86 4.57,25.2 4.57,25.52C4.57,25.83 4.56,26.14 4.56,26.44C4.56,26.73 4.55,27.01 4.55,27.3C4.55,27.59 4.55,27.87 4.55,28.16C4.55,28.47 4.54,28.79 4.54,29.12C4.54,29.48 4.54,29.85 4.54,30.24C4.54,30.66 4.53,31.11 4.53,31.56C4.53,32.02 4.53,32.51 4.53,32.98C4.53,33.44 4.52,33.91 4.52,34.34C4.52,34.72 4.51,35.12 4.51,35.4C4.51,35.58 4.51,35.84 4.51,35.84C4.51,35.84 4.5,35.59 4.5,35.4C4.5,35.07 4.5,34.53 4.5,34.01C4.5,33.36 4.49,32.59 4.49,31.83C4.49,31.01 4.49,30.11 4.49,29.26C4.49,28.42 4.48,27.54 4.48,26.74C4.48,26.01 4.47,25.28 4.47,24.63C4.47,24.08 4.47,23.55 4.47,23.1Q4.47,22.73 4.46,22.11Z" style="vector-effect: none; stroke-width: 0px; stroke: rgb(67, 67, 72); stroke-opacity: 1; fill: rgb(153, 153, 153); fill-opacity: 1;"/><path class="box" d="M4.51,24.77V17.39M4.5,24.77V17.39H4.53V24.77ZM4.5,21.08H4.5M4.53,21.08H4.56" style="vector-effect: non-scaling-stroke; stroke-width: 0px; stroke: rgb(67, 67, 72); stroke-opacity: 1; fill: rgb(153, 153, 153); fill-opacity: 1;"/><path class="mean" d="M4.52,24.77V17.39" style="fill: none; vector-effect: non-scaling-stroke; stroke-width: 0px; stroke-dasharray: 0px, 0px; stroke: rgb(67, 67, 72); stroke-opacity: 1;"/></g></g><g class="scatterlayer mlayer"><g class="trace scatter trace015373" style="stroke-miterlimit: 2; opacity: 1;"><g class="fills"/><g class="errorbars"/><g class="lines"/><g class="points"><path class="point" transform="translate(4.5,21.08)" d="M2,0A2,2 0 1,1 0,-2A2,2 0 0,1 2,0Z" style="opacity: 1; stroke-width: 0px; fill: rgb(11, 121, 230); fill-opacity: 1;"/></g><g class="text"/></g><g class="trace scatter tracef72916" style="stroke-miterlimit: 2; opacity: 1;"><g class="fills"/><g class="errorbars"/><g class="lines"/><g class="points"><path class="point" transform="translate(4.52,21.08)" d="M2,0A2,2 0 1,1 0,-2A2,2 0 0,1 2,0Z" style="opacity: 1; stroke-width: 0px; fill: rgb(11, 121, 230); fill-opacity: 1;"/></g><g class="text"/></g><g class="trace scatter trace58d77f" style="stroke-miterlimit: 2; opacity: 1;"><g class="fills"/><g class="errorbars"/><g class="lines"/><g class="points"><path class="point" transform="translate(4.5,21.08)" d="M2,0A2,2 0 1,1 0,-2A2,2 0 0,1 2,0Z" style="opacity: 1; stroke-width: 0px; fill: rgb(11, 121, 230); fill-opacity: 1;"/></g><g class="text"/></g><g class="trace scatter trace8b518c" style="stroke-miterlimit: 2; opacity: 1;"><g class="fills"/><g class="errorbars"/><g class="lines"/><g class="points"><path class="point" transform="translate(4.53,21.08)" d="M2,0A2,2 0 1,1 0,-2A2,2 0 0,1 2,0Z" style="opacity: 1; stroke-width: 0px; fill: rgb(11, 121, 230); fill-opacity: 1;"/></g><g class="text"/></g><g class="trace scatter tracec73ae8" style="stroke-miterlimit: 2; opacity: 1;"><g class="fills"/><g class="errorbars"/><g class="lines"/><g class="points"><path class="point" transform="translate(4.56,21.08)" d="M2,0A2,2 0 1,1 0,-2A2,2 0 0,1 2,0Z" style="opacity: 1; stroke-width: 0px; fill: rgb(11, 121, 230); fill-opacity: 1;"/></g><g class="text"/></g><g class="trace scatter trace0aae80" style="stroke-miterlimit: 2; opacity: 1;"><g class="fills"/><g class="errorbars"/><g class="lines"/><g class="points"><path class="point" transform="translate(4.5,21.08)" d="M2,0A2,2 0 1,1 0,-2A2,2 0 0,1 2,0Z" style="opacity: 1; stroke-width: 0px; fill: rgb(11, 121, 230); fill-opacity: 1;"/></g><g class="text"/></g></g></g></g><g class="zerolinelayer-above"/><path class="xlines-above crisp" d="M0,0" style="fill: none;"/><path class="ylines-above crisp" d="M0,0" style="fill: none;"/><g class="overlines-above"/><g class="xaxislayer-above"><g class="x4tick"><text text-anchor="middle" x="0" y="313.00000000000006" transform="translate(185.48,0)" style="font-family: system-ui, -apple-system, 'Segoe UI', Roboto, 'Helvetica Neue', 'Noto Sans', 'Liberation Sans', Arial, sans-serif, 'Apple Color Emoji', 'Segoe UI Emoji', 'Segoe UI Symbol', 'Noto Color Emoji'; font-size: 9px; fill: rgb(0, 0, 0); fill-opacity: 0.5; white-space: pre;">0%</text></g><g class="x4tick"><text text-anchor="middle" x="0" y="313.00000000000006" style="font-family: system-ui, -apple-system, 'Segoe UI', Roboto, 'Helvetica Neue', 'Noto Sans', 'Liberation Sans', Arial, sans-serif, 'Apple Color Emoji', 'Segoe UI Emoji', 'Segoe UI Symbol', 'Noto Color Emoji'; font-size: 9px; fill: rgb(0, 0, 0); fill-opacity: 0.5; white-space: pre;" transform="translate(364.48,0)">20%</text></g><g class="x4tick"><text text-anchor="middle" x="0" y="313.00000000000006" style="font-family: system-ui, -apple-system, 'Segoe UI', Roboto, 'Helvetica Neue', 'Noto Sans', 'Liberation Sans', Arial, sans-serif, 'Apple Color Emoji', 'Segoe UI Emoji', 'Segoe UI Symbol', 'Noto Color Emoji'; font-size: 9px; fill: rgb(0, 0, 0); fill-opacity: 0.5; white-space: pre;" transform="translate(543.49,0)">40%</text></g><g class="x4tick"><text text-anchor="middle" x="0" y="313.00000000000006" style="font-family: system-ui, -apple-system, 'Segoe UI', Roboto, 'Helvetica Neue', 'Noto Sans', 'Liberation Sans', Arial, sans-serif, 'Apple Color Emoji', 'Segoe UI Emoji', 'Segoe UI Symbol', 'Noto Color Emoji'; font-size: 9px; fill: rgb(0, 0, 0); fill-opacity: 0.5; white-space: pre;" transform="translate(722.49,0)">60%</text></g><g class="x4tick"><text text-anchor="middle" x="0" y="313.00000000000006" style="font-family: system-ui, -apple-system, 'Segoe UI', Roboto, 'Helvetica Neue', 'Noto Sans', 'Liberation Sans', Arial, sans-serif, 'Apple Color Emoji', 'Segoe UI Emoji', 'Segoe UI Symbol', 'Noto Color Emoji'; font-size: 9px; fill: rgb(0, 0, 0); fill-opacity: 0.5; white-space: pre;" transform="translate(901.5,0)">80%</text></g><g class="x4tick"><text text-anchor="middle" x="0" y="313.00000000000006" style="font-family: system-ui, -apple-system, 'Segoe UI', Roboto, 'Helvetica Neue', 'Noto Sans', 'Liberation Sans', Arial, sans-serif, 'Apple Color Emoji', 'Segoe UI Emoji', 'Segoe UI Symbol', 'Noto Color Emoji'; font-size: 9px; fill: rgb(0, 0, 0); fill-opacity: 0.5; white-space: pre;" transform="translate(1080.5,0)">100%</text></g></g><g class="yaxislayer-above"><g class="y4tick"><text text-anchor="end" x="180" y="3.15" transform="translate(0,281.91333333333336)" style="font-family: system-ui, -apple-system, 'Segoe UI', Roboto, 'Helvetica Neue', 'Noto Sans', 'Liberation Sans', Arial, sans-serif, 'Apple Color Emoji', 'Segoe UI Emoji', 'Segoe UI Symbol', 'Noto Color Emoji'; font-size: 9px; fill: rgb(0, 0, 0); fill-opacity: 0.5; white-space: pre;">primary_chrX % Ambig  </text></g></g><g class="overaxes-above"/></g></g><g class="polarlayer"/><g class="smithlayer"/><g class="ternarylayer"/><g class="geolayer"/><g class="funnelarealayer"/><g class="pielayer"/><g class="iciclelayer"/><g class="treemaplayer"/><g class="sunburstlayer"/><g class="glimages"/><defs id="topdefs-e250d7"><g class="clips"/></defs><g class="layer-above"><g class="imagelayer"/><g class="shapelayer"/></g><g class="infolayer"><g class="g-gtitle"><text class="gtitle" x="550" y="25" text-anchor="middle" dy="0em" style="opacity: 1; font-family: system-ui, -apple-system, 'Segoe UI', Roboto, 'Helvetica Neue', 'Noto Sans', 'Liberation Sans', Arial, sans-serif, 'Apple Color Emoji', 'Segoe UI Emoji', 'Segoe UI Symbol', 'Noto Color Emoji'; font-size: 20px; fill: rgb(60, 60, 60); fill-opacity: 1; white-space: pre;"><tspan class="line" dy="0em" x="550" y="25">BBTools: BBSplit Statistics</tspan><tspan class="line" dy="1.3em" x="550" y="25">​<tspan style="font-size:70%" dy="-0.6em">6 samples</tspan><tspan dy="0.42em">​</tspan></tspan></text></g><g class="g-xtitle"/><g class="g-x2title"/><g class="g-x3title"/><g class="g-x4title"/><g class="g-ytitle"/><g class="g-y2title"/><g class="g-y3title"/><g class="g-y4title"/></g></svg>
