<svg xmlns="http://www.w3.org/2000/svg" xmlns:xlink="http://www.w3.org/1999/xlink" xmlns:inkscape="http://www.inkscape.org/namespaces/inkscape" version="1.1" width="720" height="504" viewBox="0 0 720 504">
<defs>
<clipPath id="clip_1">
<path transform="matrix(1,0,0,-1,0,504)" d="M0 0H720V504H0Z"/>
</clipPath>
<clipPath id="clip_2">
<path transform="matrix(1,0,0,-1,0,504)" d="M28.47 97.92H213.24V471.81H28.47Z"/>
</clipPath>
<clipPath id="clip_3">
<path transform="matrix(1,0,0,-1,0,504)" d="M218.72 97.92H319.5V471.81H218.72Z"/>
</clipPath>
<clipPath id="clip_4">
<path transform="matrix(1,0,0,-1,0,504)" d="M324.99 97.92H677.74V471.81H324.99Z"/>
</clipPath>
<clipPath id="clip_5">
<path transform="matrix(1,0,0,-1,0,504)" d="M28.47 471.81H213.24V498.52H28.47Z"/>
</clipPath>
<clipPath id="clip_6">
<path transform="matrix(1,0,0,-1,0,504)" d="M218.72 471.81H319.5V498.52H218.72Z"/>
</clipPath>
<clipPath id="clip_7">
<path transform="matrix(1,0,0,-1,0,504)" d="M324.99 471.81H677.74V498.52H324.99Z"/>
</clipPath>
<clipPath id="clip_8">
<path transform="matrix(1,0,0,-1,0,504)" d="M677.74 97.92H714.52V471.81H677.74Z"/>
</clipPath>
</defs>
<g clip-path="url(#clip_1)">
<path transform="matrix(1,0,0,-1,0,504)" d="M-0 0H720V504H-0Z" fill="#ffffff"/>
<path transform="matrix(1,0,0,-1,0,504)" stroke-width="1.07" stroke-linecap="round" stroke-linejoin="round" fill="none" stroke="#ffffff" d="M-0 0H720V504H-0Z"/>
</g>
<g clip-path="url(#clip_2)">
<path transform="matrix(1,0,0,-1,0,504)" d="M28.47 97.92H213.24V471.81H28.47Z" fill="#ffffff"/>
<path transform="matrix(1,0,0,-1,0,504)" stroke-width=".53" stroke-linecap="butt" stroke-linejoin="round" fill="none" stroke="#ebebeb" d="M28.47 171.56H213.25"/>
<path transform="matrix(1,0,0,-1,0,504)" stroke-width=".53" stroke-linecap="butt" stroke-linejoin="round" fill="none" stroke="#ebebeb" d="M28.47 284.86H213.25"/>
<path transform="matrix(1,0,0,-1,0,504)" stroke-width=".53" stroke-linecap="butt" stroke-linejoin="round" fill="none" stroke="#ebebeb" d="M28.47 398.16H213.25"/>
<path transform="matrix(1,0,0,-1,0,504)" stroke-width="1.07" stroke-linecap="butt" stroke-linejoin="round" fill="none" stroke="#ebebeb" d="M28.47 114.91H213.25"/>
<path transform="matrix(1,0,0,-1,0,504)" stroke-width="1.07" stroke-linecap="butt" stroke-linejoin="round" fill="none" stroke="#ebebeb" d="M28.47 228.21H213.25"/>
<path transform="matrix(1,0,0,-1,0,504)" stroke-width="1.07" stroke-linecap="butt" stroke-linejoin="round" fill="none" stroke="#ebebeb" d="M28.47 341.51H213.25"/>
<path transform="matrix(1,0,0,-1,0,504)" stroke-width="1.07" stroke-linecap="butt" stroke-linejoin="round" fill="none" stroke="#ebebeb" d="M28.47 454.81H213.25"/>
<path transform="matrix(1,0,0,-1,0,504)" stroke-width="1.07" stroke-linecap="butt" stroke-linejoin="round" fill="none" stroke="#ebebeb" d="M78.87 97.92V471.81"/>
<path transform="matrix(1,0,0,-1,0,504)" stroke-width="1.07" stroke-linecap="butt" stroke-linejoin="round" fill="none" stroke="#ebebeb" d="M162.85 97.92V471.81"/>
<path transform="matrix(1,0,0,-1,0,504)" d="M41.07 114.91H116.659999V284.86H41.07Z" fill="#595959"/>
<path transform="matrix(1,0,0,-1,0,504)" d="M125.06 114.91H200.65V341.51H125.06Z" fill="#595959"/>
<path transform="matrix(1,0,0,-1,0,504)" stroke-width="1.07" stroke-linecap="round" stroke-linejoin="round" fill="none" stroke="#333333" d="M28.47 97.92H213.24V471.81H28.47Z"/>
</g>
<g clip-path="url(#clip_3)">
<path transform="matrix(1,0,0,-1,0,504)" d="M218.72 97.92H319.5V471.81H218.72Z" fill="#ffffff"/>
<path transform="matrix(1,0,0,-1,0,504)" stroke-width=".53" stroke-linecap="butt" stroke-linejoin="round" fill="none" stroke="#ebebeb" d="M218.72 171.56H319.51"/>
<path transform="matrix(1,0,0,-1,0,504)" stroke-width=".53" stroke-linecap="butt" stroke-linejoin="round" fill="none" stroke="#ebebeb" d="M218.72 284.86H319.51"/>
<path transform="matrix(1,0,0,-1,0,504)" stroke-width=".53" stroke-linecap="butt" stroke-linejoin="round" fill="none" stroke="#ebebeb" d="M218.72 398.16H319.51"/>
<path transform="matrix(1,0,0,-1,0,504)" stroke-width="1.07" stroke-linecap="butt" stroke-linejoin="round" fill="none" stroke="#ebebeb" d="M218.72 114.91H319.51"/>
<path transform="matrix(1,0,0,-1,0,504)" stroke-width="1.07" stroke-linecap="butt" stroke-linejoin="round" fill="none" stroke="#ebebeb" d="M218.72 228.21H319.51"/>
<path transform="matrix(1,0,0,-1,0,504)" stroke-width="1.07" stroke-linecap="butt" stroke-linejoin="round" fill="none" stroke="#ebebeb" d="M218.72 341.51H319.51"/>
<path transform="matrix(1,0,0,-1,0,504)" stroke-width="1.07" stroke-linecap="butt" stroke-linejoin="round" fill="none" stroke="#ebebeb" d="M218.72 454.81H319.51"/>
<path transform="matrix(1,0,0,-1,0,504)" stroke-width="1.07" stroke-linecap="butt" stroke-linejoin="round" fill="none" stroke="#ebebeb" d="M269.12 97.92V471.81"/>
<path transform="matrix(1,0,0,-1,0,504)" d="M231.32 114.91H306.91V171.56H231.32Z" fill="#595959"/>
<path transform="matrix(1,0,0,-1,0,504)" stroke-width="1.07" stroke-linecap="round" stroke-linejoin="round" fill="none" stroke="#333333" d="M218.72 97.92H319.5V471.81H218.72Z"/>
</g>
<g clip-path="url(#clip_4)">
<path transform="matrix(1,0,0,-1,0,504)" d="M324.99 97.92H677.74V471.81H324.99Z" fill="#ffffff"/>
<path transform="matrix(1,0,0,-1,0,504)" stroke-width=".53" stroke-linecap="butt" stroke-linejoin="round" fill="none" stroke="#ebebeb" d="M324.99 171.56H677.74"/>
<path transform="matrix(1,0,0,-1,0,504)" stroke-width=".53" stroke-linecap="butt" stroke-linejoin="round" fill="none" stroke="#ebebeb" d="M324.99 284.86H677.74"/>
<path transform="matrix(1,0,0,-1,0,504)" stroke-width=".53" stroke-linecap="butt" stroke-linejoin="round" fill="none" stroke="#ebebeb" d="M324.99 398.16H677.74"/>
<path transform="matrix(1,0,0,-1,0,504)" stroke-width="1.07" stroke-linecap="butt" stroke-linejoin="round" fill="none" stroke="#ebebeb" d="M324.99 114.91H677.74"/>
<path transform="matrix(1,0,0,-1,0,504)" stroke-width="1.07" stroke-linecap="butt" stroke-linejoin="round" fill="none" stroke="#ebebeb" d="M324.99 228.21H677.74"/>
<path transform="matrix(1,0,0,-1,0,504)" stroke-width="1.07" stroke-linecap="butt" stroke-linejoin="round" fill="none" stroke="#ebebeb" d="M324.99 341.51H677.74"/>
<path transform="matrix(1,0,0,-1,0,504)" stroke-width="1.07" stroke-linecap="butt" stroke-linejoin="round" fill="none" stroke="#ebebeb" d="M324.99 454.81H677.74"/>
<path transform="matrix(1,0,0,-1,0,504)" stroke-width="1.07" stroke-linecap="butt" stroke-linejoin="round" fill="none" stroke="#ebebeb" d="M375.38 97.92V471.81"/>
<path transform="matrix(1,0,0,-1,0,504)" stroke-width="1.07" stroke-linecap="butt" stroke-linejoin="round" fill="none" stroke="#ebebeb" d="M459.37 97.92V471.81"/>
<path transform="matrix(1,0,0,-1,0,504)" stroke-width="1.07" stroke-linecap="butt" stroke-linejoin="round" fill="none" stroke="#ebebeb" d="M543.36 97.92V471.81"/>
<path transform="matrix(1,0,0,-1,0,504)" stroke-width="1.07" stroke-linecap="butt" stroke-linejoin="round" fill="none" stroke="#ebebeb" d="M627.34 97.92V471.81"/>
<path transform="matrix(1,0,0,-1,0,504)" d="M337.59 114.91H413.18V284.86H337.59Z" fill="#595959"/>
<path transform="matrix(1,0,0,-1,0,504)" d="M421.57 114.91H497.16V228.21H421.57Z" fill="#595959"/>
<path transform="matrix(1,0,0,-1,0,504)" d="M505.56 114.91H581.15V284.86H505.56Z" fill="#595959"/>
<path transform="matrix(1,0,0,-1,0,504)" d="M589.55 114.91H665.14V454.81H589.55Z" fill="#595959"/>
<path transform="matrix(1,0,0,-1,0,504)" stroke-width="1.07" stroke-linecap="round" stroke-linejoin="round" fill="none" stroke="#333333" d="M324.99 97.92H677.74V471.81H324.99Z"/>
</g>
<g clip-path="url(#clip_5)">
<path transform="matrix(1,0,0,-1,0,504)" d="M28.47 471.81H213.24V498.52H28.47Z" fill="#d9d9d9"/>
<path transform="matrix(1,0,0,-1,0,504)" stroke-width="1.07" stroke-linecap="round" stroke-linejoin="round" fill="none" stroke="#333333" d="M28.47 471.81H213.24V498.52H28.47Z"/>
<text fill="#1a1a1a" xml:space="preserve" transform="matrix(1 0 -0 1 0 504)" font-size="9" font-family="Nimbus Sans"><tspan y="-486.68" x="109.35 111.852 116.855998 119.357997 122.354999 127.35899">Intron</tspan></text>
<text fill="#1a1a1a" xml:space="preserve" transform="matrix(1 0 -0 1 0 504)" font-size="9" font-family="Nimbus Sans"><tspan y="-477.18" x="103.35 106.347 111.351 113.853 118.856998 123.86099 126.36299 128.361 133.36499">retention</tspan></text>
</g>
<g clip-path="url(#clip_6)">
<path transform="matrix(1,0,0,-1,0,504)" d="M218.72 471.81H319.5V498.52H218.72Z" fill="#d9d9d9"/>
<path transform="matrix(1,0,0,-1,0,504)" stroke-width="1.07" stroke-linecap="round" stroke-linejoin="round" fill="none" stroke="#333333" d="M218.72 471.81H319.5V498.52H218.72Z"/>
<text fill="#1a1a1a" xml:space="preserve" transform="matrix(1 0 -0 1 0 504)" font-size="9" font-family="Nimbus Sans"><tspan y="-486.68" x="258.87 265.36799 272.865">NMD</tspan></text>
<text fill="#1a1a1a" xml:space="preserve" transform="matrix(1 0 -0 1 0 504)" font-size="9" font-family="Nimbus Sans"><tspan y="-477.18" x="257.11 261.61 264.112 269.116 271.618 276.622">status</tspan></text>
</g>
<g clip-path="url(#clip_7)">
<path transform="matrix(1,0,0,-1,0,504)" d="M324.99 471.81H677.74V498.52H324.99Z" fill="#d9d9d9"/>
<path transform="matrix(1,0,0,-1,0,504)" stroke-width="1.07" stroke-linecap="round" stroke-linejoin="round" fill="none" stroke="#333333" d="M324.99 471.81H677.74V498.52H324.99Z"/>
<text fill="#1a1a1a" xml:space="preserve" transform="matrix(1 0 -0 1 0 504)" font-size="9" font-family="Nimbus Sans"><tspan y="-486.68" x="483.36 490.362 496.86 502.35899 504.861 509.361 514.365">ORF seq</tspan></text>
<text fill="#1a1a1a" xml:space="preserve" transform="matrix(1 0 -0 1 0 504)" font-size="9" font-family="Nimbus Sans"><tspan y="-477.18" x="483.8 488.3 490.29798 497.79499 499.79298 501.79096 506.79496 509.92698 511.92497 514.42697">similarity</tspan></text>
</g>
<g clip-path="url(#clip_8)">
<path transform="matrix(1,0,0,-1,0,504)" d="M677.74 97.92H714.52V471.81H677.74Z" fill="#d9d9d9"/>
<path transform="matrix(1,0,0,-1,0,504)" stroke-width="1.07" stroke-linecap="round" stroke-linejoin="round" fill="none" stroke="#333333" d="M677.74 97.92H714.52V471.81H677.74Z"/>
<text fill="#1a1a1a" xml:space="preserve" transform="matrix(1 0 -0 1 0 504)" font-size="9" font-family="Nimbus Sans"><tspan y="-291.14" x="682.62 687.12 692.124 697.12808 699.63009 702.6271 707.6311">control</tspan></text>
<text fill="#1a1a1a" xml:space="preserve" transform="matrix(1 0 -0 1 0 504)" font-size="9" font-family="Nimbus Sans"><tspan y="-281.63" x="691.63 696.13">vs</tspan></text>
<text fill="#1a1a1a" xml:space="preserve" transform="matrix(1 0 -0 1 0 504)" font-size="9" font-family="Nimbus Sans"><tspan y="-272.13" x="682.12 684.622 687.619 692.62307 697.6271 700.1291 705.1331">treated</tspan></text>
</g>
<path transform="matrix(1,0,0,-1,0,504)" stroke-width="1.07" stroke-linecap="butt" stroke-linejoin="round" fill="none" stroke="#333333" d="M78.87 95.18V97.92"/>
<path transform="matrix(1,0,0,-1,0,504)" stroke-width="1.07" stroke-linecap="butt" stroke-linejoin="round" fill="none" stroke="#333333" d="M162.85 95.18V97.92"/>
<text fill="#4d4d4d" xml:space="preserve" transform="matrix(.7071068 .7071068 -.7071068 .7071068 0 504)" font-size="8.994398" font-family="Nimbus Sans"><tspan y="-115.06041" x="-9.984341 -7.483898">In</tspan><tspan y="-115.0604" x="-2.4830094">t</tspan><tspan y="-115.06041" x=".017436982">r</tspan><tspan y="-115.0604" x="3.0125733">o</tspan><tspan y="-115.06041" x="8.013462">n</tspan><tspan y="-115.0604" x="13.014351 15.514793"> r</tspan><tspan y="-115.06041" x="18.509938 23.510823">et</tspan><tspan y="-115.0604" x="26.011269">e</tspan><tspan y="-115.06041" x="31.01215 36.013044 38.51349 40.51024 45.511125">ntion</tspan><tspan y="-115.06042" x="50.512018 53.01246 58.013345"> ga</tspan><tspan y="-115.060428" x="63.014238 65.01099">in</tspan></text>
<text fill="#4d4d4d" xml:space="preserve" transform="matrix(.7071068 .7071068 -.7071068 .7071068 0 504)" font-size="8.994398" font-family="Nimbus Sans"><tspan y="-174.44322" x="49.39848 51.898923 56.89981 59.400255 62.39539 67.39627">Intron</tspan><tspan y="-174.4432" x="72.39716 74.897609 77.892749"> re</tspan><tspan y="-174.44322" x="82.89363">t</tspan><tspan y="-174.4432" x="85.39407 90.39496">en</tspan><tspan y="-174.44322" x="95.39586">t</tspan><tspan y="-174.4432" x="97.89629">i</tspan><tspan y="-174.44322" x="99.89305 104.893939 109.89482 112.39527">on l</tspan><tspan y="-174.44324" x="114.39203 119.392917 123.890117">oss</tspan></text>
<path transform="matrix(1,0,0,-1,0,504)" stroke-width="1.07" stroke-linecap="butt" stroke-linejoin="round" fill="none" stroke="#333333" d="M269.12 95.18V97.92"/>
<text fill="#4d4d4d" xml:space="preserve" transform="matrix(.7071068 .7071068 -.7071068 .7071068 0 504)" font-size="8.994398" font-family="Nimbus Sans"><tspan y="-249.58745" x="124.54271">N</tspan><tspan y="-249.58744" x="131.03665 138.52899">MD</tspan><tspan y="-249.58745" x="145.02294"> </tspan><tspan y="-249.58744" x="147.52338 152.02057 157.02146 162.02234 166.51953 168.5163">sensit</tspan><tspan y="-249.58742" x="171.01674">i</tspan><tspan y="-249.58744" x="173.01349 177.28583">ve</tspan></text>
<path transform="matrix(1,0,0,-1,0,504)" stroke-width="1.07" stroke-linecap="butt" stroke-linejoin="round" fill="none" stroke="#333333" d="M375.38 95.18V97.92"/>
<path transform="matrix(1,0,0,-1,0,504)" stroke-width="1.07" stroke-linecap="butt" stroke-linejoin="round" fill="none" stroke="#333333" d="M459.37 95.18V97.92"/>
<path transform="matrix(1,0,0,-1,0,504)" stroke-width="1.07" stroke-linecap="butt" stroke-linejoin="round" fill="none" stroke="#333333" d="M543.36 95.18V97.92"/>
<path transform="matrix(1,0,0,-1,0,504)" stroke-width="1.07" stroke-linecap="butt" stroke-linejoin="round" fill="none" stroke="#333333" d="M627.34 95.18V97.92"/>
<text fill="#4d4d4d" xml:space="preserve" transform="matrix(.7071068 .7071068 -.7071068 .7071068 0 504)" font-size="8.994398" font-family="Nimbus Sans"><tspan y="-324.7246" x="199.67987 206.17383 211.1747 218.66706 223.66793 225.66468 230.66559 233.16602 238.16692">Complete </tspan><tspan y="-324.72459" x="240.66733">O</tspan><tspan y="-324.7246" x="247.66498 254.15894">RF</tspan><tspan y="-324.72459" x="259.6545 262.15495"> g</tspan><tspan y="-324.7246" x="267.15583">a</tspan><tspan y="-324.72459" x="272.1567 274.15348">in</tspan></text>
<text fill="#4d4d4d" xml:space="preserve" transform="matrix(.7071068 .7071068 -.7071068 .7071068 0 504)" font-size="8.994398" font-family="Nimbus Sans"><tspan y="-384.1145" x="259.06977 265.56373 270.56459 278.05696 283.0578 285.05458 290.05549 292.5559 297.55677">Complete </tspan><tspan y="-384.11448" x="300.05723">O</tspan><tspan y="-384.1145" x="307.05488 313.54884">RF</tspan><tspan y="-384.11448" x="319.0444 321.54484 323.5416"> lo</tspan><tspan y="-384.1145" x="328.54249 333.03968">ss</tspan></text>
<text fill="#4d4d4d" xml:space="preserve" transform="matrix(.7071068 .7071068 -.7071068 .7071068 0 504)" font-size="8.994398" font-family="Nimbus Sans"><tspan y="-443.50437" x="318.45964 325.45726 331.9512 337.4468 339.94725 341.944 346.4412 348.94163 350.9384">ORF is lo</tspan><tspan y="-443.50434" x="355.93928 360.94013">ng</tspan><tspan y="-443.5043" x="365.941 370.94187">er</tspan></text>
<text fill="#4d4d4d" xml:space="preserve" transform="matrix(.7071068 .7071068 -.7071068 .7071068 0 504)" font-size="8.994398" font-family="Nimbus Sans"><tspan y="-502.88725" x="377.8425 384.84013 391.33409 396.82969 399.3301 401.32688 405.82408">ORF is </tspan><tspan y="-502.8872" x="408.32447 412.82167">sh</tspan><tspan y="-502.88719" x="417.82255 422.8234">or</tspan><tspan y="-502.88716" x="426.17829 428.6787">te</tspan><tspan y="-502.88713" x="433.6796">r</tspan></text>
<text fill="#4d4d4d" xml:space="preserve" transform="matrix(1 0 -0 1 0 504)" font-size="9" font-family="Nimbus Sans"><tspan y="-111.68" x="18.54">0</tspan></text>
<text fill="#4d4d4d" xml:space="preserve" transform="matrix(1 0 -0 1 0 504)" font-size="9" font-family="Nimbus Sans"><tspan y="-224.98" x="18.54">2</tspan></text>
<text fill="#4d4d4d" xml:space="preserve" transform="matrix(1 0 -0 1 0 504)" font-size="9" font-family="Nimbus Sans"><tspan y="-338.28" x="18.54">4</tspan></text>
<text fill="#4d4d4d" xml:space="preserve" transform="matrix(1 0 -0 1 0 504)" font-size="9" font-family="Nimbus Sans"><tspan y="-451.58" x="18.54">6</tspan></text>
<path transform="matrix(1,0,0,-1,0,504)" stroke-width="1.07" stroke-linecap="butt" stroke-linejoin="round" fill="none" stroke="#333333" d="M25.73 114.91H28.47"/>
<path transform="matrix(1,0,0,-1,0,504)" stroke-width="1.07" stroke-linecap="butt" stroke-linejoin="round" fill="none" stroke="#333333" d="M25.73 228.21H28.47"/>
<path transform="matrix(1,0,0,-1,0,504)" stroke-width="1.07" stroke-linecap="butt" stroke-linejoin="round" fill="none" stroke="#333333" d="M25.73 341.51H28.47"/>
<path transform="matrix(1,0,0,-1,0,504)" stroke-width="1.07" stroke-linecap="butt" stroke-linejoin="round" fill="none" stroke="#333333" d="M25.73 454.81H28.47"/>
<text xml:space="preserve" transform="matrix(1 0 -0 1 0 504)" font-size="11" font-family="Nimbus Sans"><tspan y="-19.78" x="296.25 304.192 310.30799 316.42399 321.92399 328.03999 334.15599 340.27198 346.38798 352.50398 358.00398 364.11997 367.17799 373.29399 376.352 379.41 384.91 392.852 395.29399 398.352 403.852">Consequence of switch</tspan></text>
<text xml:space="preserve" transform="matrix(1 0 -0 1 0 504)" font-size="11" font-family="Nimbus Sans"><tspan y="-7.9" x="264.34 268.003 270.73103 276.84703 282.963 286.02104 292.13703 295.80003 301.91603 307.41603 310.47404 316.59004 319.64805 322.70606 325.76408 331.88008 337.99607 341.05409 347.17008 353.28608 356.94908 363.06507 369.18107 375.29707 377.73905 383.85505 386.91307 393.02906 399.14506 402.20307 404.64506 410.14506 416.26106 418.98908 425.10508 429.04307 438.20606">(features of the upregulated isoform)</tspan></text>
<text xml:space="preserve" transform="matrix(0 -1 1 0 0 504)" font-size="11" font-family="Nimbus Sans"><tspan y="13.38" x="236.91 244.852 250.968 260.131 266.247 272.363 276.026 279.084 285.2 288.25804 291.31605 293.75804 299.25804 305.37403 308.10206 314.21806 318.15605 327.31904">Number of isoforms</tspan></text>
</svg>
