<svg xmlns="http://www.w3.org/2000/svg" xmlns:xlink="http://www.w3.org/1999/xlink" xmlns:inkscape="http://www.inkscape.org/namespaces/inkscape" version="1.1" width="720" height="576" viewBox="0 0 720 576">
<defs>
<clipPath id="clip_1">
<path transform="matrix(1,0,0,-1,0,576)" d="M28.47 31.91H620.52999V570.51998H28.47Z"/>
</clipPath>
</defs>
<path transform="matrix(1,0,0,-1,0,576)" d="M0 0H720V576H0Z" fill="#ffffff"/>
<path transform="matrix(1,0,0,-1,0,576)" d="M-0 0H720V576H-0Z" fill="#ffffff"/>
<path transform="matrix(1,0,0,-1,0,576)" stroke-width="1.07" stroke-linecap="round" stroke-linejoin="round" fill="none" stroke="#ffffff" d="M-0 0H720V576H-0Z"/>
<g clip-path="url(#clip_1)">
<path transform="matrix(1,0,0,-1,0,576)" d="M28.47 31.91H620.52999V570.51998H28.47Z" fill="#ffffff"/>
<path transform="matrix(1,0,0,-1,0,576)" stroke-width=".53" stroke-linecap="butt" stroke-linejoin="round" fill="none" stroke="#ebebeb" d="M28.47 118.72H620.53"/>
<path transform="matrix(1,0,0,-1,0,576)" stroke-width=".53" stroke-linecap="butt" stroke-linejoin="round" fill="none" stroke="#ebebeb" d="M28.47 243.37H620.53"/>
<path transform="matrix(1,0,0,-1,0,576)" stroke-width=".53" stroke-linecap="butt" stroke-linejoin="round" fill="none" stroke="#ebebeb" d="M28.47 368.02H620.53"/>
<path transform="matrix(1,0,0,-1,0,576)" stroke-width=".53" stroke-linecap="butt" stroke-linejoin="round" fill="none" stroke="#ebebeb" d="M28.47 492.67H620.53"/>
<path transform="matrix(1,0,0,-1,0,576)" stroke-width=".53" stroke-linecap="butt" stroke-linejoin="round" fill="none" stroke="#ebebeb" d="M80.91 31.91V570.52"/>
<path transform="matrix(1,0,0,-1,0,576)" stroke-width=".53" stroke-linecap="butt" stroke-linejoin="round" fill="none" stroke="#ebebeb" d="M246.01 31.91V570.52"/>
<path transform="matrix(1,0,0,-1,0,576)" stroke-width=".53" stroke-linecap="butt" stroke-linejoin="round" fill="none" stroke="#ebebeb" d="M411.11 31.91V570.52"/>
<path transform="matrix(1,0,0,-1,0,576)" stroke-width=".53" stroke-linecap="butt" stroke-linejoin="round" fill="none" stroke="#ebebeb" d="M576.21 31.91V570.52"/>
<path transform="matrix(1,0,0,-1,0,576)" stroke-width="1.07" stroke-linecap="butt" stroke-linejoin="round" fill="none" stroke="#ebebeb" d="M28.47 56.39H620.53"/>
<path transform="matrix(1,0,0,-1,0,576)" stroke-width="1.07" stroke-linecap="butt" stroke-linejoin="round" fill="none" stroke="#ebebeb" d="M28.47 181.04H620.53"/>
<path transform="matrix(1,0,0,-1,0,576)" stroke-width="1.07" stroke-linecap="butt" stroke-linejoin="round" fill="none" stroke="#ebebeb" d="M28.47 305.69H620.53"/>
<path transform="matrix(1,0,0,-1,0,576)" stroke-width="1.07" stroke-linecap="butt" stroke-linejoin="round" fill="none" stroke="#ebebeb" d="M28.47 430.34H620.53"/>
<path transform="matrix(1,0,0,-1,0,576)" stroke-width="1.07" stroke-linecap="butt" stroke-linejoin="round" fill="none" stroke="#ebebeb" d="M28.47 554.99H620.53"/>
<path transform="matrix(1,0,0,-1,0,576)" stroke-width="1.07" stroke-linecap="butt" stroke-linejoin="round" fill="none" stroke="#ebebeb" d="M163.46 31.91V570.52"/>
<path transform="matrix(1,0,0,-1,0,576)" stroke-width="1.07" stroke-linecap="butt" stroke-linejoin="round" fill="none" stroke="#ebebeb" d="M328.56 31.91V570.52"/>
<path transform="matrix(1,0,0,-1,0,576)" stroke-width="1.07" stroke-linecap="butt" stroke-linejoin="round" fill="none" stroke="#ebebeb" d="M493.66 31.91V570.52"/>
<path transform="matrix(1,0,0,-1,0,576)" d="M350.91 56.39C350.91 57.17 351.55 57.81 352.33 57.81 353.11 57.81 353.75 57.17 353.75 56.39 353.75 55.61 353.11 54.97 352.33 54.97 351.55 54.97 350.91 55.61 350.91 56.39"/>
<path transform="matrix(1,0,0,-1,0,576)" stroke-width=".71" stroke-linecap="round" stroke-linejoin="round" fill="none" stroke="#000000" d="M350.91 56.39C350.91 57.17 351.55 57.81 352.33 57.81 353.11 57.81 353.75 57.17 353.75 56.39 353.75 55.61 353.11 54.97 352.33 54.97 351.55 54.97 350.91 55.61 350.91 56.39"/>
<path transform="matrix(1,0,0,-1,0,576)" d="M316.99 56.39C316.99 57.17 317.63 57.81 318.41 57.81 319.19 57.81 319.83 57.17 319.83 56.39 319.83 55.61 319.19 54.97 318.41 54.97 317.63 54.97 316.99 55.61 316.99 56.39"/>
<path transform="matrix(1,0,0,-1,0,576)" stroke-width=".71" stroke-linecap="round" stroke-linejoin="round" fill="none" stroke="#000000" d="M316.99 56.39C316.99 57.17 317.63 57.81 318.41 57.81 319.19 57.81 319.83 57.17 319.83 56.39 319.83 55.61 319.19 54.97 318.41 54.97 317.63 54.97 316.99 55.61 316.99 56.39"/>
<path transform="matrix(1,0,0,-1,0,576)" d="M341 56.39C341 57.17 341.64 57.81 342.43 57.81 343.21 57.81 343.85 57.17 343.85 56.39 343.85 55.61 343.21 54.97 342.43 54.97 341.64 54.97 341 55.61 341 56.39"/>
<path transform="matrix(1,0,0,-1,0,576)" stroke-width=".71" stroke-linecap="round" stroke-linejoin="round" fill="none" stroke="#000000" d="M341 56.39C341 57.17 341.64 57.81 342.43 57.81 343.21 57.81 343.85 57.17 343.85 56.39 343.85 55.61 343.21 54.97 342.43 54.97 341.64 54.97 341 55.61 341 56.39"/>
<path transform="matrix(1,0,0,-1,0,576)" d="M321.05 56.39C321.05 57.17 321.69 57.81 322.47 57.81 323.25 57.81 323.89 57.17 323.89 56.39 323.89 55.61 323.25 54.97 322.47 54.97 321.69 54.97 321.05 55.61 321.05 56.39"/>
<path transform="matrix(1,0,0,-1,0,576)" stroke-width=".71" stroke-linecap="round" stroke-linejoin="round" fill="none" stroke="#000000" d="M321.05 56.39C321.05 57.17 321.69 57.81 322.47 57.81 323.25 57.81 323.89 57.17 323.89 56.39 323.89 55.61 323.25 54.97 322.47 54.97 321.69 54.97 321.05 55.61 321.05 56.39"/>
<path transform="matrix(1,0,0,-1,0,576)" d="M341.56 56.39C341.56 57.17 342.19 57.81 342.98 57.81 343.76 57.81 344.4 57.17 344.4 56.39 344.4 55.61 343.76 54.97 342.98 54.97 342.19 54.97 341.56 55.61 341.56 56.39"/>
<path transform="matrix(1,0,0,-1,0,576)" stroke-width=".71" stroke-linecap="round" stroke-linejoin="round" fill="none" stroke="#000000" d="M341.56 56.39C341.56 57.17 342.19 57.81 342.98 57.81 343.76 57.81 344.4 57.17 344.4 56.39 344.4 55.61 343.76 54.97 342.98 54.97 342.19 54.97 341.56 55.61 341.56 56.39"/>
<path transform="matrix(1,0,0,-1,0,576)" d="M313.85 56.39C313.85 57.17 314.49 57.81 315.27 57.81 316.05 57.81 316.69 57.17 316.69 56.39 316.69 55.61 316.05 54.97 315.27 54.97 314.49 54.97 313.85 55.61 313.85 56.39"/>
<path transform="matrix(1,0,0,-1,0,576)" stroke-width=".71" stroke-linecap="round" stroke-linejoin="round" fill="none" stroke="#000000" d="M313.85 56.39C313.85 57.17 314.49 57.81 315.27 57.81 316.05 57.81 316.69 57.17 316.69 56.39 316.69 55.61 316.05 54.97 315.27 54.97 314.49 54.97 313.85 55.61 313.85 56.39"/>
<path transform="matrix(1,0,0,-1,0,576)" d="M245.37 327.2C245.37 327.98 246.01 328.62 246.79 328.62 247.57 328.62 248.21 327.98 248.21 327.2 248.21 326.42 247.57 325.78 246.79 325.78 246.01 325.78 245.37 326.42 245.37 327.2" fill="#ff0000"/>
<path transform="matrix(1,0,0,-1,0,576)" stroke-width=".71" stroke-linecap="round" stroke-linejoin="round" fill="none" stroke="#ff0000" d="M245.37 327.2C245.37 327.98 246.01 328.62 246.79 328.62 247.57 328.62 248.21 327.98 248.21 327.2 248.21 326.42 247.57 325.78 246.79 325.78 246.01 325.78 245.37 326.42 245.37 327.2"/>
<path transform="matrix(1,0,0,-1,0,576)" d="M300.39 56.39C300.39 57.17 301.03 57.81 301.81 57.81 302.59 57.81 303.23 57.17 303.23 56.39 303.23 55.61 302.59 54.97 301.81 54.97 301.03 54.97 300.39 55.61 300.39 56.39"/>
<path transform="matrix(1,0,0,-1,0,576)" stroke-width=".71" stroke-linecap="round" stroke-linejoin="round" fill="none" stroke="#000000" d="M300.39 56.39C300.39 57.17 301.03 57.81 301.81 57.81 302.59 57.81 303.23 57.17 303.23 56.39 303.23 55.61 302.59 54.97 301.81 54.97 301.03 54.97 300.39 55.61 300.39 56.39"/>
<path transform="matrix(1,0,0,-1,0,576)" d="M351.13 56.39C351.13 57.17 351.77 57.81 352.55 57.81 353.33 57.81 353.97 57.17 353.97 56.39 353.97 55.61 353.33 54.97 352.55 54.97 351.77 54.97 351.13 55.61 351.13 56.39"/>
<path transform="matrix(1,0,0,-1,0,576)" stroke-width=".71" stroke-linecap="round" stroke-linejoin="round" fill="none" stroke="#000000" d="M351.13 56.39C351.13 57.17 351.77 57.81 352.55 57.81 353.33 57.81 353.97 57.17 353.97 56.39 353.97 55.61 353.33 54.97 352.55 54.97 351.77 54.97 351.13 55.61 351.13 56.39"/>
<path transform="matrix(1,0,0,-1,0,576)" d="M323.55 56.39C323.55 57.17 324.19 57.81 324.97 57.81 325.75 57.81 326.39 57.17 326.39 56.39 326.39 55.61 325.75 54.97 324.97 54.97 324.19 54.97 323.55 55.61 323.55 56.39"/>
<path transform="matrix(1,0,0,-1,0,576)" stroke-width=".71" stroke-linecap="round" stroke-linejoin="round" fill="none" stroke="#000000" d="M323.55 56.39C323.55 57.17 324.19 57.81 324.97 57.81 325.75 57.81 326.39 57.17 326.39 56.39 326.39 55.61 325.75 54.97 324.97 54.97 324.19 54.97 323.55 55.61 323.55 56.39"/>
<path transform="matrix(1,0,0,-1,0,576)" d="M291.2 56.39C291.2 57.17 291.84 57.81 292.62 57.81 293.4 57.81 294.04 57.17 294.04 56.39 294.04 55.61 293.4 54.97 292.62 54.97 291.84 54.97 291.2 55.61 291.2 56.39"/>
<path transform="matrix(1,0,0,-1,0,576)" stroke-width=".71" stroke-linecap="round" stroke-linejoin="round" fill="none" stroke="#000000" d="M291.2 56.39C291.2 57.17 291.84 57.81 292.62 57.81 293.4 57.81 294.04 57.17 294.04 56.39 294.04 55.61 293.4 54.97 292.62 54.97 291.84 54.97 291.2 55.61 291.2 56.39"/>
<path transform="matrix(1,0,0,-1,0,576)" d="M336.72 56.52C336.72 57.3 337.36 57.94 338.14 57.94 338.93 57.94 339.57 57.3 339.57 56.52 339.57 55.73 338.93 55.09 338.14 55.09 337.36 55.09 336.72 55.73 336.72 56.52"/>
<path transform="matrix(1,0,0,-1,0,576)" stroke-width=".71" stroke-linecap="round" stroke-linejoin="round" fill="none" stroke="#000000" d="M336.72 56.52C336.72 57.3 337.36 57.94 338.14 57.94 338.93 57.94 339.57 57.3 339.57 56.52 339.57 55.73 338.93 55.09 338.14 55.09 337.36 55.09 336.72 55.73 336.72 56.52"/>
<path transform="matrix(1,0,0,-1,0,576)" d="M326.61 56.39C326.61 57.17 327.25 57.81 328.03 57.81 328.81 57.81 329.45 57.17 329.45 56.39 329.45 55.61 328.81 54.97 328.03 54.97 327.25 54.97 326.61 55.61 326.61 56.39"/>
<path transform="matrix(1,0,0,-1,0,576)" stroke-width=".71" stroke-linecap="round" stroke-linejoin="round" fill="none" stroke="#000000" d="M326.61 56.39C326.61 57.17 327.25 57.81 328.03 57.81 328.81 57.81 329.45 57.17 329.45 56.39 329.45 55.61 328.81 54.97 328.03 54.97 327.25 54.97 326.61 55.61 326.61 56.39"/>
<path transform="matrix(1,0,0,-1,0,576)" d="M322.12 56.39C322.12 57.17 322.76 57.81 323.54 57.81 324.32 57.81 324.96 57.17 324.96 56.39 324.96 55.61 324.32 54.97 323.54 54.97 322.76 54.97 322.12 55.61 322.12 56.39"/>
<path transform="matrix(1,0,0,-1,0,576)" stroke-width=".71" stroke-linecap="round" stroke-linejoin="round" fill="none" stroke="#000000" d="M322.12 56.39C322.12 57.17 322.76 57.81 323.54 57.81 324.32 57.81 324.96 57.17 324.96 56.39 324.96 55.61 324.32 54.97 323.54 54.97 322.76 54.97 322.12 55.61 322.12 56.39"/>
<path transform="matrix(1,0,0,-1,0,576)" d="M360.24 56.39C360.24 57.17 360.88 57.81 361.67 57.81 362.45 57.81 363.09 57.17 363.09 56.39 363.09 55.61 362.45 54.97 361.67 54.97 360.88 54.97 360.24 55.61 360.24 56.39"/>
<path transform="matrix(1,0,0,-1,0,576)" stroke-width=".71" stroke-linecap="round" stroke-linejoin="round" fill="none" stroke="#000000" d="M360.24 56.39C360.24 57.17 360.88 57.81 361.67 57.81 362.45 57.81 363.09 57.17 363.09 56.39 363.09 55.61 362.45 54.97 361.67 54.97 360.88 54.97 360.24 55.61 360.24 56.39"/>
<path transform="matrix(1,0,0,-1,0,576)" d="M317.86 56.39C317.86 57.17 318.5 57.81 319.28 57.81 320.06 57.81 320.7 57.17 320.7 56.39 320.7 55.61 320.06 54.97 319.28 54.97 318.5 54.97 317.86 55.61 317.86 56.39"/>
<path transform="matrix(1,0,0,-1,0,576)" stroke-width=".71" stroke-linecap="round" stroke-linejoin="round" fill="none" stroke="#000000" d="M317.86 56.39C317.86 57.17 318.5 57.81 319.28 57.81 320.06 57.81 320.7 57.17 320.7 56.39 320.7 55.61 320.06 54.97 319.28 54.97 318.5 54.97 317.86 55.61 317.86 56.39"/>
<path transform="matrix(1,0,0,-1,0,576)" d="M320.22 56.39C320.22 57.17 320.86 57.81 321.65 57.81 322.43 57.81 323.07 57.17 323.07 56.39 323.07 55.61 322.43 54.97 321.65 54.97 320.86 54.97 320.22 55.61 320.22 56.39"/>
<path transform="matrix(1,0,0,-1,0,576)" stroke-width=".71" stroke-linecap="round" stroke-linejoin="round" fill="none" stroke="#000000" d="M320.22 56.39C320.22 57.17 320.86 57.81 321.65 57.81 322.43 57.81 323.07 57.17 323.07 56.39 323.07 55.61 322.43 54.97 321.65 54.97 320.86 54.97 320.22 55.61 320.22 56.39"/>
<path transform="matrix(1,0,0,-1,0,576)" d="M331.87 56.39C331.87 57.17 332.51 57.81 333.29 57.81 334.07 57.81 334.71 57.17 334.71 56.39 334.71 55.61 334.07 54.97 333.29 54.97 332.51 54.97 331.87 55.61 331.87 56.39"/>
<path transform="matrix(1,0,0,-1,0,576)" stroke-width=".71" stroke-linecap="round" stroke-linejoin="round" fill="none" stroke="#000000" d="M331.87 56.39C331.87 57.17 332.51 57.81 333.29 57.81 334.07 57.81 334.71 57.17 334.71 56.39 334.71 55.61 334.07 54.97 333.29 54.97 332.51 54.97 331.87 55.61 331.87 56.39"/>
<path transform="matrix(1,0,0,-1,0,576)" d="M342.2 56.39C342.2 57.17 342.84 57.81 343.63 57.81 344.41 57.81 345.05 57.17 345.05 56.39 345.05 55.61 344.41 54.97 343.63 54.97 342.84 54.97 342.2 55.61 342.2 56.39"/>
<path transform="matrix(1,0,0,-1,0,576)" stroke-width=".71" stroke-linecap="round" stroke-linejoin="round" fill="none" stroke="#000000" d="M342.2 56.39C342.2 57.17 342.84 57.81 343.63 57.81 344.41 57.81 345.05 57.17 345.05 56.39 345.05 55.61 344.41 54.97 343.63 54.97 342.84 54.97 342.2 55.61 342.2 56.39"/>
<path transform="matrix(1,0,0,-1,0,576)" d="M331.75 56.39C331.75 57.17 332.39 57.81 333.17 57.81 333.95 57.81 334.59 57.17 334.59 56.39 334.59 55.61 333.95 54.97 333.17 54.97 332.39 54.97 331.75 55.61 331.75 56.39"/>
<path transform="matrix(1,0,0,-1,0,576)" stroke-width=".71" stroke-linecap="round" stroke-linejoin="round" fill="none" stroke="#000000" d="M331.75 56.39C331.75 57.17 332.39 57.81 333.17 57.81 333.95 57.81 334.59 57.17 334.59 56.39 334.59 55.61 333.95 54.97 333.17 54.97 332.39 54.97 331.75 55.61 331.75 56.39"/>
<path transform="matrix(1,0,0,-1,0,576)" d="M378.45 199.44C378.45 200.22 379.09 200.86 379.87 200.86 380.65 200.86 381.29 200.22 381.29 199.44 381.29 198.66 380.65 198.02 379.87 198.02 379.09 198.02 378.45 198.66 378.45 199.44" fill="#ff0000"/>
<path transform="matrix(1,0,0,-1,0,576)" stroke-width=".71" stroke-linecap="round" stroke-linejoin="round" fill="none" stroke="#ff0000" d="M378.45 199.44C378.45 200.22 379.09 200.86 379.87 200.86 380.65 200.86 381.29 200.22 381.29 199.44 381.29 198.66 380.65 198.02 379.87 198.02 379.09 198.02 378.45 198.66 378.45 199.44"/>
<path transform="matrix(1,0,0,-1,0,576)" d="M329.39 56.39C329.39 57.17 330.03 57.81 330.81 57.81 331.6 57.81 332.24 57.17 332.24 56.39 332.24 55.61 331.6 54.97 330.81 54.97 330.03 54.97 329.39 55.61 329.39 56.39"/>
<path transform="matrix(1,0,0,-1,0,576)" stroke-width=".71" stroke-linecap="round" stroke-linejoin="round" fill="none" stroke="#000000" d="M329.39 56.39C329.39 57.17 330.03 57.81 330.81 57.81 331.6 57.81 332.24 57.17 332.24 56.39 332.24 55.61 331.6 54.97 330.81 54.97 330.03 54.97 329.39 55.61 329.39 56.39"/>
<path transform="matrix(1,0,0,-1,0,576)" d="M235.24 197.13C235.24 197.92 235.88 198.56 236.66 198.56 237.45 198.56 238.08 197.92 238.08 197.13 238.08 196.35 237.45 195.71 236.66 195.71 235.88 195.71 235.24 196.35 235.24 197.13" fill="#ff0000"/>
<path transform="matrix(1,0,0,-1,0,576)" stroke-width=".71" stroke-linecap="round" stroke-linejoin="round" fill="none" stroke="#ff0000" d="M235.24 197.13C235.24 197.92 235.88 198.56 236.66 198.56 237.45 198.56 238.08 197.92 238.08 197.13 238.08 196.35 237.45 195.71 236.66 195.71 235.88 195.71 235.24 196.35 235.24 197.13"/>
<path transform="matrix(1,0,0,-1,0,576)" d="M315.35 56.39C315.35 57.17 315.99 57.81 316.77 57.81 317.55 57.81 318.19 57.17 318.19 56.39 318.19 55.61 317.55 54.97 316.77 54.97 315.99 54.97 315.35 55.61 315.35 56.39"/>
<path transform="matrix(1,0,0,-1,0,576)" stroke-width=".71" stroke-linecap="round" stroke-linejoin="round" fill="none" stroke="#000000" d="M315.35 56.39C315.35 57.17 315.99 57.81 316.77 57.81 317.55 57.81 318.19 57.17 318.19 56.39 318.19 55.61 317.55 54.97 316.77 54.97 315.99 54.97 315.35 55.61 315.35 56.39"/>
<path transform="matrix(1,0,0,-1,0,576)" d="M318.94 56.39C318.94 57.17 319.58 57.81 320.36 57.81 321.14 57.81 321.78 57.17 321.78 56.39 321.78 55.61 321.14 54.97 320.36 54.97 319.58 54.97 318.94 55.61 318.94 56.39"/>
<path transform="matrix(1,0,0,-1,0,576)" stroke-width=".71" stroke-linecap="round" stroke-linejoin="round" fill="none" stroke="#000000" d="M318.94 56.39C318.94 57.17 319.58 57.81 320.36 57.81 321.14 57.81 321.78 57.17 321.78 56.39 321.78 55.61 321.14 54.97 320.36 54.97 319.58 54.97 318.94 55.61 318.94 56.39"/>
<path transform="matrix(1,0,0,-1,0,576)" d="M405.1 56.39C405.1 57.17 405.74 57.81 406.52 57.81 407.3 57.81 407.94 57.17 407.94 56.39 407.94 55.61 407.3 54.97 406.52 54.97 405.74 54.97 405.1 55.61 405.1 56.39"/>
<path transform="matrix(1,0,0,-1,0,576)" stroke-width=".71" stroke-linecap="round" stroke-linejoin="round" fill="none" stroke="#000000" d="M405.1 56.39C405.1 57.17 405.74 57.81 406.52 57.81 407.3 57.81 407.94 57.17 407.94 56.39 407.94 55.61 407.3 54.97 406.52 54.97 405.74 54.97 405.1 55.61 405.1 56.39"/>
<path transform="matrix(1,0,0,-1,0,576)" d="M311.88 56.39C311.88 57.17 312.52 57.81 313.3 57.81 314.08 57.81 314.72 57.17 314.72 56.39 314.72 55.61 314.08 54.97 313.3 54.97 312.52 54.97 311.88 55.61 311.88 56.39"/>
<path transform="matrix(1,0,0,-1,0,576)" stroke-width=".71" stroke-linecap="round" stroke-linejoin="round" fill="none" stroke="#000000" d="M311.88 56.39C311.88 57.17 312.52 57.81 313.3 57.81 314.08 57.81 314.72 57.17 314.72 56.39 314.72 55.61 314.08 54.97 313.3 54.97 312.52 54.97 311.88 55.61 311.88 56.39"/>
<path transform="matrix(1,0,0,-1,0,576)" d="M383.49 56.39C383.49 57.17 384.13 57.81 384.91 57.81 385.69 57.81 386.33 57.17 386.33 56.39 386.33 55.61 385.69 54.97 384.91 54.97 384.13 54.97 383.49 55.61 383.49 56.39"/>
<path transform="matrix(1,0,0,-1,0,576)" stroke-width=".71" stroke-linecap="round" stroke-linejoin="round" fill="none" stroke="#000000" d="M383.49 56.39C383.49 57.17 384.13 57.81 384.91 57.81 385.69 57.81 386.33 57.17 386.33 56.39 386.33 55.61 385.69 54.97 384.91 54.97 384.13 54.97 383.49 55.61 383.49 56.39"/>
<path transform="matrix(1,0,0,-1,0,576)" d="M356.08 56.39C356.08 57.17 356.72 57.81 357.51 57.81 358.29 57.81 358.93 57.17 358.93 56.39 358.93 55.61 358.29 54.97 357.51 54.97 356.72 54.97 356.08 55.61 356.08 56.39"/>
<path transform="matrix(1,0,0,-1,0,576)" stroke-width=".71" stroke-linecap="round" stroke-linejoin="round" fill="none" stroke="#000000" d="M356.08 56.39C356.08 57.17 356.72 57.81 357.51 57.81 358.29 57.81 358.93 57.17 358.93 56.39 358.93 55.61 358.29 54.97 357.51 54.97 356.72 54.97 356.08 55.61 356.08 56.39"/>
<path transform="matrix(1,0,0,-1,0,576)" d="M318.27 56.39C318.27 57.17 318.9 57.81 319.69 57.81 320.47 57.81 321.11 57.17 321.11 56.39 321.11 55.61 320.47 54.97 319.69 54.97 318.9 54.97 318.27 55.61 318.27 56.39"/>
<path transform="matrix(1,0,0,-1,0,576)" stroke-width=".71" stroke-linecap="round" stroke-linejoin="round" fill="none" stroke="#000000" d="M318.27 56.39C318.27 57.17 318.9 57.81 319.69 57.81 320.47 57.81 321.11 57.17 321.11 56.39 321.11 55.61 320.47 54.97 319.69 54.97 318.9 54.97 318.27 55.61 318.27 56.39"/>
<path transform="matrix(1,0,0,-1,0,576)" d="M329.84 56.39C329.84 57.17 330.48 57.81 331.27 57.81 332.05 57.81 332.69 57.17 332.69 56.39 332.69 55.61 332.05 54.97 331.27 54.97 330.48 54.97 329.84 55.61 329.84 56.39"/>
<path transform="matrix(1,0,0,-1,0,576)" stroke-width=".71" stroke-linecap="round" stroke-linejoin="round" fill="none" stroke="#000000" d="M329.84 56.39C329.84 57.17 330.48 57.81 331.27 57.81 332.05 57.81 332.69 57.17 332.69 56.39 332.69 55.61 332.05 54.97 331.27 54.97 330.48 54.97 329.84 55.61 329.84 56.39"/>
<path transform="matrix(1,0,0,-1,0,576)" d="M304.43 56.39C304.43 57.17 305.07 57.81 305.85 57.81 306.63 57.81 307.27 57.17 307.27 56.39 307.27 55.61 306.63 54.97 305.85 54.97 305.07 54.97 304.43 55.61 304.43 56.39"/>
<path transform="matrix(1,0,0,-1,0,576)" stroke-width=".71" stroke-linecap="round" stroke-linejoin="round" fill="none" stroke="#000000" d="M304.43 56.39C304.43 57.17 305.07 57.81 305.85 57.81 306.63 57.81 307.27 57.17 307.27 56.39 307.27 55.61 306.63 54.97 305.85 54.97 305.07 54.97 304.43 55.61 304.43 56.39"/>
<path transform="matrix(1,0,0,-1,0,576)" d="M460.88 78.55C460.88 79.33 461.52 79.97 462.3 79.97 463.08 79.97 463.72 79.33 463.72 78.55 463.72 77.76 463.08 77.13 462.3 77.13 461.52 77.13 460.88 77.76 460.88 78.55" fill="#ff0000"/>
<path transform="matrix(1,0,0,-1,0,576)" stroke-width=".71" stroke-linecap="round" stroke-linejoin="round" fill="none" stroke="#ff0000" d="M460.88 78.55C460.88 79.33 461.52 79.97 462.3 79.97 463.08 79.97 463.72 79.33 463.72 78.55 463.72 77.76 463.08 77.13 462.3 77.13 461.52 77.13 460.88 77.76 460.88 78.55"/>
<path transform="matrix(1,0,0,-1,0,576)" d="M96.56 306.22C96.56 307 97.2 307.64 97.98 307.64 98.76 307.64 99.4 307 99.4 306.22 99.4 305.44 98.76 304.8 97.98 304.8 97.2 304.8 96.56 305.44 96.56 306.22" fill="#ff0000"/>
<path transform="matrix(1,0,0,-1,0,576)" stroke-width=".71" stroke-linecap="round" stroke-linejoin="round" fill="none" stroke="#ff0000" d="M96.56 306.22C96.56 307 97.2 307.64 97.98 307.64 98.76 307.64 99.4 307 99.4 306.22 99.4 305.44 98.76 304.8 97.98 304.8 97.2 304.8 96.56 305.44 96.56 306.22"/>
<path transform="matrix(1,0,0,-1,0,576)" d="M364.48 56.39C364.48 57.17 365.12 57.81 365.9 57.81 366.68 57.81 367.32 57.17 367.32 56.39 367.32 55.61 366.68 54.97 365.9 54.97 365.12 54.97 364.48 55.61 364.48 56.39"/>
<path transform="matrix(1,0,0,-1,0,576)" stroke-width=".71" stroke-linecap="round" stroke-linejoin="round" fill="none" stroke="#000000" d="M364.48 56.39C364.48 57.17 365.12 57.81 365.9 57.81 366.68 57.81 367.32 57.17 367.32 56.39 367.32 55.61 366.68 54.97 365.9 54.97 365.12 54.97 364.48 55.61 364.48 56.39"/>
<path transform="matrix(1,0,0,-1,0,576)" d="M389.85 56.39C389.85 57.17 390.49 57.81 391.27 57.81 392.06 57.81 392.69 57.17 392.69 56.39 392.69 55.61 392.06 54.97 391.27 54.97 390.49 54.97 389.85 55.61 389.85 56.39"/>
<path transform="matrix(1,0,0,-1,0,576)" stroke-width=".71" stroke-linecap="round" stroke-linejoin="round" fill="none" stroke="#000000" d="M389.85 56.39C389.85 57.17 390.49 57.81 391.27 57.81 392.06 57.81 392.69 57.17 392.69 56.39 392.69 55.61 392.06 54.97 391.27 54.97 390.49 54.97 389.85 55.61 389.85 56.39"/>
<path transform="matrix(1,0,0,-1,0,576)" d="M331.24 56.39C331.24 57.17 331.88 57.81 332.66 57.81 333.44 57.81 334.08 57.17 334.08 56.39 334.08 55.61 333.44 54.97 332.66 54.97 331.88 54.97 331.24 55.61 331.24 56.39"/>
<path transform="matrix(1,0,0,-1,0,576)" stroke-width=".71" stroke-linecap="round" stroke-linejoin="round" fill="none" stroke="#000000" d="M331.24 56.39C331.24 57.17 331.88 57.81 332.66 57.81 333.44 57.81 334.08 57.17 334.08 56.39 334.08 55.61 333.44 54.97 332.66 54.97 331.88 54.97 331.24 55.61 331.24 56.39"/>
<path transform="matrix(1,0,0,-1,0,576)" d="M342.82 56.39C342.82 57.17 343.46 57.81 344.24 57.81 345.02 57.81 345.66 57.17 345.66 56.39 345.66 55.61 345.02 54.97 344.24 54.97 343.46 54.97 342.82 55.61 342.82 56.39"/>
<path transform="matrix(1,0,0,-1,0,576)" stroke-width=".71" stroke-linecap="round" stroke-linejoin="round" fill="none" stroke="#000000" d="M342.82 56.39C342.82 57.17 343.46 57.81 344.24 57.81 345.02 57.81 345.66 57.17 345.66 56.39 345.66 55.61 345.02 54.97 344.24 54.97 343.46 54.97 342.82 55.61 342.82 56.39"/>
<path transform="matrix(1,0,0,-1,0,576)" d="M341.6 56.39C341.6 57.17 342.24 57.81 343.02 57.81 343.8 57.81 344.44 57.17 344.44 56.39 344.44 55.61 343.8 54.97 343.02 54.97 342.24 54.97 341.6 55.61 341.6 56.39"/>
<path transform="matrix(1,0,0,-1,0,576)" stroke-width=".71" stroke-linecap="round" stroke-linejoin="round" fill="none" stroke="#000000" d="M341.6 56.39C341.6 57.17 342.24 57.81 343.02 57.81 343.8 57.81 344.44 57.17 344.44 56.39 344.44 55.61 343.8 54.97 343.02 54.97 342.24 54.97 341.6 55.61 341.6 56.39"/>
<path transform="matrix(1,0,0,-1,0,576)" d="M390.16 56.39C390.16 57.17 390.8 57.81 391.58 57.81 392.36 57.81 393 57.17 393 56.39 393 55.61 392.36 54.97 391.58 54.97 390.8 54.97 390.16 55.61 390.16 56.39"/>
<path transform="matrix(1,0,0,-1,0,576)" stroke-width=".71" stroke-linecap="round" stroke-linejoin="round" fill="none" stroke="#000000" d="M390.16 56.39C390.16 57.17 390.8 57.81 391.58 57.81 392.36 57.81 393 57.17 393 56.39 393 55.61 392.36 54.97 391.58 54.97 390.8 54.97 390.16 55.61 390.16 56.39"/>
<path transform="matrix(1,0,0,-1,0,576)" d="M228.94 546.04C228.94 546.82 229.57 547.46 230.36 547.46 231.14 547.46 231.78 546.82 231.78 546.04 231.78 545.26 231.14 544.62 230.36 544.62 229.57 544.62 228.94 545.26 228.94 546.04" fill="#ff0000"/>
<path transform="matrix(1,0,0,-1,0,576)" stroke-width=".71" stroke-linecap="round" stroke-linejoin="round" fill="none" stroke="#ff0000" d="M228.94 546.04C228.94 546.82 229.57 547.46 230.36 547.46 231.14 547.46 231.78 546.82 231.78 546.04 231.78 545.26 231.14 544.62 230.36 544.62 229.57 544.62 228.94 545.26 228.94 546.04"/>
<path transform="matrix(1,0,0,-1,0,576)" d="M327.09 56.39C327.09 57.17 327.73 57.81 328.51 57.81 329.3 57.81 329.93 57.17 329.93 56.39 329.93 55.61 329.3 54.97 328.51 54.97 327.73 54.97 327.09 55.61 327.09 56.39"/>
<path transform="matrix(1,0,0,-1,0,576)" stroke-width=".71" stroke-linecap="round" stroke-linejoin="round" fill="none" stroke="#000000" d="M327.09 56.39C327.09 57.17 327.73 57.81 328.51 57.81 329.3 57.81 329.93 57.17 329.93 56.39 329.93 55.61 329.3 54.97 328.51 54.97 327.73 54.97 327.09 55.61 327.09 56.39"/>
<path transform="matrix(1,0,0,-1,0,576)" d="M335.16 56.39C335.16 57.17 335.8 57.81 336.58 57.81 337.36 57.81 338 57.17 338 56.39 338 55.61 337.36 54.97 336.58 54.97 335.8 54.97 335.16 55.61 335.16 56.39"/>
<path transform="matrix(1,0,0,-1,0,576)" stroke-width=".71" stroke-linecap="round" stroke-linejoin="round" fill="none" stroke="#000000" d="M335.16 56.39C335.16 57.17 335.8 57.81 336.58 57.81 337.36 57.81 338 57.17 338 56.39 338 55.61 337.36 54.97 336.58 54.97 335.8 54.97 335.16 55.61 335.16 56.39"/>
<path transform="matrix(1,0,0,-1,0,576)" d="M442.29 56.39C442.29 57.17 442.93 57.81 443.71 57.81 444.49 57.81 445.13 57.17 445.13 56.39 445.13 55.61 444.49 54.97 443.71 54.97 442.93 54.97 442.29 55.61 442.29 56.39"/>
<path transform="matrix(1,0,0,-1,0,576)" stroke-width=".71" stroke-linecap="round" stroke-linejoin="round" fill="none" stroke="#000000" d="M442.29 56.39C442.29 57.17 442.93 57.81 443.71 57.81 444.49 57.81 445.13 57.17 445.13 56.39 445.13 55.61 444.49 54.97 443.71 54.97 442.93 54.97 442.29 55.61 442.29 56.39"/>
<path transform="matrix(1,0,0,-1,0,576)" d="M178.16 163.86C178.16 164.64 178.8 165.28 179.58 165.28 180.36 165.28 181 164.64 181 163.86 181 163.08 180.36 162.44 179.58 162.44 178.8 162.44 178.16 163.08 178.16 163.86" fill="#ff0000"/>
<path transform="matrix(1,0,0,-1,0,576)" stroke-width=".71" stroke-linecap="round" stroke-linejoin="round" fill="none" stroke="#ff0000" d="M178.16 163.86C178.16 164.64 178.8 165.28 179.58 165.28 180.36 165.28 181 164.64 181 163.86 181 163.08 180.36 162.44 179.58 162.44 178.8 162.44 178.16 163.08 178.16 163.86"/>
<path transform="matrix(1,0,0,-1,0,576)" d="M341.43 56.39C341.43 57.17 342.07 57.81 342.86 57.81 343.64 57.81 344.28 57.17 344.28 56.39 344.28 55.61 343.64 54.97 342.86 54.97 342.07 54.97 341.43 55.61 341.43 56.39"/>
<path transform="matrix(1,0,0,-1,0,576)" stroke-width=".71" stroke-linecap="round" stroke-linejoin="round" fill="none" stroke="#000000" d="M341.43 56.39C341.43 57.17 342.07 57.81 342.86 57.81 343.64 57.81 344.28 57.17 344.28 56.39 344.28 55.61 343.64 54.97 342.86 54.97 342.07 54.97 341.43 55.61 341.43 56.39"/>
<path transform="matrix(1,0,0,-1,0,576)" d="M337.22 56.39C337.22 57.17 337.86 57.81 338.64 57.81 339.42 57.81 340.06 57.17 340.06 56.39 340.06 55.61 339.42 54.97 338.64 54.97 337.86 54.97 337.22 55.61 337.22 56.39"/>
<path transform="matrix(1,0,0,-1,0,576)" stroke-width=".71" stroke-linecap="round" stroke-linejoin="round" fill="none" stroke="#000000" d="M337.22 56.39C337.22 57.17 337.86 57.81 338.64 57.81 339.42 57.81 340.06 57.17 340.06 56.39 340.06 55.61 339.42 54.97 338.64 54.97 337.86 54.97 337.22 55.61 337.22 56.39"/>
<path transform="matrix(1,0,0,-1,0,576)" d="M334.03 56.39C334.03 57.17 334.67 57.81 335.45 57.81 336.23 57.81 336.87 57.17 336.87 56.39 336.87 55.61 336.23 54.97 335.45 54.97 334.67 54.97 334.03 55.61 334.03 56.39"/>
<path transform="matrix(1,0,0,-1,0,576)" stroke-width=".71" stroke-linecap="round" stroke-linejoin="round" fill="none" stroke="#000000" d="M334.03 56.39C334.03 57.17 334.67 57.81 335.45 57.81 336.23 57.81 336.87 57.17 336.87 56.39 336.87 55.61 336.23 54.97 335.45 54.97 334.67 54.97 334.03 55.61 334.03 56.39"/>
<path transform="matrix(1,0,0,-1,0,576)" d="M338.54 56.39C338.54 57.17 339.18 57.81 339.96 57.81 340.74 57.81 341.38 57.17 341.38 56.39 341.38 55.61 340.74 54.97 339.96 54.97 339.18 54.97 338.54 55.61 338.54 56.39"/>
<path transform="matrix(1,0,0,-1,0,576)" stroke-width=".71" stroke-linecap="round" stroke-linejoin="round" fill="none" stroke="#000000" d="M338.54 56.39C338.54 57.17 339.18 57.81 339.96 57.81 340.74 57.81 341.38 57.17 341.38 56.39 341.38 55.61 340.74 54.97 339.96 54.97 339.18 54.97 338.54 55.61 338.54 56.39"/>
<path transform="matrix(1,0,0,-1,0,576)" d="M386.62 56.39C386.62 57.17 387.26 57.81 388.04 57.81 388.82 57.81 389.46 57.17 389.46 56.39 389.46 55.61 388.82 54.97 388.04 54.97 387.26 54.97 386.62 55.61 386.62 56.39"/>
<path transform="matrix(1,0,0,-1,0,576)" stroke-width=".71" stroke-linecap="round" stroke-linejoin="round" fill="none" stroke="#000000" d="M386.62 56.39C386.62 57.17 387.26 57.81 388.04 57.81 388.82 57.81 389.46 57.17 389.46 56.39 389.46 55.61 388.82 54.97 388.04 54.97 387.26 54.97 386.62 55.61 386.62 56.39"/>
<path transform="matrix(1,0,0,-1,0,576)" d="M249.42 190.71C249.42 191.49 250.06 192.13 250.84 192.13 251.62 192.13 252.26 191.49 252.26 190.71 252.26 189.93 251.62 189.29 250.84 189.29 250.06 189.29 249.42 189.93 249.42 190.71" fill="#ff0000"/>
<path transform="matrix(1,0,0,-1,0,576)" stroke-width=".71" stroke-linecap="round" stroke-linejoin="round" fill="none" stroke="#ff0000" d="M249.42 190.71C249.42 191.49 250.06 192.13 250.84 192.13 251.62 192.13 252.26 191.49 252.26 190.71 252.26 189.93 251.62 189.29 250.84 189.29 250.06 189.29 249.42 189.93 249.42 190.71"/>
<path transform="matrix(1,0,0,-1,0,576)" d="M396.74 56.39C396.74 57.17 397.38 57.81 398.16 57.81 398.95 57.81 399.58 57.17 399.58 56.39 399.58 55.61 398.95 54.97 398.16 54.97 397.38 54.97 396.74 55.61 396.74 56.39"/>
<path transform="matrix(1,0,0,-1,0,576)" stroke-width=".71" stroke-linecap="round" stroke-linejoin="round" fill="none" stroke="#000000" d="M396.74 56.39C396.74 57.17 397.38 57.81 398.16 57.81 398.95 57.81 399.58 57.17 399.58 56.39 399.58 55.61 398.95 54.97 398.16 54.97 397.38 54.97 396.74 55.61 396.74 56.39"/>
<path transform="matrix(1,0,0,-1,0,576)" d="M275.43 56.39C275.43 57.17 276.07 57.81 276.85 57.81 277.63 57.81 278.27 57.17 278.27 56.39 278.27 55.61 277.63 54.97 276.85 54.97 276.07 54.97 275.43 55.61 275.43 56.39"/>
<path transform="matrix(1,0,0,-1,0,576)" stroke-width=".71" stroke-linecap="round" stroke-linejoin="round" fill="none" stroke="#000000" d="M275.43 56.39C275.43 57.17 276.07 57.81 276.85 57.81 277.63 57.81 278.27 57.17 278.27 56.39 278.27 55.61 277.63 54.97 276.85 54.97 276.07 54.97 275.43 55.61 275.43 56.39"/>
<path transform="matrix(1,0,0,-1,0,576)" d="M330.78 56.39C330.78 57.17 331.42 57.81 332.2 57.81 332.98 57.81 333.62 57.17 333.62 56.39 333.62 55.61 332.98 54.97 332.2 54.97 331.42 54.97 330.78 55.61 330.78 56.39"/>
<path transform="matrix(1,0,0,-1,0,576)" stroke-width=".71" stroke-linecap="round" stroke-linejoin="round" fill="none" stroke="#000000" d="M330.78 56.39C330.78 57.17 331.42 57.81 332.2 57.81 332.98 57.81 333.62 57.17 333.62 56.39 333.62 55.61 332.98 54.97 332.2 54.97 331.42 54.97 330.78 55.61 330.78 56.39"/>
<path transform="matrix(1,0,0,-1,0,576)" d="M329.27 56.39C329.27 57.17 329.91 57.81 330.69 57.81 331.47 57.81 332.11 57.17 332.11 56.39 332.11 55.61 331.47 54.97 330.69 54.97 329.91 54.97 329.27 55.61 329.27 56.39"/>
<path transform="matrix(1,0,0,-1,0,576)" stroke-width=".71" stroke-linecap="round" stroke-linejoin="round" fill="none" stroke="#000000" d="M329.27 56.39C329.27 57.17 329.91 57.81 330.69 57.81 331.47 57.81 332.11 57.17 332.11 56.39 332.11 55.61 331.47 54.97 330.69 54.97 329.91 54.97 329.27 55.61 329.27 56.39"/>
<path transform="matrix(1,0,0,-1,0,576)" d="M410.83 56.39C410.83 57.17 411.47 57.81 412.25 57.81 413.03 57.81 413.67 57.17 413.67 56.39 413.67 55.61 413.03 54.97 412.25 54.97 411.47 54.97 410.83 55.61 410.83 56.39"/>
<path transform="matrix(1,0,0,-1,0,576)" stroke-width=".71" stroke-linecap="round" stroke-linejoin="round" fill="none" stroke="#000000" d="M410.83 56.39C410.83 57.17 411.47 57.81 412.25 57.81 413.03 57.81 413.67 57.17 413.67 56.39 413.67 55.61 413.03 54.97 412.25 54.97 411.47 54.97 410.83 55.61 410.83 56.39"/>
<path transform="matrix(1,0,0,-1,0,576)" d="M332.06 56.39C332.06 57.17 332.7 57.81 333.48 57.81 334.26 57.81 334.9 57.17 334.9 56.39 334.9 55.61 334.26 54.97 333.48 54.97 332.7 54.97 332.06 55.61 332.06 56.39"/>
<path transform="matrix(1,0,0,-1,0,576)" stroke-width=".71" stroke-linecap="round" stroke-linejoin="round" fill="none" stroke="#000000" d="M332.06 56.39C332.06 57.17 332.7 57.81 333.48 57.81 334.26 57.81 334.9 57.17 334.9 56.39 334.9 55.61 334.26 54.97 333.48 54.97 332.7 54.97 332.06 55.61 332.06 56.39"/>
<path transform="matrix(1,0,0,-1,0,576)" d="M101.98 179.89C101.98 180.67 102.62 181.31 103.41 181.31 104.19 181.31 104.83 180.67 104.83 179.89 104.83 179.1 104.19 178.46 103.41 178.46 102.62 178.46 101.98 179.1 101.98 179.89" fill="#ff0000"/>
<path transform="matrix(1,0,0,-1,0,576)" stroke-width=".71" stroke-linecap="round" stroke-linejoin="round" fill="none" stroke="#ff0000" d="M101.98 179.89C101.98 180.67 102.62 181.31 103.41 181.31 104.19 181.31 104.83 180.67 104.83 179.89 104.83 179.1 104.19 178.46 103.41 178.46 102.62 178.46 101.98 179.1 101.98 179.89"/>
<path transform="matrix(1,0,0,-1,0,576)" d="M463.11 65.96C463.11 66.75 463.75 67.38 464.53 67.38 465.32 67.38 465.95 66.75 465.95 65.96 465.95 65.18 465.32 64.54 464.53 64.54 463.75 64.54 463.11 65.18 463.11 65.96" fill="#ff0000"/>
<path transform="matrix(1,0,0,-1,0,576)" stroke-width=".71" stroke-linecap="round" stroke-linejoin="round" fill="none" stroke="#ff0000" d="M463.11 65.96C463.11 66.75 463.75 67.38 464.53 67.38 465.32 67.38 465.95 66.75 465.95 65.96 465.95 65.18 465.32 64.54 464.53 64.54 463.75 64.54 463.11 65.18 463.11 65.96"/>
<path transform="matrix(1,0,0,-1,0,576)" d="M383.34 56.39C383.34 57.17 383.98 57.81 384.76 57.81 385.54 57.81 386.18 57.17 386.18 56.39 386.18 55.61 385.54 54.97 384.76 54.97 383.98 54.97 383.34 55.61 383.34 56.39"/>
<path transform="matrix(1,0,0,-1,0,576)" stroke-width=".71" stroke-linecap="round" stroke-linejoin="round" fill="none" stroke="#000000" d="M383.34 56.39C383.34 57.17 383.98 57.81 384.76 57.81 385.54 57.81 386.18 57.17 386.18 56.39 386.18 55.61 385.54 54.97 384.76 54.97 383.98 54.97 383.34 55.61 383.34 56.39"/>
<path transform="matrix(1,0,0,-1,0,576)" d="M351.02 56.39C351.02 57.17 351.66 57.81 352.44 57.81 353.22 57.81 353.86 57.17 353.86 56.39 353.86 55.61 353.22 54.97 352.44 54.97 351.66 54.97 351.02 55.61 351.02 56.39"/>
<path transform="matrix(1,0,0,-1,0,576)" stroke-width=".71" stroke-linecap="round" stroke-linejoin="round" fill="none" stroke="#000000" d="M351.02 56.39C351.02 57.17 351.66 57.81 352.44 57.81 353.22 57.81 353.86 57.17 353.86 56.39 353.86 55.61 353.22 54.97 352.44 54.97 351.66 54.97 351.02 55.61 351.02 56.39"/>
<path transform="matrix(1,0,0,-1,0,576)" d="M340.21 56.39C340.21 57.17 340.85 57.81 341.63 57.81 342.42 57.81 343.05 57.17 343.05 56.39 343.05 55.61 342.42 54.97 341.63 54.97 340.85 54.97 340.21 55.61 340.21 56.39"/>
<path transform="matrix(1,0,0,-1,0,576)" stroke-width=".71" stroke-linecap="round" stroke-linejoin="round" fill="none" stroke="#000000" d="M340.21 56.39C340.21 57.17 340.85 57.81 341.63 57.81 342.42 57.81 343.05 57.17 343.05 56.39 343.05 55.61 342.42 54.97 341.63 54.97 340.85 54.97 340.21 55.61 340.21 56.39"/>
<path transform="matrix(1,0,0,-1,0,576)" d="M382.09 56.39C382.09 57.17 382.73 57.81 383.51 57.81 384.3 57.81 384.94 57.17 384.94 56.39 384.94 55.61 384.3 54.97 383.51 54.97 382.73 54.97 382.09 55.61 382.09 56.39"/>
<path transform="matrix(1,0,0,-1,0,576)" stroke-width=".71" stroke-linecap="round" stroke-linejoin="round" fill="none" stroke="#000000" d="M382.09 56.39C382.09 57.17 382.73 57.81 383.51 57.81 384.3 57.81 384.94 57.17 384.94 56.39 384.94 55.61 384.3 54.97 383.51 54.97 382.73 54.97 382.09 55.61 382.09 56.39"/>
<path transform="matrix(1,0,0,-1,0,576)" d="M405.53 56.39C405.53 57.17 406.17 57.81 406.95 57.81 407.73 57.81 408.37 57.17 408.37 56.39 408.37 55.61 407.73 54.97 406.95 54.97 406.17 54.97 405.53 55.61 405.53 56.39"/>
<path transform="matrix(1,0,0,-1,0,576)" stroke-width=".71" stroke-linecap="round" stroke-linejoin="round" fill="none" stroke="#000000" d="M405.53 56.39C405.53 57.17 406.17 57.81 406.95 57.81 407.73 57.81 408.37 57.17 408.37 56.39 408.37 55.61 407.73 54.97 406.95 54.97 406.17 54.97 405.53 55.61 405.53 56.39"/>
<path transform="matrix(1,0,0,-1,0,576)" d="M330.28 56.39C330.28 57.17 330.92 57.81 331.71 57.81 332.49 57.81 333.13 57.17 333.13 56.39 333.13 55.61 332.49 54.97 331.71 54.97 330.92 54.97 330.28 55.61 330.28 56.39"/>
<path transform="matrix(1,0,0,-1,0,576)" stroke-width=".71" stroke-linecap="round" stroke-linejoin="round" fill="none" stroke="#000000" d="M330.28 56.39C330.28 57.17 330.92 57.81 331.71 57.81 332.49 57.81 333.13 57.17 333.13 56.39 333.13 55.61 332.49 54.97 331.71 54.97 330.92 54.97 330.28 55.61 330.28 56.39"/>
<path transform="matrix(1,0,0,-1,0,576)" d="M344.6 180.31C344.6 181.09 345.24 181.73 346.03 181.73 346.81 181.73 347.45 181.09 347.45 180.31 347.45 179.53 346.81 178.89 346.03 178.89 345.24 178.89 344.6 179.53 344.6 180.31"/>
<path transform="matrix(1,0,0,-1,0,576)" stroke-width=".71" stroke-linecap="round" stroke-linejoin="round" fill="none" stroke="#000000" d="M344.6 180.31C344.6 181.09 345.24 181.73 346.03 181.73 346.81 181.73 347.45 181.09 347.45 180.31 347.45 179.53 346.81 178.89 346.03 178.89 345.24 178.89 344.6 179.53 344.6 180.31"/>
<path transform="matrix(1,0,0,-1,0,576)" d="M77.57 327.2C77.57 327.98 78.21 328.62 78.99 328.62 79.78 328.62 80.41 327.98 80.41 327.2 80.41 326.42 79.78 325.78 78.99 325.78 78.21 325.78 77.57 326.42 77.57 327.2" fill="#ff0000"/>
<path transform="matrix(1,0,0,-1,0,576)" stroke-width=".71" stroke-linecap="round" stroke-linejoin="round" fill="none" stroke="#ff0000" d="M77.57 327.2C77.57 327.98 78.21 328.62 78.99 328.62 79.78 328.62 80.41 327.98 80.41 327.2 80.41 326.42 79.78 325.78 78.99 325.78 78.21 325.78 77.57 326.42 77.57 327.2"/>
<path transform="matrix(1,0,0,-1,0,576)" d="M446.42 161.95C446.42 162.73 447.05 163.37 447.84 163.37 448.62 163.37 449.26 162.73 449.26 161.95 449.26 161.17 448.62 160.53 447.84 160.53 447.05 160.53 446.42 161.17 446.42 161.95" fill="#ff0000"/>
<path transform="matrix(1,0,0,-1,0,576)" stroke-width=".71" stroke-linecap="round" stroke-linejoin="round" fill="none" stroke="#ff0000" d="M446.42 161.95C446.42 162.73 447.05 163.37 447.84 163.37 448.62 163.37 449.26 162.73 449.26 161.95 449.26 161.17 448.62 160.53 447.84 160.53 447.05 160.53 446.42 161.17 446.42 161.95"/>
<path transform="matrix(1,0,0,-1,0,576)" d="M273.16 56.39C273.16 57.17 273.8 57.81 274.58 57.81 275.36 57.81 276 57.17 276 56.39 276 55.61 275.36 54.97 274.58 54.97 273.8 54.97 273.16 55.61 273.16 56.39"/>
<path transform="matrix(1,0,0,-1,0,576)" stroke-width=".71" stroke-linecap="round" stroke-linejoin="round" fill="none" stroke="#000000" d="M273.16 56.39C273.16 57.17 273.8 57.81 274.58 57.81 275.36 57.81 276 57.17 276 56.39 276 55.61 275.36 54.97 274.58 54.97 273.8 54.97 273.16 55.61 273.16 56.39"/>
<path transform="matrix(1,0,0,-1,0,576)" d="M286.74 56.39C286.74 57.17 287.38 57.81 288.16 57.81 288.95 57.81 289.58 57.17 289.58 56.39 289.58 55.61 288.95 54.97 288.16 54.97 287.38 54.97 286.74 55.61 286.74 56.39"/>
<path transform="matrix(1,0,0,-1,0,576)" stroke-width=".71" stroke-linecap="round" stroke-linejoin="round" fill="none" stroke="#000000" d="M286.74 56.39C286.74 57.17 287.38 57.81 288.16 57.81 288.95 57.81 289.58 57.17 289.58 56.39 289.58 55.61 288.95 54.97 288.16 54.97 287.38 54.97 286.74 55.61 286.74 56.39"/>
<path transform="matrix(1,0,0,-1,0,576)" d="M302.23 56.39C302.23 57.17 302.87 57.81 303.65 57.81 304.43 57.81 305.07 57.17 305.07 56.39 305.07 55.61 304.43 54.97 303.65 54.97 302.87 54.97 302.23 55.61 302.23 56.39"/>
<path transform="matrix(1,0,0,-1,0,576)" stroke-width=".71" stroke-linecap="round" stroke-linejoin="round" fill="none" stroke="#000000" d="M302.23 56.39C302.23 57.17 302.87 57.81 303.65 57.81 304.43 57.81 305.07 57.17 305.07 56.39 305.07 55.61 304.43 54.97 303.65 54.97 302.87 54.97 302.23 55.61 302.23 56.39"/>
<path transform="matrix(1,0,0,-1,0,576)" d="M510.88 56.39C510.88 57.17 511.52 57.81 512.3 57.81 513.08 57.81 513.72 57.17 513.72 56.39 513.72 55.61 513.08 54.97 512.3 54.97 511.52 54.97 510.88 55.61 510.88 56.39"/>
<path transform="matrix(1,0,0,-1,0,576)" stroke-width=".71" stroke-linecap="round" stroke-linejoin="round" fill="none" stroke="#000000" d="M510.88 56.39C510.88 57.17 511.52 57.81 512.3 57.81 513.08 57.81 513.72 57.17 513.72 56.39 513.72 55.61 513.08 54.97 512.3 54.97 511.52 54.97 510.88 55.61 510.88 56.39"/>
<path transform="matrix(1,0,0,-1,0,576)" d="M320.53 68.53C320.53 69.31 321.17 69.95 321.95 69.95 322.74 69.95 323.37 69.31 323.37 68.53 323.37 67.75 322.74 67.11 321.95 67.11 321.17 67.11 320.53 67.75 320.53 68.53"/>
<path transform="matrix(1,0,0,-1,0,576)" stroke-width=".71" stroke-linecap="round" stroke-linejoin="round" fill="none" stroke="#000000" d="M320.53 68.53C320.53 69.31 321.17 69.95 321.95 69.95 322.74 69.95 323.37 69.31 323.37 68.53 323.37 67.75 322.74 67.11 321.95 67.11 321.17 67.11 320.53 67.75 320.53 68.53"/>
<path transform="matrix(1,0,0,-1,0,576)" d="M88.19 306.22C88.19 307 88.83 307.64 89.61 307.64 90.4 307.64 91.04 307 91.04 306.22 91.04 305.44 90.4 304.8 89.61 304.8 88.83 304.8 88.19 305.44 88.19 306.22" fill="#ff0000"/>
<path transform="matrix(1,0,0,-1,0,576)" stroke-width=".71" stroke-linecap="round" stroke-linejoin="round" fill="none" stroke="#ff0000" d="M88.19 306.22C88.19 307 88.83 307.64 89.61 307.64 90.4 307.64 91.04 307 91.04 306.22 91.04 305.44 90.4 304.8 89.61 304.8 88.83 304.8 88.19 305.44 88.19 306.22"/>
<path transform="matrix(1,0,0,-1,0,576)" d="M333.75 56.39C333.75 57.17 334.39 57.81 335.17 57.81 335.95 57.81 336.59 57.17 336.59 56.39 336.59 55.61 335.95 54.97 335.17 54.97 334.39 54.97 333.75 55.61 333.75 56.39"/>
<path transform="matrix(1,0,0,-1,0,576)" stroke-width=".71" stroke-linecap="round" stroke-linejoin="round" fill="none" stroke="#000000" d="M333.75 56.39C333.75 57.17 334.39 57.81 335.17 57.81 335.95 57.81 336.59 57.17 336.59 56.39 336.59 55.61 335.95 54.97 335.17 54.97 334.39 54.97 333.75 55.61 333.75 56.39"/>
<path transform="matrix(1,0,0,-1,0,576)" d="M382.31 126.26C382.31 127.04 382.95 127.68 383.73 127.68 384.52 127.68 385.16 127.04 385.16 126.26 385.16 125.47 384.52 124.83 383.73 124.83 382.95 124.83 382.31 125.47 382.31 126.26" fill="#ff0000"/>
<path transform="matrix(1,0,0,-1,0,576)" stroke-width=".71" stroke-linecap="round" stroke-linejoin="round" fill="none" stroke="#ff0000" d="M382.31 126.26C382.31 127.04 382.95 127.68 383.73 127.68 384.52 127.68 385.16 127.04 385.16 126.26 385.16 125.47 384.52 124.83 383.73 124.83 382.95 124.83 382.31 125.47 382.31 126.26"/>
<path transform="matrix(1,0,0,-1,0,576)" d="M385.3 56.39C385.3 57.17 385.93 57.81 386.72 57.81 387.5 57.81 388.14 57.17 388.14 56.39 388.14 55.61 387.5 54.97 386.72 54.97 385.93 54.97 385.3 55.61 385.3 56.39"/>
<path transform="matrix(1,0,0,-1,0,576)" stroke-width=".71" stroke-linecap="round" stroke-linejoin="round" fill="none" stroke="#000000" d="M385.3 56.39C385.3 57.17 385.93 57.81 386.72 57.81 387.5 57.81 388.14 57.17 388.14 56.39 388.14 55.61 387.5 54.97 386.72 54.97 385.93 54.97 385.3 55.61 385.3 56.39"/>
<path transform="matrix(1,0,0,-1,0,576)" d="M228.12 191.16C228.12 191.94 228.76 192.58 229.54 192.58 230.32 192.58 230.96 191.94 230.96 191.16 230.96 190.38 230.32 189.74 229.54 189.74 228.76 189.74 228.12 190.38 228.12 191.16" fill="#ff0000"/>
<path transform="matrix(1,0,0,-1,0,576)" stroke-width=".71" stroke-linecap="round" stroke-linejoin="round" fill="none" stroke="#ff0000" d="M228.12 191.16C228.12 191.94 228.76 192.58 229.54 192.58 230.32 192.58 230.96 191.94 230.96 191.16 230.96 190.38 230.32 189.74 229.54 189.74 228.76 189.74 228.12 190.38 228.12 191.16"/>
<path transform="matrix(1,0,0,-1,0,576)" d="M342.89 56.39C342.89 57.17 343.53 57.81 344.31 57.81 345.09 57.81 345.73 57.17 345.73 56.39 345.73 55.61 345.09 54.97 344.31 54.97 343.53 54.97 342.89 55.61 342.89 56.39"/>
<path transform="matrix(1,0,0,-1,0,576)" stroke-width=".71" stroke-linecap="round" stroke-linejoin="round" fill="none" stroke="#000000" d="M342.89 56.39C342.89 57.17 343.53 57.81 344.31 57.81 345.09 57.81 345.73 57.17 345.73 56.39 345.73 55.61 345.09 54.97 344.31 54.97 343.53 54.97 342.89 55.61 342.89 56.39"/>
<path transform="matrix(1,0,0,-1,0,576)" d="M361.26 56.39C361.26 57.17 361.9 57.81 362.68 57.81 363.46 57.81 364.1 57.17 364.1 56.39 364.1 55.61 363.46 54.97 362.68 54.97 361.9 54.97 361.26 55.61 361.26 56.39"/>
<path transform="matrix(1,0,0,-1,0,576)" stroke-width=".71" stroke-linecap="round" stroke-linejoin="round" fill="none" stroke="#000000" d="M361.26 56.39C361.26 57.17 361.9 57.81 362.68 57.81 363.46 57.81 364.1 57.17 364.1 56.39 364.1 55.61 363.46 54.97 362.68 54.97 361.9 54.97 361.26 55.61 361.26 56.39"/>
<path transform="matrix(1,0,0,-1,0,576)" d="M318.12 56.39C318.12 57.17 318.76 57.81 319.54 57.81 320.32 57.81 320.96 57.17 320.96 56.39 320.96 55.61 320.32 54.97 319.54 54.97 318.76 54.97 318.12 55.61 318.12 56.39"/>
<path transform="matrix(1,0,0,-1,0,576)" stroke-width=".71" stroke-linecap="round" stroke-linejoin="round" fill="none" stroke="#000000" d="M318.12 56.39C318.12 57.17 318.76 57.81 319.54 57.81 320.32 57.81 320.96 57.17 320.96 56.39 320.96 55.61 320.32 54.97 319.54 54.97 318.76 54.97 318.12 55.61 318.12 56.39"/>
<path transform="matrix(1,0,0,-1,0,576)" d="M53.96 380.42C53.96 381.2 54.6 381.84 55.38 381.84 56.17 381.84 56.81 381.2 56.81 380.42 56.81 379.64 56.17 379 55.38 379 54.6 379 53.96 379.64 53.96 380.42" fill="#ff0000"/>
<path transform="matrix(1,0,0,-1,0,576)" stroke-width=".71" stroke-linecap="round" stroke-linejoin="round" fill="none" stroke="#ff0000" d="M53.96 380.42C53.96 381.2 54.6 381.84 55.38 381.84 56.17 381.84 56.81 381.2 56.81 380.42 56.81 379.64 56.17 379 55.38 379 54.6 379 53.96 379.64 53.96 380.42"/>
<path transform="matrix(1,0,0,-1,0,576)" d="M333.97 56.39C333.97 57.17 334.61 57.81 335.39 57.81 336.17 57.81 336.81 57.17 336.81 56.39 336.81 55.61 336.17 54.97 335.39 54.97 334.61 54.97 333.97 55.61 333.97 56.39"/>
<path transform="matrix(1,0,0,-1,0,576)" stroke-width=".71" stroke-linecap="round" stroke-linejoin="round" fill="none" stroke="#000000" d="M333.97 56.39C333.97 57.17 334.61 57.81 335.39 57.81 336.17 57.81 336.81 57.17 336.81 56.39 336.81 55.61 336.17 54.97 335.39 54.97 334.61 54.97 333.97 55.61 333.97 56.39"/>
<path transform="matrix(1,0,0,-1,0,576)" d="M592.2 83.7C592.2 84.48 592.84 85.12 593.62 85.12 594.4 85.12 595.04 84.48 595.04 83.7 595.04 82.91 594.4 82.27 593.62 82.27 592.84 82.27 592.2 82.91 592.2 83.7" fill="#ff0000"/>
<path transform="matrix(1,0,0,-1,0,576)" stroke-width=".71" stroke-linecap="round" stroke-linejoin="round" fill="none" stroke="#ff0000" d="M592.2 83.7C592.2 84.48 592.84 85.12 593.62 85.12 594.4 85.12 595.04 84.48 595.04 83.7 595.04 82.91 594.4 82.27 593.62 82.27 592.84 82.27 592.2 82.91 592.2 83.7"/>
<path transform="matrix(1,0,0,-1,0,576)" d="M421.25 56.39C421.25 57.17 421.89 57.81 422.68 57.81 423.46 57.81 424.1 57.17 424.1 56.39 424.1 55.61 423.46 54.97 422.68 54.97 421.89 54.97 421.25 55.61 421.25 56.39"/>
<path transform="matrix(1,0,0,-1,0,576)" stroke-width=".71" stroke-linecap="round" stroke-linejoin="round" fill="none" stroke="#000000" d="M421.25 56.39C421.25 57.17 421.89 57.81 422.68 57.81 423.46 57.81 424.1 57.17 424.1 56.39 424.1 55.61 423.46 54.97 422.68 54.97 421.89 54.97 421.25 55.61 421.25 56.39"/>
<path transform="matrix(1,0,0,-1,0,576)" d="M331.18 56.39C331.18 57.17 331.82 57.81 332.6 57.81 333.38 57.81 334.02 57.17 334.02 56.39 334.02 55.61 333.38 54.97 332.6 54.97 331.82 54.97 331.18 55.61 331.18 56.39"/>
<path transform="matrix(1,0,0,-1,0,576)" stroke-width=".71" stroke-linecap="round" stroke-linejoin="round" fill="none" stroke="#000000" d="M331.18 56.39C331.18 57.17 331.82 57.81 332.6 57.81 333.38 57.81 334.02 57.17 334.02 56.39 334.02 55.61 333.38 54.97 332.6 54.97 331.82 54.97 331.18 55.61 331.18 56.39"/>
<path transform="matrix(1,0,0,-1,0,576)" d="M348.27 56.39C348.27 57.17 348.91 57.81 349.69 57.81 350.47 57.81 351.11 57.17 351.11 56.39 351.11 55.61 350.47 54.97 349.69 54.97 348.91 54.97 348.27 55.61 348.27 56.39"/>
<path transform="matrix(1,0,0,-1,0,576)" stroke-width=".71" stroke-linecap="round" stroke-linejoin="round" fill="none" stroke="#000000" d="M348.27 56.39C348.27 57.17 348.91 57.81 349.69 57.81 350.47 57.81 351.11 57.17 351.11 56.39 351.11 55.61 350.47 54.97 349.69 54.97 348.91 54.97 348.27 55.61 348.27 56.39"/>
<path transform="matrix(1,0,0,-1,0,576)" d="M159.6 246.05C159.6 246.83 160.24 247.47 161.03 247.47 161.81 247.47 162.45 246.83 162.45 246.05 162.45 245.27 161.81 244.63 161.03 244.63 160.24 244.63 159.6 245.27 159.6 246.05" fill="#ff0000"/>
<path transform="matrix(1,0,0,-1,0,576)" stroke-width=".71" stroke-linecap="round" stroke-linejoin="round" fill="none" stroke="#ff0000" d="M159.6 246.05C159.6 246.83 160.24 247.47 161.03 247.47 161.81 247.47 162.45 246.83 162.45 246.05 162.45 245.27 161.81 244.63 161.03 244.63 160.24 244.63 159.6 245.27 159.6 246.05"/>
<path transform="matrix(1,0,0,-1,0,576)" d="M380 56.39C380 57.17 380.64 57.81 381.42 57.81 382.2 57.81 382.84 57.17 382.84 56.39 382.84 55.61 382.2 54.97 381.42 54.97 380.64 54.97 380 55.61 380 56.39"/>
<path transform="matrix(1,0,0,-1,0,576)" stroke-width=".71" stroke-linecap="round" stroke-linejoin="round" fill="none" stroke="#000000" d="M380 56.39C380 57.17 380.64 57.81 381.42 57.81 382.2 57.81 382.84 57.17 382.84 56.39 382.84 55.61 382.2 54.97 381.42 54.97 380.64 54.97 380 55.61 380 56.39"/>
<path transform="matrix(1,0,0,-1,0,576)" d="M328.23 56.39C328.23 57.17 328.87 57.81 329.65 57.81 330.43 57.81 331.07 57.17 331.07 56.39 331.07 55.61 330.43 54.97 329.65 54.97 328.87 54.97 328.23 55.61 328.23 56.39"/>
<path transform="matrix(1,0,0,-1,0,576)" stroke-width=".71" stroke-linecap="round" stroke-linejoin="round" fill="none" stroke="#000000" d="M328.23 56.39C328.23 57.17 328.87 57.81 329.65 57.81 330.43 57.81 331.07 57.17 331.07 56.39 331.07 55.61 330.43 54.97 329.65 54.97 328.87 54.97 328.23 55.61 328.23 56.39"/>
<path transform="matrix(1,0,0,-1,0,576)" d="M424.67 56.39C424.67 57.17 425.31 57.81 426.09 57.81 426.87 57.81 427.51 57.17 427.51 56.39 427.51 55.61 426.87 54.97 426.09 54.97 425.31 54.97 424.67 55.61 424.67 56.39"/>
<path transform="matrix(1,0,0,-1,0,576)" stroke-width=".71" stroke-linecap="round" stroke-linejoin="round" fill="none" stroke="#000000" d="M424.67 56.39C424.67 57.17 425.31 57.81 426.09 57.81 426.87 57.81 427.51 57.17 427.51 56.39 427.51 55.61 426.87 54.97 426.09 54.97 425.31 54.97 424.67 55.61 424.67 56.39"/>
<path transform="matrix(1,0,0,-1,0,576)" d="M337.26 56.39C337.26 57.17 337.9 57.81 338.68 57.81 339.47 57.81 340.11 57.17 340.11 56.39 340.11 55.61 339.47 54.97 338.68 54.97 337.9 54.97 337.26 55.61 337.26 56.39"/>
<path transform="matrix(1,0,0,-1,0,576)" stroke-width=".71" stroke-linecap="round" stroke-linejoin="round" fill="none" stroke="#000000" d="M337.26 56.39C337.26 57.17 337.9 57.81 338.68 57.81 339.47 57.81 340.11 57.17 340.11 56.39 340.11 55.61 339.47 54.97 338.68 54.97 337.9 54.97 337.26 55.61 337.26 56.39"/>
<path transform="matrix(1,0,0,-1,0,576)" d="M239.18 197.13C239.18 197.92 239.82 198.56 240.6 198.56 241.39 198.56 242.03 197.92 242.03 197.13 242.03 196.35 241.39 195.71 240.6 195.71 239.82 195.71 239.18 196.35 239.18 197.13" fill="#ff0000"/>
<path transform="matrix(1,0,0,-1,0,576)" stroke-width=".71" stroke-linecap="round" stroke-linejoin="round" fill="none" stroke="#ff0000" d="M239.18 197.13C239.18 197.92 239.82 198.56 240.6 198.56 241.39 198.56 242.03 197.92 242.03 197.13 242.03 196.35 241.39 195.71 240.6 195.71 239.82 195.71 239.18 196.35 239.18 197.13"/>
<path transform="matrix(1,0,0,-1,0,576)" d="M388.34 56.39C388.34 57.17 388.98 57.81 389.77 57.81 390.55 57.81 391.19 57.17 391.19 56.39 391.19 55.61 390.55 54.97 389.77 54.97 388.98 54.97 388.34 55.61 388.34 56.39"/>
<path transform="matrix(1,0,0,-1,0,576)" stroke-width=".71" stroke-linecap="round" stroke-linejoin="round" fill="none" stroke="#000000" d="M388.34 56.39C388.34 57.17 388.98 57.81 389.77 57.81 390.55 57.81 391.19 57.17 391.19 56.39 391.19 55.61 390.55 54.97 389.77 54.97 388.98 54.97 388.34 55.61 388.34 56.39"/>
<path transform="matrix(1,0,0,-1,0,576)" d="M246.3 56.52C246.3 57.3 246.94 57.94 247.73 57.94 248.51 57.94 249.15 57.3 249.15 56.52 249.15 55.73 248.51 55.09 247.73 55.09 246.94 55.09 246.3 55.73 246.3 56.52" fill="#ff0000"/>
<path transform="matrix(1,0,0,-1,0,576)" stroke-width=".71" stroke-linecap="round" stroke-linejoin="round" fill="none" stroke="#ff0000" d="M246.3 56.52C246.3 57.3 246.94 57.94 247.73 57.94 248.51 57.94 249.15 57.3 249.15 56.52 249.15 55.73 248.51 55.09 247.73 55.09 246.94 55.09 246.3 55.73 246.3 56.52"/>
<path transform="matrix(1,0,0,-1,0,576)" d="M325.96 56.39C325.96 57.17 326.6 57.81 327.38 57.81 328.16 57.81 328.8 57.17 328.8 56.39 328.8 55.61 328.16 54.97 327.38 54.97 326.6 54.97 325.96 55.61 325.96 56.39"/>
<path transform="matrix(1,0,0,-1,0,576)" stroke-width=".71" stroke-linecap="round" stroke-linejoin="round" fill="none" stroke="#000000" d="M325.96 56.39C325.96 57.17 326.6 57.81 327.38 57.81 328.16 57.81 328.8 57.17 328.8 56.39 328.8 55.61 328.16 54.97 327.38 54.97 326.6 54.97 325.96 55.61 325.96 56.39"/>
<path transform="matrix(1,0,0,-1,0,576)" d="M432.22 56.39C432.22 57.17 432.86 57.81 433.64 57.81 434.42 57.81 435.06 57.17 435.06 56.39 435.06 55.61 434.42 54.97 433.64 54.97 432.86 54.97 432.22 55.61 432.22 56.39"/>
<path transform="matrix(1,0,0,-1,0,576)" stroke-width=".71" stroke-linecap="round" stroke-linejoin="round" fill="none" stroke="#000000" d="M432.22 56.39C432.22 57.17 432.86 57.81 433.64 57.81 434.42 57.81 435.06 57.17 435.06 56.39 435.06 55.61 434.42 54.97 433.64 54.97 432.86 54.97 432.22 55.61 432.22 56.39"/>
<path transform="matrix(1,0,0,-1,0,576)" d="M314.65 56.39C314.65 57.17 315.29 57.81 316.08 57.81 316.86 57.81 317.5 57.17 317.5 56.39 317.5 55.61 316.86 54.97 316.08 54.97 315.29 54.97 314.65 55.61 314.65 56.39"/>
<path transform="matrix(1,0,0,-1,0,576)" stroke-width=".71" stroke-linecap="round" stroke-linejoin="round" fill="none" stroke="#000000" d="M314.65 56.39C314.65 57.17 315.29 57.81 316.08 57.81 316.86 57.81 317.5 57.17 317.5 56.39 317.5 55.61 316.86 54.97 316.08 54.97 315.29 54.97 314.65 55.61 314.65 56.39"/>
<path transform="matrix(1,0,0,-1,0,576)" d="M342.56 56.39C342.56 57.17 343.2 57.81 343.98 57.81 344.76 57.81 345.4 57.17 345.4 56.39 345.4 55.61 344.76 54.97 343.98 54.97 343.2 54.97 342.56 55.61 342.56 56.39"/>
<path transform="matrix(1,0,0,-1,0,576)" stroke-width=".71" stroke-linecap="round" stroke-linejoin="round" fill="none" stroke="#000000" d="M342.56 56.39C342.56 57.17 343.2 57.81 343.98 57.81 344.76 57.81 345.4 57.17 345.4 56.39 345.4 55.61 344.76 54.97 343.98 54.97 343.2 54.97 342.56 55.61 342.56 56.39"/>
<path transform="matrix(1,0,0,-1,0,576)" d="M137.35 312.29C137.35 313.07 137.99 313.71 138.77 313.71 139.55 313.71 140.19 313.07 140.19 312.29 140.19 311.5 139.55 310.86 138.77 310.86 137.99 310.86 137.35 311.5 137.35 312.29" fill="#ff0000"/>
<path transform="matrix(1,0,0,-1,0,576)" stroke-width=".71" stroke-linecap="round" stroke-linejoin="round" fill="none" stroke="#ff0000" d="M137.35 312.29C137.35 313.07 137.99 313.71 138.77 313.71 139.55 313.71 140.19 313.07 140.19 312.29 140.19 311.5 139.55 310.86 138.77 310.86 137.99 310.86 137.35 311.5 137.35 312.29"/>
<path transform="matrix(1,0,0,-1,0,576)" d="M396.58 56.39C396.58 57.17 397.22 57.81 398 57.81 398.78 57.81 399.42 57.17 399.42 56.39 399.42 55.61 398.78 54.97 398 54.97 397.22 54.97 396.58 55.61 396.58 56.39"/>
<path transform="matrix(1,0,0,-1,0,576)" stroke-width=".71" stroke-linecap="round" stroke-linejoin="round" fill="none" stroke="#000000" d="M396.58 56.39C396.58 57.17 397.22 57.81 398 57.81 398.78 57.81 399.42 57.17 399.42 56.39 399.42 55.61 398.78 54.97 398 54.97 397.22 54.97 396.58 55.61 396.58 56.39"/>
<path transform="matrix(1,0,0,-1,0,576)" d="M346.29 56.39C346.29 57.17 346.93 57.81 347.71 57.81 348.49 57.81 349.13 57.17 349.13 56.39 349.13 55.61 348.49 54.97 347.71 54.97 346.93 54.97 346.29 55.61 346.29 56.39"/>
<path transform="matrix(1,0,0,-1,0,576)" stroke-width=".71" stroke-linecap="round" stroke-linejoin="round" fill="none" stroke="#000000" d="M346.29 56.39C346.29 57.17 346.93 57.81 347.71 57.81 348.49 57.81 349.13 57.17 349.13 56.39 349.13 55.61 348.49 54.97 347.71 54.97 346.93 54.97 346.29 55.61 346.29 56.39"/>
<path transform="matrix(1,0,0,-1,0,576)" d="M395.28 56.39C395.28 57.17 395.92 57.81 396.7 57.81 397.48 57.81 398.12 57.17 398.12 56.39 398.12 55.61 397.48 54.97 396.7 54.97 395.92 54.97 395.28 55.61 395.28 56.39"/>
<path transform="matrix(1,0,0,-1,0,576)" stroke-width=".71" stroke-linecap="round" stroke-linejoin="round" fill="none" stroke="#000000" d="M395.28 56.39C395.28 57.17 395.92 57.81 396.7 57.81 397.48 57.81 398.12 57.17 398.12 56.39 398.12 55.61 397.48 54.97 396.7 54.97 395.92 54.97 395.28 55.61 395.28 56.39"/>
<path transform="matrix(1,0,0,-1,0,576)" d="M320.4 56.39C320.4 57.17 321.04 57.81 321.82 57.81 322.6 57.81 323.24 57.17 323.24 56.39 323.24 55.61 322.6 54.97 321.82 54.97 321.04 54.97 320.4 55.61 320.4 56.39"/>
<path transform="matrix(1,0,0,-1,0,576)" stroke-width=".71" stroke-linecap="round" stroke-linejoin="round" fill="none" stroke="#000000" d="M320.4 56.39C320.4 57.17 321.04 57.81 321.82 57.81 322.6 57.81 323.24 57.17 323.24 56.39 323.24 55.61 322.6 54.97 321.82 54.97 321.04 54.97 320.4 55.61 320.4 56.39"/>
<path transform="matrix(1,0,0,-1,0,576)" d="M327.33 56.39C327.33 57.17 327.97 57.81 328.76 57.81 329.54 57.81 330.18 57.17 330.18 56.39 330.18 55.61 329.54 54.97 328.76 54.97 327.97 54.97 327.33 55.61 327.33 56.39"/>
<path transform="matrix(1,0,0,-1,0,576)" stroke-width=".71" stroke-linecap="round" stroke-linejoin="round" fill="none" stroke="#000000" d="M327.33 56.39C327.33 57.17 327.97 57.81 328.76 57.81 329.54 57.81 330.18 57.17 330.18 56.39 330.18 55.61 329.54 54.97 328.76 54.97 327.97 54.97 327.33 55.61 327.33 56.39"/>
<path transform="matrix(1,0,0,-1,0,576)" d="M339.16 56.39C339.16 57.17 339.8 57.81 340.58 57.81 341.36 57.81 342 57.17 342 56.39 342 55.61 341.36 54.97 340.58 54.97 339.8 54.97 339.16 55.61 339.16 56.39"/>
<path transform="matrix(1,0,0,-1,0,576)" stroke-width=".71" stroke-linecap="round" stroke-linejoin="round" fill="none" stroke="#000000" d="M339.16 56.39C339.16 57.17 339.8 57.81 340.58 57.81 341.36 57.81 342 57.17 342 56.39 342 55.61 341.36 54.97 340.58 54.97 339.8 54.97 339.16 55.61 339.16 56.39"/>
<path transform="matrix(1,0,0,-1,0,576)" d="M253.33 56.39C253.33 57.17 253.97 57.81 254.75 57.81 255.53 57.81 256.17 57.17 256.17 56.39 256.17 55.61 255.53 54.97 254.75 54.97 253.97 54.97 253.33 55.61 253.33 56.39"/>
<path transform="matrix(1,0,0,-1,0,576)" stroke-width=".71" stroke-linecap="round" stroke-linejoin="round" fill="none" stroke="#000000" d="M253.33 56.39C253.33 57.17 253.97 57.81 254.75 57.81 255.53 57.81 256.17 57.17 256.17 56.39 256.17 55.61 255.53 54.97 254.75 54.97 253.97 54.97 253.33 55.61 253.33 56.39"/>
<path transform="matrix(1,0,0,-1,0,576)" d="M278.55 56.39C278.55 57.17 279.19 57.81 279.97 57.81 280.76 57.81 281.4 57.17 281.4 56.39 281.4 55.61 280.76 54.97 279.97 54.97 279.19 54.97 278.55 55.61 278.55 56.39"/>
<path transform="matrix(1,0,0,-1,0,576)" stroke-width=".71" stroke-linecap="round" stroke-linejoin="round" fill="none" stroke="#000000" d="M278.55 56.39C278.55 57.17 279.19 57.81 279.97 57.81 280.76 57.81 281.4 57.17 281.4 56.39 281.4 55.61 280.76 54.97 279.97 54.97 279.19 54.97 278.55 55.61 278.55 56.39"/>
<path transform="matrix(1,0,0,-1,0,576)" d="M320.46 56.39C320.46 57.17 321.09 57.81 321.88 57.81 322.66 57.81 323.3 57.17 323.3 56.39 323.3 55.61 322.66 54.97 321.88 54.97 321.09 54.97 320.46 55.61 320.46 56.39"/>
<path transform="matrix(1,0,0,-1,0,576)" stroke-width=".71" stroke-linecap="round" stroke-linejoin="round" fill="none" stroke="#000000" d="M320.46 56.39C320.46 57.17 321.09 57.81 321.88 57.81 322.66 57.81 323.3 57.17 323.3 56.39 323.3 55.61 322.66 54.97 321.88 54.97 321.09 54.97 320.46 55.61 320.46 56.39"/>
<path transform="matrix(1,0,0,-1,0,576)" d="M286.79 199.44C286.79 200.22 287.43 200.86 288.21 200.86 288.99 200.86 289.63 200.22 289.63 199.44 289.63 198.66 288.99 198.02 288.21 198.02 287.43 198.02 286.79 198.66 286.79 199.44" fill="#ff0000"/>
<path transform="matrix(1,0,0,-1,0,576)" stroke-width=".71" stroke-linecap="round" stroke-linejoin="round" fill="none" stroke="#ff0000" d="M286.79 199.44C286.79 200.22 287.43 200.86 288.21 200.86 288.99 200.86 289.63 200.22 289.63 199.44 289.63 198.66 288.99 198.02 288.21 198.02 287.43 198.02 286.79 198.66 286.79 199.44"/>
<path transform="matrix(1,0,0,-1,0,576)" d="M371.03 56.39C371.03 57.17 371.67 57.81 372.45 57.81 373.23 57.81 373.87 57.17 373.87 56.39 373.87 55.61 373.23 54.97 372.45 54.97 371.67 54.97 371.03 55.61 371.03 56.39"/>
<path transform="matrix(1,0,0,-1,0,576)" stroke-width=".71" stroke-linecap="round" stroke-linejoin="round" fill="none" stroke="#000000" d="M371.03 56.39C371.03 57.17 371.67 57.81 372.45 57.81 373.23 57.81 373.87 57.17 373.87 56.39 373.87 55.61 373.23 54.97 372.45 54.97 371.67 54.97 371.03 55.61 371.03 56.39"/>
<path transform="matrix(1,0,0,-1,0,576)" d="M319.28 56.39C319.28 57.17 319.92 57.81 320.7 57.81 321.48 57.81 322.12 57.17 322.12 56.39 322.12 55.61 321.48 54.97 320.7 54.97 319.92 54.97 319.28 55.61 319.28 56.39"/>
<path transform="matrix(1,0,0,-1,0,576)" stroke-width=".71" stroke-linecap="round" stroke-linejoin="round" fill="none" stroke="#000000" d="M319.28 56.39C319.28 57.17 319.92 57.81 320.7 57.81 321.48 57.81 322.12 57.17 322.12 56.39 322.12 55.61 321.48 54.97 320.7 54.97 319.92 54.97 319.28 55.61 319.28 56.39"/>
<path transform="matrix(1,0,0,-1,0,576)" d="M375 71.31C375 72.09 375.64 72.73 376.43 72.73 377.21 72.73 377.85 72.09 377.85 71.31 377.85 70.53 377.21 69.89 376.43 69.89 375.64 69.89 375 70.53 375 71.31" fill="#ff0000"/>
<path transform="matrix(1,0,0,-1,0,576)" stroke-width=".71" stroke-linecap="round" stroke-linejoin="round" fill="none" stroke="#ff0000" d="M375 71.31C375 72.09 375.64 72.73 376.43 72.73 377.21 72.73 377.85 72.09 377.85 71.31 377.85 70.53 377.21 69.89 376.43 69.89 375.64 69.89 375 70.53 375 71.31"/>
<path transform="matrix(1,0,0,-1,0,576)" d="M392.85 161.95C392.85 162.73 393.49 163.37 394.27 163.37 395.05 163.37 395.69 162.73 395.69 161.95 395.69 161.17 395.05 160.53 394.27 160.53 393.49 160.53 392.85 161.17 392.85 161.95" fill="#ff0000"/>
<path transform="matrix(1,0,0,-1,0,576)" stroke-width=".71" stroke-linecap="round" stroke-linejoin="round" fill="none" stroke="#ff0000" d="M392.85 161.95C392.85 162.73 393.49 163.37 394.27 163.37 395.05 163.37 395.69 162.73 395.69 161.95 395.69 161.17 395.05 160.53 394.27 160.53 393.49 160.53 392.85 161.17 392.85 161.95"/>
<path transform="matrix(1,0,0,-1,0,576)" d="M288.45 56.39C288.45 57.17 289.09 57.81 289.87 57.81 290.65 57.81 291.29 57.17 291.29 56.39 291.29 55.61 290.65 54.97 289.87 54.97 289.09 54.97 288.45 55.61 288.45 56.39"/>
<path transform="matrix(1,0,0,-1,0,576)" stroke-width=".71" stroke-linecap="round" stroke-linejoin="round" fill="none" stroke="#000000" d="M288.45 56.39C288.45 57.17 289.09 57.81 289.87 57.81 290.65 57.81 291.29 57.17 291.29 56.39 291.29 55.61 290.65 54.97 289.87 54.97 289.09 54.97 288.45 55.61 288.45 56.39"/>
<path transform="matrix(1,0,0,-1,0,576)" d="M314.51 56.39C314.51 57.17 315.15 57.81 315.93 57.81 316.71 57.81 317.35 57.17 317.35 56.39 317.35 55.61 316.71 54.97 315.93 54.97 315.15 54.97 314.51 55.61 314.51 56.39"/>
<path transform="matrix(1,0,0,-1,0,576)" stroke-width=".71" stroke-linecap="round" stroke-linejoin="round" fill="none" stroke="#000000" d="M314.51 56.39C314.51 57.17 315.15 57.81 315.93 57.81 316.71 57.81 317.35 57.17 317.35 56.39 317.35 55.61 316.71 54.97 315.93 54.97 315.15 54.97 314.51 55.61 314.51 56.39"/>
<path transform="matrix(1,0,0,-1,0,576)" d="M312.73 56.39C312.73 57.17 313.37 57.81 314.15 57.81 314.93 57.81 315.57 57.17 315.57 56.39 315.57 55.61 314.93 54.97 314.15 54.97 313.37 54.97 312.73 55.61 312.73 56.39"/>
<path transform="matrix(1,0,0,-1,0,576)" stroke-width=".71" stroke-linecap="round" stroke-linejoin="round" fill="none" stroke="#000000" d="M312.73 56.39C312.73 57.17 313.37 57.81 314.15 57.81 314.93 57.81 315.57 57.17 315.57 56.39 315.57 55.61 314.93 54.97 314.15 54.97 313.37 54.97 312.73 55.61 312.73 56.39"/>
<path transform="matrix(1,0,0,-1,0,576)" d="M130.69 246.05C130.69 246.83 131.33 247.47 132.11 247.47 132.89 247.47 133.53 246.83 133.53 246.05 133.53 245.27 132.89 244.63 132.11 244.63 131.33 244.63 130.69 245.27 130.69 246.05" fill="#ff0000"/>
<path transform="matrix(1,0,0,-1,0,576)" stroke-width=".71" stroke-linecap="round" stroke-linejoin="round" fill="none" stroke="#ff0000" d="M130.69 246.05C130.69 246.83 131.33 247.47 132.11 247.47 132.89 247.47 133.53 246.83 133.53 246.05 133.53 245.27 132.89 244.63 132.11 244.63 131.33 244.63 130.69 245.27 130.69 246.05"/>
<path transform="matrix(1,0,0,-1,0,576)" d="M334.58 56.39C334.58 57.17 335.22 57.81 336 57.81 336.78 57.81 337.42 57.17 337.42 56.39 337.42 55.61 336.78 54.97 336 54.97 335.22 54.97 334.58 55.61 334.58 56.39"/>
<path transform="matrix(1,0,0,-1,0,576)" stroke-width=".71" stroke-linecap="round" stroke-linejoin="round" fill="none" stroke="#000000" d="M334.58 56.39C334.58 57.17 335.22 57.81 336 57.81 336.78 57.81 337.42 57.17 337.42 56.39 337.42 55.61 336.78 54.97 336 54.97 335.22 54.97 334.58 55.61 334.58 56.39"/>
<path transform="matrix(1,0,0,-1,0,576)" d="M516.13 60.16C516.13 60.95 516.77 61.59 517.55 61.59 518.33 61.59 518.97 60.95 518.97 60.16 518.97 59.38 518.33 58.74 517.55 58.74 516.77 58.74 516.13 59.38 516.13 60.16" fill="#ff0000"/>
<path transform="matrix(1,0,0,-1,0,576)" stroke-width=".71" stroke-linecap="round" stroke-linejoin="round" fill="none" stroke="#ff0000" d="M516.13 60.16C516.13 60.95 516.77 61.59 517.55 61.59 518.33 61.59 518.97 60.95 518.97 60.16 518.97 59.38 518.33 58.74 517.55 58.74 516.77 58.74 516.13 59.38 516.13 60.16"/>
<path transform="matrix(1,0,0,-1,0,576)" stroke-width="1.07" stroke-linecap="butt" stroke-dasharray="4.27,4.27" stroke-linejoin="round" fill="none" stroke="#000000" d="M28.47 56.39H620.53"/>
<path transform="matrix(1,0,0,-1,0,576)" stroke-width="1.07" stroke-linecap="butt" stroke-dasharray="4.27,4.27" stroke-linejoin="round" fill="none" stroke="#000000" d="M295.54 31.91V570.52"/>
<path transform="matrix(1,0,0,-1,0,576)" stroke-width="1.07" stroke-linecap="butt" stroke-dasharray="4.27,4.27" stroke-linejoin="round" fill="none" stroke="#000000" d="M361.58 31.91V570.52"/>
<path transform="matrix(1,0,0,-1,0,576)" stroke-width="1.07" stroke-linecap="round" stroke-linejoin="round" fill="none" stroke="#333333" d="M28.47 31.91H620.52999V570.51998H28.47Z"/>
</g>
<text fill="#4d4d4d" xml:space="preserve" transform="matrix(1 0 -0 1 0 576)" font-size="9" font-family="Nimbus Sans"><tspan y="-53.16" x="18.54">0</tspan></text>
<text fill="#4d4d4d" xml:space="preserve" transform="matrix(1 0 -0 1 0 576)" font-size="9" font-family="Nimbus Sans"><tspan y="-177.81" x="18.54">2</tspan></text>
<text fill="#4d4d4d" xml:space="preserve" transform="matrix(1 0 -0 1 0 576)" font-size="9" font-family="Nimbus Sans"><tspan y="-302.46" x="18.54">4</tspan></text>
<text fill="#4d4d4d" xml:space="preserve" transform="matrix(1 0 -0 1 0 576)" font-size="9" font-family="Nimbus Sans"><tspan y="-427.11" x="18.54">6</tspan></text>
<text fill="#4d4d4d" xml:space="preserve" transform="matrix(1 0 -0 1 0 576)" font-size="9" font-family="Nimbus Sans"><tspan y="-551.76" x="18.54">8</tspan></text>
<path transform="matrix(1,0,0,-1,0,576)" stroke-width="1.07" stroke-linecap="butt" stroke-linejoin="round" fill="none" stroke="#333333" d="M25.73 56.39H28.47"/>
<path transform="matrix(1,0,0,-1,0,576)" stroke-width="1.07" stroke-linecap="butt" stroke-linejoin="round" fill="none" stroke="#333333" d="M25.73 181.04H28.47"/>
<path transform="matrix(1,0,0,-1,0,576)" stroke-width="1.07" stroke-linecap="butt" stroke-linejoin="round" fill="none" stroke="#333333" d="M25.73 305.69H28.47"/>
<path transform="matrix(1,0,0,-1,0,576)" stroke-width="1.07" stroke-linecap="butt" stroke-linejoin="round" fill="none" stroke="#333333" d="M25.73 430.34H28.47"/>
<path transform="matrix(1,0,0,-1,0,576)" stroke-width="1.07" stroke-linecap="butt" stroke-linejoin="round" fill="none" stroke="#333333" d="M25.73 554.99H28.47"/>
<path transform="matrix(1,0,0,-1,0,576)" stroke-width="1.07" stroke-linecap="butt" stroke-linejoin="round" fill="none" stroke="#333333" d="M163.46 29.17V31.91"/>
<path transform="matrix(1,0,0,-1,0,576)" stroke-width="1.07" stroke-linecap="butt" stroke-linejoin="round" fill="none" stroke="#333333" d="M328.56 29.17V31.91"/>
<path transform="matrix(1,0,0,-1,0,576)" stroke-width="1.07" stroke-linecap="butt" stroke-linejoin="round" fill="none" stroke="#333333" d="M493.66 29.17V31.91"/>
<text fill="#4d4d4d" xml:space="preserve" transform="matrix(1 0 -0 1 0 576)" font-size="9" font-family="Nimbus Sans"><tspan y="-20.52" x="154.58 159.836 164.84 167.342">&#x2212;0.5</tspan></text>
<text fill="#4d4d4d" xml:space="preserve" transform="matrix(1 0 -0 1 0 576)" font-size="9" font-family="Nimbus Sans"><tspan y="-20.52" x="322.3 327.304 329.806">0.0</tspan></text>
<text fill="#4d4d4d" xml:space="preserve" transform="matrix(1 0 -0 1 0 576)" font-size="9" font-family="Nimbus Sans"><tspan y="-20.52" x="487.4 492.404 494.906">0.5</tspan></text>
<text xml:space="preserve" transform="matrix(1 0 -0 1 0 576)" font-size="11" font-family="Nimbus Sans"><tspan y="-7.9" x="316.55 322.666 325.724">dIF</tspan></text>
<text xml:space="preserve" transform="matrix(0 -1 1 0 0 576)" font-size="11" font-family="Nimbus Sans"><tspan y="13.38" x="220.47 226.894 233.01 239.12599 245.24199 251.35799 257.474 260.532 264.195 267.25303 272.75303 278.86903 281.59706 287.71305 291.65104 300.81404 303.87205 311.20906 319.15104 321.59303 324.65104 330.15104 336.26704 339.32505 347.88307 350.94108 357.5081 363.62409 366.06608 372.18208 378.29808">&#x2212;Log10 (Isoform Switch Q Value)</tspan></text>
<path transform="matrix(1,0,0,-1,0,576)" d="M631.49 264.62H714.52V337.82H631.49Z" fill="#ffffff"/>
<text xml:space="preserve" transform="matrix(1 0 -0 1 0 576)" font-size="11" font-family="Nimbus Sans"><tspan y="-323.23" x="636.97 644.30697 646.74899 652.865 658.981 661.42306 664.481 666.92306 672.42306 678.53909 684.6551">Significant</tspan></text>
<text xml:space="preserve" transform="matrix(1 0 -0 1 0 576)" font-size="11" font-family="Nimbus Sans"><tspan y="-311.35" x="636.97 640.02798 645.52798 651.644 654.37197 660.488 664.426 673.58908 676.64706 683.984 691.926 694.36807 697.426 702.926">Isoform Switch</tspan></text>
<path transform="matrix(1,0,0,-1,0,576)" d="M636.97 287.38H654.25V304.66H636.97Z" fill="#ffffff"/>
<path transform="matrix(1,0,0,-1,0,576)" d="M644.19 296.02C644.19 296.8 644.83 297.44 645.61 297.44 646.39 297.44 647.03 296.8 647.03 296.02 647.03 295.24 646.39 294.6 645.61 294.6 644.83 294.6 644.19 295.24 644.19 296.02"/>
<path transform="matrix(1,0,0,-1,0,576)" stroke-width=".71" stroke-linecap="round" stroke-linejoin="round" fill="none" stroke="#000000" d="M644.19 296.02C644.19 296.8 644.83 297.44 645.61 297.44 646.39 297.44 647.03 296.8 647.03 296.02 647.03 295.24 646.39 294.6 645.61 294.6 644.83 294.6 644.19 295.24 644.19 296.02"/>
<path transform="matrix(1,0,0,-1,0,576)" d="M636.97 270.1H654.25V287.38H636.97Z" fill="#ffffff"/>
<path transform="matrix(1,0,0,-1,0,576)" d="M644.19 278.74C644.19 279.52 644.83 280.16 645.61 280.16 646.39 280.16 647.03 279.52 647.03 278.74 647.03 277.96 646.39 277.32 645.61 277.32 644.83 277.32 644.19 277.96 644.19 278.74" fill="#ff0000"/>
<path transform="matrix(1,0,0,-1,0,576)" stroke-width=".71" stroke-linecap="round" stroke-linejoin="round" fill="none" stroke="#ff0000" d="M644.19 278.74C644.19 279.52 644.83 280.16 645.61 280.16 646.39 280.16 647.03 279.52 647.03 278.74 647.03 277.96 646.39 277.32 645.61 277.32 644.83 277.32 644.19 277.96 644.19 278.74"/>
<text xml:space="preserve" transform="matrix(1 0 -0 1 0 576)" font-size="9" font-family="Nimbus Sans"><tspan y="-292.79" x="659.73 664.50906 670.512 675.51608 681.51907">FALSE</tspan></text>
<text xml:space="preserve" transform="matrix(1 0 -0 1 0 576)" font-size="9" font-family="Nimbus Sans"><tspan y="-275.51" x="659.73 665.229 671.367 677.865">TRUE</tspan></text>
</svg>
