<svg class="main-svg" xmlns="http://www.w3.org/2000/svg" xmlns:xlink="http://www.w3.org/1999/xlink" width="2200" height="1000" style="" viewBox="0 0 1100 500"><rect x="0" y="0" width="1100" height="500" style="fill: rgb(255, 255, 255); fill-opacity: 1;"/><defs id="defs-927d59"><g class="clips"><clipPath id="clip927d59xyplot" class="plotclip"><rect width="1014" height="385"/></clipPath><clipPath class="axesclip" id="clip927d59x"><rect x="60" y="0" width="1014" height="500"/></clipPath><clipPath class="axesclip" id="clip927d59y"><rect x="0" y="50" width="1100" height="385"/></clipPath><clipPath class="axesclip" id="clip927d59xy"><rect x="60" y="50" width="1014" height="385"/></clipPath></g><g class="gradients"/><g class="patterns"/></defs><g class="bglayer"/><g class="layer-below"><g class="imagelayer"/><g class="shapelayer"/></g><g class="cartesianlayer"><g class="subplot xy"><g class="layer-subplot"><g class="shapelayer"/><g class="imagelayer"/></g><g class="minor-gridlayer"><g class="x"/><g class="y"/></g><g class="gridlayer"><g class="x"><path class="xgrid crisp" transform="translate(262.8,0)" d="M0,50v385" style="stroke: rgb(128, 128, 128); stroke-opacity: 0.15; stroke-width: 1px;"/><path class="xgrid crisp" transform="translate(465.6,0)" d="M0,50v385" style="stroke: rgb(128, 128, 128); stroke-opacity: 0.15; stroke-width: 1px;"/><path class="xgrid crisp" transform="translate(668.4,0)" d="M0,50v385" style="stroke: rgb(128, 128, 128); stroke-opacity: 0.15; stroke-width: 1px;"/><path class="xgrid crisp" transform="translate(871.2,0)" d="M0,50v385" style="stroke: rgb(128, 128, 128); stroke-opacity: 0.15; stroke-width: 1px;"/></g><g class="y"><path class="ygrid crisp" transform="translate(0,373.58)" d="M60,0h1014" style="stroke: rgb(128, 128, 128); stroke-opacity: 0.15; stroke-width: 1px;"/><path class="ygrid crisp" transform="translate(0,312.16)" d="M60,0h1014" style="stroke: rgb(128, 128, 128); stroke-opacity: 0.15; stroke-width: 1px;"/><path class="ygrid crisp" transform="translate(0,250.74)" d="M60,0h1014" style="stroke: rgb(128, 128, 128); stroke-opacity: 0.15; stroke-width: 1px;"/><path class="ygrid crisp" transform="translate(0,189.32)" d="M60,0h1014" style="stroke: rgb(128, 128, 128); stroke-opacity: 0.15; stroke-width: 1px;"/><path class="ygrid crisp" transform="translate(0,127.9)" d="M60,0h1014" style="stroke: rgb(128, 128, 128); stroke-opacity: 0.15; stroke-width: 1px;"/><path class="ygrid crisp" transform="translate(0,66.48)" d="M60,0h1014" style="stroke: rgb(128, 128, 128); stroke-opacity: 0.15; stroke-width: 1px;"/></g></g><g class="zerolinelayer"><path class="xzl zl crisp" transform="translate(60,0)" d="M0,50v385" style="stroke: rgb(128, 128, 128); stroke-opacity: 0.2; stroke-width: 1px;"/><path class="yzl zl crisp" transform="translate(0,435)" d="M60,0h1014" style="stroke: rgb(128, 128, 128); stroke-opacity: 0.2; stroke-width: 1px;"/></g><g class="layer-between"><g class="shapelayer"/><g class="imagelayer"/></g><path class="xlines-below"/><path class="ylines-below"/><g class="overlines-below"/><g class="xaxislayer-below"/><g class="yaxislayer-below"/><g class="overaxes-below"/><g class="overplot"><g class="xy" transform="translate(60,50)" clip-path="url(#clip927d59xyplot)"><g class="scatterlayer mlayer"><g class="trace scatter trace2de84b" style="stroke-miterlimit: 2; opacity: 1;"><g class="fills"/><g class="errorbars"/><g class="lines"><path class="js-line" d="M0,384.96L141.96,384.55L152.1,383.97L192.66,382.24L202.8,380.67L233.22,375.62L243.36,372.37L253.5,369.62L263.64,366.06L273.78,358.43L283.92,348.16L304.2,332.37L314.34,318.31L324.48,302.02L334.62,293.33L344.76,280.93L354.9,262.95L365.04,258.61L375.18,260.07L385.32,243.96L395.46,222.02L405.6,192.58L415.74,157.56L425.88,129.08L436.02,110.68L456.3,79.86L466.44,77.23L476.58,72.82L486.72,73.79L496.86,51.51L507,24.72L527.28,62.3L537.42,57.47L547.56,58.45L557.7,94.09L567.84,111.98L577.98,117.38L588.12,142.09L598.26,138.38L608.4,164.72L618.54,216.53L628.68,235.96L638.82,253.3L659.1,303.49L669.24,325.52L679.38,336.2L689.52,345.58L699.66,357.82L709.8,366.1L719.94,370.63L730.08,374.1L740.22,378.6L750.36,381.31L780.78,384L790.92,384.32L851.76,384.97L861.9,384.97L1014,385" style="vector-effect: none; fill: none; stroke: rgb(92, 184, 92); stroke-opacity: 1; stroke-width: 2px; opacity: 1;"/></g><g class="points"/><g class="text"/></g><g class="trace scatter tracebb7df7" style="stroke-miterlimit: 2; opacity: 1;"><g class="fills"/><g class="errorbars"/><g class="lines"><path class="js-line" d="M0,384.94L131.82,384.55L141.96,384.12L162.24,381.53L172.38,381.4L182.52,381.31L192.66,379.91L212.94,376.92L223.08,372.76L233.22,367.97L243.36,365.41L253.5,362.91L263.64,354.43L273.78,341.27L283.92,332.47L294.06,324.78L304.2,306.18L314.34,281.25L324.48,268.4L334.62,264.62L344.76,247.53L354.9,227.24L365.04,227.02L375.18,223.47L385.32,197.22L395.46,181.17L405.6,176.58L415.74,149.88L425.88,94.86L436.02,60.75L446.16,61.56L456.3,73.06L466.44,68.05L476.58,65.99L486.72,74.25L496.86,48.05L507,39.29L517.14,55.02L527.28,56.98L537.42,64.1L547.56,78.98L557.7,92.44L567.84,118.2L588.12,196.57L598.26,225.59L618.54,258.86L628.68,283.18L638.82,305L648.96,315.49L659.1,326.1L669.24,342.6L679.38,355.82L689.52,362.85L699.66,367.23L709.8,373.56L719.94,378.01L730.08,380.22L760.5,384.12L770.64,384.47L851.76,385L861.9,385L1014,385" style="vector-effect: none; fill: none; stroke: rgb(240, 173, 78); stroke-opacity: 1; stroke-width: 2px; opacity: 1;"/></g><g class="points"/><g class="text"/></g><g class="trace scatter trace7c63e0" style="stroke-miterlimit: 2; opacity: 1;"><g class="fills"/><g class="errorbars"/><g class="lines"><path class="js-line" d="M0,384.98L141.96,384.45L152.1,383.38L162.24,382.49L172.38,382.42L192.66,382.09L202.8,380.74L223.08,377.63L233.22,375.29L263.64,366.46L273.78,359.04L283.92,350.1L294.06,343.82L304.2,335.38L314.34,318.35L324.48,300.72L334.62,292.68L344.76,281.04L354.9,264.21L365.04,260.4L375.18,261.88L385.32,245.58L395.46,225.66L405.6,197.03L415.74,156.77L425.88,122.72L436.02,101.38L446.16,75.72L456.3,64.5L466.44,72.61L476.58,65.54L486.72,64.68L496.86,43.51L507,19.25L517.14,36.25L527.28,57.44L537.42,62.3L547.56,66.44L557.7,102.03L577.98,138.9L588.12,176.73L598.26,182.66L608.4,210.3L618.54,252.54L628.68,271.99L638.82,286.7L648.96,307.08L659.1,325.57L669.24,341.35L689.52,356.96L699.66,366.82L709.8,373.33L719.94,377L750.36,383.38L760.5,384.03L801.06,384.88L811.2,384.93L1014,385" style="vector-effect: none; fill: none; stroke: rgb(92, 184, 92); stroke-opacity: 1; stroke-width: 2px; opacity: 1;"/></g><g class="points"/><g class="text"/></g><g class="trace scatter trace5b73a5" style="stroke-miterlimit: 2; opacity: 1;"><g class="fills"/><g class="errorbars"/><g class="lines"><path class="js-line" d="M0,384.85L91.26,384.78L101.4,384.64L152.1,383.83L162.24,383.43L182.52,382.46L192.66,381.29L212.94,379.34L223.08,377.19L253.5,369.45L263.64,363.24L273.78,355.34L283.92,350.04L294.06,344.76L304.2,335.78L314.34,322.92L324.48,314.65L334.62,310.96L344.76,299.58L354.9,287.08L365.04,286.09L375.18,282.3L385.32,264.22L395.46,253.22L405.6,250.06L415.74,235.27L425.88,206.4L436.02,178.05L446.16,164.55L456.3,165.16L466.44,160.23L476.58,159.56L486.72,163.89L496.86,149.11L507,136.17L527.28,151.96L537.42,158.86L547.56,171.77L557.7,191.15L567.84,207.09L577.98,212.15L588.12,218.85L598.26,239.59L608.4,254.33L618.54,258.87L638.82,301.72L648.96,311.99L659.1,320.21L669.24,333.79L679.38,344.74L689.52,350.16L699.66,352.56L709.8,358.27L719.94,363.95L730.08,366.48L740.22,370.18L750.36,375.22L760.5,378.22L770.64,379.63L821.34,383.58L831.48,384.18L861.9,384.86L872.04,384.89L1014,385" style="vector-effect: none; fill: none; stroke: rgb(240, 173, 78); stroke-opacity: 1; stroke-width: 2px; opacity: 1;"/></g><g class="points"/><g class="text"/></g><g class="trace scatter trace1b5430" style="stroke-miterlimit: 2; opacity: 1;"><g class="fills"/><g class="errorbars"/><g class="lines"><path class="js-line" d="M0,384.83L91.26,384.84L101.4,384.75L141.96,383.8L152.1,382.42L162.24,380.89L172.38,380.75L182.52,380.77L192.66,379.59L202.8,378.56L212.94,376.13L233.22,367.89L243.36,364.88L253.5,361.96L263.64,354.19L273.78,343.54L283.92,336.54L294.06,328.51L304.2,310.69L314.34,287.71L324.48,275.32L334.62,271.35L344.76,257.84L354.9,243.38L365.04,244.27L375.18,240.62L385.32,219.78L395.46,203.79L405.6,195.21L415.74,174.74L425.88,128.68L436.02,105.01L446.16,114.8L456.3,117.47L466.44,109.75L476.58,114.18L486.72,125.81L507,93.69L517.14,104.55L527.28,110.78L537.42,112.09L547.56,126.01L557.7,148.42L567.84,162.1L577.98,165.02L588.12,176.08L598.26,206.93L608.4,228.32L618.54,239.16L638.82,286.76L648.96,299.42L659.1,308.3L669.24,322.5L679.38,335.65L689.52,343.03L699.66,346.16L709.8,352.78L719.94,359.73L730.08,363.24L740.22,367.05L750.36,372.35L760.5,376L770.64,377.83L811.2,382.49L821.34,383.05L851.76,384.46L861.9,384.51L1003.86,385L1014,385" style="vector-effect: none; fill: none; stroke: rgb(240, 173, 78); stroke-opacity: 1; stroke-width: 2px; opacity: 1;"/></g><g class="points"/><g class="text"/></g><g class="trace scatter trace62b209" style="stroke-miterlimit: 2; opacity: 1;"><g class="fills"/><g class="errorbars"/><g class="lines"><path class="js-line" d="M0,384.98L141.96,384.53L152.1,383.74L162.24,382.95L172.38,383.03L202.8,382.82L212.94,381.83L243.36,377.59L253.5,376.5L263.64,373.42L273.78,368.33L294.06,361.84L304.2,354.39L314.34,342.38L324.48,335.42L334.62,333.6L344.76,325.67L354.9,317.71L365.04,319.4L375.18,318.16L385.32,305.81L395.46,296.03L405.6,291.31L415.74,276.06L425.88,246.17L436.02,229.13L446.16,231.46L456.3,231.35L466.44,226.14L476.58,225.36L486.72,227.46L496.86,215.93L507,212.69L517.14,222.25L527.28,222.07L537.42,224.23L547.56,232.85L557.7,250.2L567.84,263.27L577.98,264.87L588.12,277.58L598.26,298.12L608.4,308.26L618.54,316.21L628.68,329.75L638.82,341.05L648.96,346.07L659.1,351.23L669.24,359.5L679.38,366.38L689.52,370.25L699.66,372.63L709.8,376.46L719.94,379.57L730.08,381.14L750.36,383.7L760.5,384.3L811.2,384.97L821.34,384.98L1014,385" style="vector-effect: none; fill: none; stroke: rgb(92, 184, 92); stroke-opacity: 1; stroke-width: 2px; opacity: 1;"/></g><g class="points"/><g class="text"/></g></g></g></g><g class="zerolinelayer-above"/><path class="xlines-above crisp" d="M0,0" style="fill: none;"/><path class="ylines-above crisp" d="M0,0" style="fill: none;"/><g class="overlines-above"/><g class="xaxislayer-above"><g class="xtick"><text text-anchor="middle" x="0" y="451" transform="translate(60,0)" style="font-family: system-ui, -apple-system, 'Segoe UI', Roboto, 'Helvetica Neue', 'Noto Sans', 'Liberation Sans', Arial, sans-serif, 'Apple Color Emoji', 'Segoe UI Emoji', 'Segoe UI Symbol', 'Noto Color Emoji'; font-size: 10px; fill: rgb(80, 80, 80); fill-opacity: 1; white-space: pre;">0%</text></g><g class="xtick"><text text-anchor="middle" x="0" y="451" style="font-family: system-ui, -apple-system, 'Segoe UI', Roboto, 'Helvetica Neue', 'Noto Sans', 'Liberation Sans', Arial, sans-serif, 'Apple Color Emoji', 'Segoe UI Emoji', 'Segoe UI Symbol', 'Noto Color Emoji'; font-size: 10px; fill: rgb(80, 80, 80); fill-opacity: 1; white-space: pre;" transform="translate(262.8,0)">20%</text></g><g class="xtick"><text text-anchor="middle" x="0" y="451" style="font-family: system-ui, -apple-system, 'Segoe UI', Roboto, 'Helvetica Neue', 'Noto Sans', 'Liberation Sans', Arial, sans-serif, 'Apple Color Emoji', 'Segoe UI Emoji', 'Segoe UI Symbol', 'Noto Color Emoji'; font-size: 10px; fill: rgb(80, 80, 80); fill-opacity: 1; white-space: pre;" transform="translate(465.6,0)">40%</text></g><g class="xtick"><text text-anchor="middle" x="0" y="451" style="font-family: system-ui, -apple-system, 'Segoe UI', Roboto, 'Helvetica Neue', 'Noto Sans', 'Liberation Sans', Arial, sans-serif, 'Apple Color Emoji', 'Segoe UI Emoji', 'Segoe UI Symbol', 'Noto Color Emoji'; font-size: 10px; fill: rgb(80, 80, 80); fill-opacity: 1; white-space: pre;" transform="translate(668.4,0)">60%</text></g><g class="xtick"><text text-anchor="middle" x="0" y="451" style="font-family: system-ui, -apple-system, 'Segoe UI', Roboto, 'Helvetica Neue', 'Noto Sans', 'Liberation Sans', Arial, sans-serif, 'Apple Color Emoji', 'Segoe UI Emoji', 'Segoe UI Symbol', 'Noto Color Emoji'; font-size: 10px; fill: rgb(80, 80, 80); fill-opacity: 1; white-space: pre;" transform="translate(871.2,0)">80%</text></g><g class="xtick"><text text-anchor="middle" x="0" y="451" style="font-family: system-ui, -apple-system, 'Segoe UI', Roboto, 'Helvetica Neue', 'Noto Sans', 'Liberation Sans', Arial, sans-serif, 'Apple Color Emoji', 'Segoe UI Emoji', 'Segoe UI Symbol', 'Noto Color Emoji'; font-size: 10px; fill: rgb(80, 80, 80); fill-opacity: 1; white-space: pre;" transform="translate(1074,0)">100%</text></g></g><g class="yaxislayer-above"><g class="ytick"><text text-anchor="end" x="54" y="3.5" transform="translate(0,435)" style="font-family: system-ui, -apple-system, 'Segoe UI', Roboto, 'Helvetica Neue', 'Noto Sans', 'Liberation Sans', Arial, sans-serif, 'Apple Color Emoji', 'Segoe UI Emoji', 'Segoe UI Symbol', 'Noto Color Emoji'; font-size: 10px; fill: rgb(80, 80, 80); fill-opacity: 1; white-space: pre;">0</text></g><g class="ytick"><text text-anchor="end" x="54" y="3.5" style="font-family: system-ui, -apple-system, 'Segoe UI', Roboto, 'Helvetica Neue', 'Noto Sans', 'Liberation Sans', Arial, sans-serif, 'Apple Color Emoji', 'Segoe UI Emoji', 'Segoe UI Symbol', 'Noto Color Emoji'; font-size: 10px; fill: rgb(80, 80, 80); fill-opacity: 1; white-space: pre;" transform="translate(0,373.58)">10k</text></g><g class="ytick"><text text-anchor="end" x="54" y="3.5" style="font-family: system-ui, -apple-system, 'Segoe UI', Roboto, 'Helvetica Neue', 'Noto Sans', 'Liberation Sans', Arial, sans-serif, 'Apple Color Emoji', 'Segoe UI Emoji', 'Segoe UI Symbol', 'Noto Color Emoji'; font-size: 10px; fill: rgb(80, 80, 80); fill-opacity: 1; white-space: pre;" transform="translate(0,312.16)">20k</text></g><g class="ytick"><text text-anchor="end" x="54" y="3.5" style="font-family: system-ui, -apple-system, 'Segoe UI', Roboto, 'Helvetica Neue', 'Noto Sans', 'Liberation Sans', Arial, sans-serif, 'Apple Color Emoji', 'Segoe UI Emoji', 'Segoe UI Symbol', 'Noto Color Emoji'; font-size: 10px; fill: rgb(80, 80, 80); fill-opacity: 1; white-space: pre;" transform="translate(0,250.74)">30k</text></g><g class="ytick"><text text-anchor="end" x="54" y="3.5" style="font-family: system-ui, -apple-system, 'Segoe UI', Roboto, 'Helvetica Neue', 'Noto Sans', 'Liberation Sans', Arial, sans-serif, 'Apple Color Emoji', 'Segoe UI Emoji', 'Segoe UI Symbol', 'Noto Color Emoji'; font-size: 10px; fill: rgb(80, 80, 80); fill-opacity: 1; white-space: pre;" transform="translate(0,189.32)">40k</text></g><g class="ytick"><text text-anchor="end" x="54" y="3.5" style="font-family: system-ui, -apple-system, 'Segoe UI', Roboto, 'Helvetica Neue', 'Noto Sans', 'Liberation Sans', Arial, sans-serif, 'Apple Color Emoji', 'Segoe UI Emoji', 'Segoe UI Symbol', 'Noto Color Emoji'; font-size: 10px; fill: rgb(80, 80, 80); fill-opacity: 1; white-space: pre;" transform="translate(0,127.9)">50k</text></g><g class="ytick"><text text-anchor="end" x="54" y="3.5" style="font-family: system-ui, -apple-system, 'Segoe UI', Roboto, 'Helvetica Neue', 'Noto Sans', 'Liberation Sans', Arial, sans-serif, 'Apple Color Emoji', 'Segoe UI Emoji', 'Segoe UI Symbol', 'Noto Color Emoji'; font-size: 10px; fill: rgb(80, 80, 80); fill-opacity: 1; white-space: pre;" transform="translate(0,66.48)">60k</text></g></g><g class="overaxes-above"/></g></g><g class="polarlayer"/><g class="smithlayer"/><g class="ternarylayer"/><g class="geolayer"/><g class="funnelarealayer"/><g class="pielayer"/><g class="iciclelayer"/><g class="treemaplayer"/><g class="sunburstlayer"/><g class="glimages"/><defs id="topdefs-927d59"><g class="clips"/></defs><g class="layer-above"><g class="imagelayer"/><g class="shapelayer"/></g><g class="infolayer"><g class="g-gtitle"><text class="gtitle" x="550" y="25" text-anchor="middle" dy="0em" style="opacity: 1; font-family: system-ui, -apple-system, 'Segoe UI', Roboto, 'Helvetica Neue', 'Noto Sans', 'Liberation Sans', Arial, sans-serif, 'Apple Color Emoji', 'Segoe UI Emoji', 'Segoe UI Symbol', 'Noto Color Emoji'; font-size: 20px; fill: rgb(60, 60, 60); fill-opacity: 1; white-space: pre;"><tspan class="line" dy="0em" x="550" y="25">FastQC: Per Sequence GC Content</tspan><tspan class="line" dy="1.3em" x="550" y="25">​<tspan style="font-size:70%" dy="-0.6em">Counts, 6 lines</tspan><tspan dy="0.42em">​</tspan></tspan></text></g><g class="g-xtitle"><text class="xtitle" x="567" y="487" text-anchor="middle" style="opacity: 1; font-family: system-ui, -apple-system, 'Segoe UI', Roboto, 'Helvetica Neue', 'Noto Sans', 'Liberation Sans', Arial, sans-serif, 'Apple Color Emoji', 'Segoe UI Emoji', 'Segoe UI Symbol', 'Noto Color Emoji'; font-size: 14px; fill: rgb(100, 100, 100); fill-opacity: 1; white-space: pre;">% GC</text></g><g class="g-ytitle"><text class="ytitle" transform="rotate(-90,22,242.5)" x="22" y="242.5" text-anchor="middle" style="opacity: 1; font-family: system-ui, -apple-system, 'Segoe UI', Roboto, 'Helvetica Neue', 'Noto Sans', 'Liberation Sans', Arial, sans-serif, 'Apple Color Emoji', 'Segoe UI Emoji', 'Segoe UI Symbol', 'Noto Color Emoji'; font-size: 14px; fill: rgb(100, 100, 100); fill-opacity: 1; white-space: pre;">Count</text></g></g></svg>
