<svg class="main-svg" xmlns="http://www.w3.org/2000/svg" xmlns:xlink="http://www.w3.org/1999/xlink" width="2200" height="1000" style="" viewBox="0 0 1100 500"><rect x="0" y="0" width="1100" height="500" style="fill: rgb(255, 255, 255); fill-opacity: 1;"/><defs id="defs-7e3fa2"><g class="clips"><clipPath id="clip7e3fa2xyplot" class="plotclip"><rect width="1014" height="385"/></clipPath><clipPath class="axesclip" id="clip7e3fa2x"><rect x="60" y="0" width="1014" height="500"/></clipPath><clipPath class="axesclip" id="clip7e3fa2y"><rect x="0" y="50" width="1100" height="385"/></clipPath><clipPath class="axesclip" id="clip7e3fa2xy"><rect x="60" y="50" width="1014" height="385"/></clipPath></g><g class="gradients"/><g class="patterns"/></defs><g class="bglayer"/><g class="layer-below"><g class="imagelayer"/><g class="shapelayer"/></g><g class="cartesianlayer"><g class="subplot xy"><g class="layer-subplot"><g class="shapelayer"/><g class="imagelayer"/></g><g class="minor-gridlayer"><g class="x"/><g class="y"/></g><g class="gridlayer"><g class="x"><path class="xgrid crisp" transform="translate(262.8,0)" d="M0,50v385" style="stroke: rgb(128, 128, 128); stroke-opacity: 0.15; stroke-width: 1px;"/><path class="xgrid crisp" transform="translate(465.6,0)" d="M0,50v385" style="stroke: rgb(128, 128, 128); stroke-opacity: 0.15; stroke-width: 1px;"/><path class="xgrid crisp" transform="translate(668.4,0)" d="M0,50v385" style="stroke: rgb(128, 128, 128); stroke-opacity: 0.15; stroke-width: 1px;"/><path class="xgrid crisp" transform="translate(871.2,0)" d="M0,50v385" style="stroke: rgb(128, 128, 128); stroke-opacity: 0.15; stroke-width: 1px;"/></g><g class="y"><path class="ygrid crisp" transform="translate(0,376)" d="M60,0h1014" style="stroke: rgb(128, 128, 128); stroke-opacity: 0.15; stroke-width: 1px;"/><path class="ygrid crisp" transform="translate(0,316.99)" d="M60,0h1014" style="stroke: rgb(128, 128, 128); stroke-opacity: 0.15; stroke-width: 1px;"/><path class="ygrid crisp" transform="translate(0,257.99)" d="M60,0h1014" style="stroke: rgb(128, 128, 128); stroke-opacity: 0.15; stroke-width: 1px;"/><path class="ygrid crisp" transform="translate(0,198.98)" d="M60,0h1014" style="stroke: rgb(128, 128, 128); stroke-opacity: 0.15; stroke-width: 1px;"/><path class="ygrid crisp" transform="translate(0,139.98000000000002)" d="M60,0h1014" style="stroke: rgb(128, 128, 128); stroke-opacity: 0.15; stroke-width: 1px;"/><path class="ygrid crisp" transform="translate(0,80.97)" d="M60,0h1014" style="stroke: rgb(128, 128, 128); stroke-opacity: 0.15; stroke-width: 1px;"/></g></g><g class="zerolinelayer"><path class="xzl zl crisp" transform="translate(60,0)" d="M0,50v385" style="stroke: rgb(128, 128, 128); stroke-opacity: 0.2; stroke-width: 1px;"/><path class="yzl zl crisp" transform="translate(0,435)" d="M60,0h1014" style="stroke: rgb(128, 128, 128); stroke-opacity: 0.2; stroke-width: 1px;"/></g><g class="layer-between"><g class="shapelayer"/><g class="imagelayer"/></g><path class="xlines-below"/><path class="ylines-below"/><g class="overlines-below"/><g class="xaxislayer-below"/><g class="yaxislayer-below"/><g class="overaxes-below"/><g class="overplot"><g class="xy" transform="translate(60,50)" clip-path="url(#clip7e3fa2xyplot)"><g class="scatterlayer mlayer"><g class="trace scatter trace6e7472" style="stroke-miterlimit: 2; opacity: 1;"><g class="fills"/><g class="errorbars"/><g class="lines"><path class="js-line" d="M0,384.99L152.1,384.45L162.24,384.23L182.52,383.88L192.66,382.95L223.08,378.83L233.22,375.74L243.36,372.31L253.5,370.42L263.64,367.08L273.78,359.05L283.92,348.37L294.06,342.38L304.2,337.17L314.34,321.18L324.48,302.65L334.62,294.93L344.76,283.96L354.9,267.11L365.04,263.52L375.18,265.82L385.32,251.31L395.46,227.04L405.6,201.15L415.74,158.17L425.88,131.31L436.02,120.75L446.16,104.5L456.3,92.25L466.44,85.68L476.58,84.46L486.72,86.97L496.86,62.99L507,35.29L517.14,53.99L527.28,68.52L537.42,69.52L547.56,74.69L557.7,108.63L567.84,128.51L577.98,137.04L588.12,159.64L598.26,148.28L608.4,177.7L618.54,232.71L638.82,260.94L648.96,286.67L659.1,310.83L669.24,331.51L689.52,347.89L699.66,360.63L709.8,369.12L719.94,373.02L730.08,375.42L740.22,379.66L750.36,382.31L760.5,383.11L801.06,384.69L811.2,384.72L932.88,384.99L943.02,384.99L1014,385" style="vector-effect: none; fill: none; stroke: rgb(92, 184, 92); stroke-opacity: 1; stroke-width: 2px; opacity: 1;"/></g><g class="points"/><g class="text"/></g><g class="trace scatter trace4b9cfd" style="stroke-miterlimit: 2; opacity: 1;"><g class="fills"/><g class="errorbars"/><g class="lines"><path class="js-line" d="M0,384.97L141.96,384.36L152.1,383.29L162.24,382.65L172.38,382.95L182.52,382.54L192.66,380.82L202.8,379.8L212.94,377.68L233.22,367.8L243.36,365.05L253.5,362.83L263.64,355.03L273.78,341.74L283.92,334.03L294.06,327.98L304.2,309.14L314.34,282.82L324.48,269.29L334.62,266.02L344.76,247.26L354.9,234.36L365.04,236.96L375.18,230.1L385.32,205.05L395.46,187.03L405.6,187.18L415.74,160.85L425.88,108.96L436.02,78.25L446.16,73.09L456.3,78.69L466.44,76.25L476.58,77.59L486.72,86.97L496.86,69.73L507,54.38L517.14,59.36L527.28,62.46L537.42,73.56L547.56,90.29L557.7,115.03L567.84,134.13L577.98,161.04L588.12,204.73L598.26,235.8L608.4,250.1L618.54,263.61L628.68,289.35L638.82,310.97L648.96,320.36L659.1,329.83L669.24,345.38L679.38,358.25L689.52,365.05L699.66,368.72L709.8,374.77L719.94,379.07L730.08,380.99L760.5,384.35L770.64,384.58L963.3,385L973.44,385L1014,385" style="vector-effect: none; fill: none; stroke: rgb(92, 184, 92); stroke-opacity: 1; stroke-width: 2px; opacity: 1;"/></g><g class="points"/><g class="text"/></g><g class="trace scatter trace9e23b1" style="stroke-miterlimit: 2; opacity: 1;"><g class="fills"/><g class="errorbars"/><g class="lines"><path class="js-line" d="M0,384.98L141.96,384.76L152.1,383.93L172.38,383.56L182.52,383.49L192.66,382.91L202.8,381.17L223.08,378.06L233.22,375.05L243.36,371.59L253.5,369.27L263.64,366.6L273.78,358.89L283.92,349.07L294.06,344.28L304.2,338.22L314.34,318.75L324.48,298.9L334.62,292.46L344.76,281.23L354.9,264.1L365.04,259.83L375.18,261.43L385.32,247.64L395.46,225.37L405.6,199.13L415.74,148.71L425.88,116.05L436.02,101.85L446.16,73.68L456.3,66.41L466.44,73.11L476.58,67.54L486.72,66.11L496.86,44.75L507,19.25L517.14,33.99L527.28,49.32L537.42,59.95L547.56,69.99L557.7,105.44L567.84,122.75L577.98,145.49L588.12,186.37L598.26,186.23L608.4,214.69L618.54,259.19L628.68,275.08L638.82,287.2L648.96,309.28L659.1,328.08L669.24,344.08L679.38,351.23L689.52,358.35L699.66,368.8L709.8,375.26L719.94,378.37L730.08,379.81L740.22,382.52L750.36,384.13L760.5,384.46L841.62,384.99L851.76,384.99L1014,385" style="vector-effect: none; fill: none; stroke: rgb(240, 173, 78); stroke-opacity: 1; stroke-width: 2px; opacity: 1;"/></g><g class="points"/><g class="text"/></g><g class="trace scatter tracee8be20" style="stroke-miterlimit: 2; opacity: 1;"><g class="fills"/><g class="errorbars"/><g class="lines"><path class="js-line" d="M0,384.91L131.82,384.79L141.96,384.51L182.52,382.91L192.66,381.41L212.94,378.96L223.08,376.08L233.22,372.63L243.36,370.62L253.5,367.78L263.64,360.14L273.78,350.05L283.92,344.75L294.06,340.66L304.2,329.51L314.34,312.43L324.48,302.41L334.62,299.61L344.76,285.89L354.9,274.87L365.04,274.76L375.18,268.94L385.32,249.37L395.46,234.45L405.6,233.26L415.74,218.94L425.88,184.67L436.02,151.41L446.16,138.1L456.3,138.72L466.44,131.22L476.58,130.23L486.72,137.36L496.86,124.64L507,96.3L517.14,97.86L527.28,115.03L537.42,129.06L547.56,155.91L557.7,177.23L567.84,185.74L588.12,201.2L598.26,218.36L608.4,235.61L618.54,250.06L628.68,274.58L638.82,294.43L659.1,313.71L669.24,329.86L679.38,341.77L689.52,347.03L699.66,349.13L709.8,355.68L719.94,362.7L730.08,365.25L740.22,368.45L750.36,374.4L760.5,378.42L770.64,379.7L790.92,381.1L801.06,382.36L831.48,384.15L841.62,384.52L963.3,385L973.44,385L1014,385" style="vector-effect: none; fill: none; stroke: rgb(92, 184, 92); stroke-opacity: 1; stroke-width: 2px; opacity: 1;"/></g><g class="points"/><g class="text"/></g><g class="trace scatter trace5d7f16" style="stroke-miterlimit: 2; opacity: 1;"><g class="fills"/><g class="errorbars"/><g class="lines"><path class="js-line" d="M0,384.91L131.82,384.7L141.96,384.22L162.24,382.27L172.38,382.63L182.52,382.3L192.66,380.66L202.8,379.71L212.94,376.82L233.22,367.23L243.36,364.64L253.5,362.24L263.64,354.29L273.78,342.26L283.92,335.79L294.06,329.59L304.2,311.75L314.34,286.24L324.48,272.37L334.62,269.52L344.76,253.23L354.9,243.86L365.04,247.93L375.18,241.27L385.32,221.33L395.46,203.57L405.6,199.09L415.74,178.18L425.88,133.2L436.02,112.65L446.16,116.18L456.3,114.76L466.44,110L476.58,119.66L486.72,132.66L496.86,117.99L507,91.53L517.14,92.22L527.28,104.69L537.42,113.92L547.56,138.71L557.7,160.41L567.84,166.56L577.98,171.04L588.12,182.06L598.26,208.77L608.4,228.94L618.54,245.22L628.68,270.81L638.82,290.3L648.96,300.48L659.1,309.42L669.24,325.1L679.38,338.07L689.52,344.28L699.66,346.53L709.8,353.37L719.94,361.02L730.08,364.08L740.22,367.18L750.36,372.77L760.5,376.83L770.64,378.4L790.92,380.29L801.06,381.72L841.62,383.97L851.76,384.22L993.72,385L1003.86,385L1014,385" style="vector-effect: none; fill: none; stroke: rgb(240, 173, 78); stroke-opacity: 1; stroke-width: 2px; opacity: 1;"/></g><g class="points"/><g class="text"/></g><g class="trace scatter trace8da0b0" style="stroke-miterlimit: 2; opacity: 1;"><g class="fills"/><g class="errorbars"/><g class="lines"><path class="js-line" d="M0,384.98L141.96,384.65L152.1,383.96L162.24,383.45L172.38,383.79L192.66,383.36L202.8,383.08L212.94,381.7L223.08,379.36L233.22,377.21L243.36,376.02L253.5,374.66L263.64,371.05L273.78,364.82L283.92,360.84L294.06,358.55L304.2,349.2L314.34,333.88L324.48,325.61L334.62,322.74L344.76,313.05L354.9,308.93L365.04,311.62L375.18,307.67L385.32,294.09L395.46,280.38L405.6,276.31L415.74,257.98L425.88,224.94L436.02,208.97L446.16,207.7L466.44,201.53L476.58,202.1L486.72,202.88L496.86,194.98L507,185.67L517.14,188.16L537.42,196.67L547.56,213.32L557.7,235.8L567.84,246.24L577.98,248.56L588.12,264.89L598.26,289.12L608.4,299.32L618.54,308.38L628.68,324.94L638.82,337.09L648.96,341.76L659.1,347.03L669.24,356.63L679.38,365.23L689.52,369.52L699.66,371.9L709.8,376.54L719.94,380.17L730.08,381.55L760.5,384.51L770.64,384.68L892.32,385L902.46,385L1014,385" style="vector-effect: none; fill: none; stroke: rgb(92, 184, 92); stroke-opacity: 1; stroke-width: 2px; opacity: 1;"/></g><g class="points"/><g class="text"/></g></g></g></g><g class="zerolinelayer-above"/><path class="xlines-above crisp" d="M0,0" style="fill: none;"/><path class="ylines-above crisp" d="M0,0" style="fill: none;"/><g class="overlines-above"/><g class="xaxislayer-above"><g class="xtick"><text text-anchor="middle" x="0" y="451" transform="translate(60,0)" style="font-family: system-ui, -apple-system, 'Segoe UI', Roboto, 'Helvetica Neue', 'Noto Sans', 'Liberation Sans', Arial, sans-serif, 'Apple Color Emoji', 'Segoe UI Emoji', 'Segoe UI Symbol', 'Noto Color Emoji'; font-size: 10px; fill: rgb(80, 80, 80); fill-opacity: 1; white-space: pre;">0%</text></g><g class="xtick"><text text-anchor="middle" x="0" y="451" style="font-family: system-ui, -apple-system, 'Segoe UI', Roboto, 'Helvetica Neue', 'Noto Sans', 'Liberation Sans', Arial, sans-serif, 'Apple Color Emoji', 'Segoe UI Emoji', 'Segoe UI Symbol', 'Noto Color Emoji'; font-size: 10px; fill: rgb(80, 80, 80); fill-opacity: 1; white-space: pre;" transform="translate(262.8,0)">20%</text></g><g class="xtick"><text text-anchor="middle" x="0" y="451" style="font-family: system-ui, -apple-system, 'Segoe UI', Roboto, 'Helvetica Neue', 'Noto Sans', 'Liberation Sans', Arial, sans-serif, 'Apple Color Emoji', 'Segoe UI Emoji', 'Segoe UI Symbol', 'Noto Color Emoji'; font-size: 10px; fill: rgb(80, 80, 80); fill-opacity: 1; white-space: pre;" transform="translate(465.6,0)">40%</text></g><g class="xtick"><text text-anchor="middle" x="0" y="451" style="font-family: system-ui, -apple-system, 'Segoe UI', Roboto, 'Helvetica Neue', 'Noto Sans', 'Liberation Sans', Arial, sans-serif, 'Apple Color Emoji', 'Segoe UI Emoji', 'Segoe UI Symbol', 'Noto Color Emoji'; font-size: 10px; fill: rgb(80, 80, 80); fill-opacity: 1; white-space: pre;" transform="translate(668.4,0)">60%</text></g><g class="xtick"><text text-anchor="middle" x="0" y="451" style="font-family: system-ui, -apple-system, 'Segoe UI', Roboto, 'Helvetica Neue', 'Noto Sans', 'Liberation Sans', Arial, sans-serif, 'Apple Color Emoji', 'Segoe UI Emoji', 'Segoe UI Symbol', 'Noto Color Emoji'; font-size: 10px; fill: rgb(80, 80, 80); fill-opacity: 1; white-space: pre;" transform="translate(871.2,0)">80%</text></g><g class="xtick"><text text-anchor="middle" x="0" y="451" style="font-family: system-ui, -apple-system, 'Segoe UI', Roboto, 'Helvetica Neue', 'Noto Sans', 'Liberation Sans', Arial, sans-serif, 'Apple Color Emoji', 'Segoe UI Emoji', 'Segoe UI Symbol', 'Noto Color Emoji'; font-size: 10px; fill: rgb(80, 80, 80); fill-opacity: 1; white-space: pre;" transform="translate(1074,0)">100%</text></g></g><g class="yaxislayer-above"><g class="ytick"><text text-anchor="end" x="54" y="3.5" transform="translate(0,435)" style="font-family: system-ui, -apple-system, 'Segoe UI', Roboto, 'Helvetica Neue', 'Noto Sans', 'Liberation Sans', Arial, sans-serif, 'Apple Color Emoji', 'Segoe UI Emoji', 'Segoe UI Symbol', 'Noto Color Emoji'; font-size: 10px; fill: rgb(80, 80, 80); fill-opacity: 1; white-space: pre;">0</text></g><g class="ytick"><text text-anchor="end" x="54" y="3.5" style="font-family: system-ui, -apple-system, 'Segoe UI', Roboto, 'Helvetica Neue', 'Noto Sans', 'Liberation Sans', Arial, sans-serif, 'Apple Color Emoji', 'Segoe UI Emoji', 'Segoe UI Symbol', 'Noto Color Emoji'; font-size: 10px; fill: rgb(80, 80, 80); fill-opacity: 1; white-space: pre;" transform="translate(0,376)">10k</text></g><g class="ytick"><text text-anchor="end" x="54" y="3.5" style="font-family: system-ui, -apple-system, 'Segoe UI', Roboto, 'Helvetica Neue', 'Noto Sans', 'Liberation Sans', Arial, sans-serif, 'Apple Color Emoji', 'Segoe UI Emoji', 'Segoe UI Symbol', 'Noto Color Emoji'; font-size: 10px; fill: rgb(80, 80, 80); fill-opacity: 1; white-space: pre;" transform="translate(0,316.99)">20k</text></g><g class="ytick"><text text-anchor="end" x="54" y="3.5" style="font-family: system-ui, -apple-system, 'Segoe UI', Roboto, 'Helvetica Neue', 'Noto Sans', 'Liberation Sans', Arial, sans-serif, 'Apple Color Emoji', 'Segoe UI Emoji', 'Segoe UI Symbol', 'Noto Color Emoji'; font-size: 10px; fill: rgb(80, 80, 80); fill-opacity: 1; white-space: pre;" transform="translate(0,257.99)">30k</text></g><g class="ytick"><text text-anchor="end" x="54" y="3.5" style="font-family: system-ui, -apple-system, 'Segoe UI', Roboto, 'Helvetica Neue', 'Noto Sans', 'Liberation Sans', Arial, sans-serif, 'Apple Color Emoji', 'Segoe UI Emoji', 'Segoe UI Symbol', 'Noto Color Emoji'; font-size: 10px; fill: rgb(80, 80, 80); fill-opacity: 1; white-space: pre;" transform="translate(0,198.98)">40k</text></g><g class="ytick"><text text-anchor="end" x="54" y="3.5" style="font-family: system-ui, -apple-system, 'Segoe UI', Roboto, 'Helvetica Neue', 'Noto Sans', 'Liberation Sans', Arial, sans-serif, 'Apple Color Emoji', 'Segoe UI Emoji', 'Segoe UI Symbol', 'Noto Color Emoji'; font-size: 10px; fill: rgb(80, 80, 80); fill-opacity: 1; white-space: pre;" transform="translate(0,139.98000000000002)">50k</text></g><g class="ytick"><text text-anchor="end" x="54" y="3.5" style="font-family: system-ui, -apple-system, 'Segoe UI', Roboto, 'Helvetica Neue', 'Noto Sans', 'Liberation Sans', Arial, sans-serif, 'Apple Color Emoji', 'Segoe UI Emoji', 'Segoe UI Symbol', 'Noto Color Emoji'; font-size: 10px; fill: rgb(80, 80, 80); fill-opacity: 1; white-space: pre;" transform="translate(0,80.97)">60k</text></g></g><g class="overaxes-above"/></g></g><g class="polarlayer"/><g class="smithlayer"/><g class="ternarylayer"/><g class="geolayer"/><g class="funnelarealayer"/><g class="pielayer"/><g class="iciclelayer"/><g class="treemaplayer"/><g class="sunburstlayer"/><g class="glimages"/><defs id="topdefs-7e3fa2"><g class="clips"/></defs><g class="layer-above"><g class="imagelayer"/><g class="shapelayer"/></g><g class="infolayer"><g class="g-gtitle"><text class="gtitle" x="550" y="25" text-anchor="middle" dy="0em" style="opacity: 1; font-family: system-ui, -apple-system, 'Segoe UI', Roboto, 'Helvetica Neue', 'Noto Sans', 'Liberation Sans', Arial, sans-serif, 'Apple Color Emoji', 'Segoe UI Emoji', 'Segoe UI Symbol', 'Noto Color Emoji'; font-size: 20px; fill: rgb(60, 60, 60); fill-opacity: 1; white-space: pre;"><tspan class="line" dy="0em" x="550" y="25">FastQC: Per Sequence GC Content</tspan><tspan class="line" dy="1.3em" x="550" y="25">​<tspan style="font-size:70%" dy="-0.6em">Counts, 6 lines</tspan><tspan dy="0.42em">​</tspan></tspan></text></g><g class="g-xtitle"><text class="xtitle" x="567" y="487" text-anchor="middle" style="opacity: 1; font-family: system-ui, -apple-system, 'Segoe UI', Roboto, 'Helvetica Neue', 'Noto Sans', 'Liberation Sans', Arial, sans-serif, 'Apple Color Emoji', 'Segoe UI Emoji', 'Segoe UI Symbol', 'Noto Color Emoji'; font-size: 14px; fill: rgb(100, 100, 100); fill-opacity: 1; white-space: pre;">% GC</text></g><g class="g-ytitle"><text class="ytitle" transform="rotate(-90,22,242.5)" x="22" y="242.5" text-anchor="middle" style="opacity: 1; font-family: system-ui, -apple-system, 'Segoe UI', Roboto, 'Helvetica Neue', 'Noto Sans', 'Liberation Sans', Arial, sans-serif, 'Apple Color Emoji', 'Segoe UI Emoji', 'Segoe UI Symbol', 'Noto Color Emoji'; font-size: 14px; fill: rgb(100, 100, 100); fill-opacity: 1; white-space: pre;">Count</text></g></g></svg>
