<svg class="main-svg" xmlns="http://www.w3.org/2000/svg" xmlns:xlink="http://www.w3.org/1999/xlink" width="1600" height="800" style="" viewBox="0 0 1066.6666666666667 533.3333333333334"><rect x="0" y="0" width="1066.6666666666667" height="533.3333333333334" style="fill: rgb(0, 0, 0); fill-opacity: 0;"/><defs id="defs-160355"><g class="clips"><clipPath id="clip160355xyplot" class="plotclip"><rect width="992" height="418"/></clipPath><clipPath class="axesclip" id="clip160355x"><rect x="60" y="0" width="992" height="533.3333333333334"/></clipPath><clipPath class="axesclip" id="clip160355y"><rect x="0" y="50" width="1066.6666666666667" height="418"/></clipPath><clipPath class="axesclip" id="clip160355xy"><rect x="60" y="50" width="992" height="418"/></clipPath></g><g class="gradients"/><g class="patterns"/></defs><g class="bglayer"><rect class="bg" x="55" y="45" width="1002" height="428" style="fill: rgb(0, 0, 0); fill-opacity: 0; stroke-width: 0;"/></g><g class="layer-below"><g class="imagelayer"/><g class="shapelayer"/></g><g class="cartesianlayer"><g class="subplot xy"><g class="layer-subplot"><g class="shapelayer"/><g class="imagelayer"/></g><g class="minor-gridlayer"><g class="x"/><g class="y"/></g><g class="gridlayer"><g class="x"><path class="xgrid crisp" transform="translate(155.19,0)" d="M0,50v418" style="stroke: rgb(128, 128, 128); stroke-opacity: 0.15; stroke-width: 1px;"/><path class="xgrid crisp" transform="translate(255.39,0)" d="M0,50v418" style="stroke: rgb(128, 128, 128); stroke-opacity: 0.15; stroke-width: 1px;"/><path class="xgrid crisp" transform="translate(355.6,0)" d="M0,50v418" style="stroke: rgb(128, 128, 128); stroke-opacity: 0.15; stroke-width: 1px;"/><path class="xgrid crisp" transform="translate(455.8,0)" d="M0,50v418" style="stroke: rgb(128, 128, 128); stroke-opacity: 0.15; stroke-width: 1px;"/><path class="xgrid crisp" transform="translate(656.2,0)" d="M0,50v418" style="stroke: rgb(128, 128, 128); stroke-opacity: 0.15; stroke-width: 1px;"/><path class="xgrid crisp" transform="translate(756.4,0)" d="M0,50v418" style="stroke: rgb(128, 128, 128); stroke-opacity: 0.15; stroke-width: 1px;"/><path class="xgrid crisp" transform="translate(856.61,0)" d="M0,50v418" style="stroke: rgb(128, 128, 128); stroke-opacity: 0.15; stroke-width: 1px;"/><path class="xgrid crisp" transform="translate(956.81,0)" d="M0,50v418" style="stroke: rgb(128, 128, 128); stroke-opacity: 0.15; stroke-width: 1px;"/></g><g class="y"><path class="ygrid crisp" transform="translate(0,371.31)" d="M60,0h992" style="stroke: rgb(128, 128, 128); stroke-opacity: 0.15; stroke-width: 1px;"/><path class="ygrid crisp" transform="translate(0,295.51)" d="M60,0h992" style="stroke: rgb(128, 128, 128); stroke-opacity: 0.15; stroke-width: 1px;"/><path class="ygrid crisp" transform="translate(0,219.72)" d="M60,0h992" style="stroke: rgb(128, 128, 128); stroke-opacity: 0.15; stroke-width: 1px;"/><path class="ygrid crisp" transform="translate(0,143.93)" d="M60,0h992" style="stroke: rgb(128, 128, 128); stroke-opacity: 0.15; stroke-width: 1px;"/><path class="ygrid crisp" transform="translate(0,68.13)" d="M60,0h992" style="stroke: rgb(128, 128, 128); stroke-opacity: 0.15; stroke-width: 1px;"/></g></g><g class="zerolinelayer"><path class="xzl zl crisp" transform="translate(556,0)" d="M0,50v418" style="stroke: rgb(128, 128, 128); stroke-opacity: 0.2; stroke-width: 1px;"/><path class="yzl zl crisp" transform="translate(0,447.1)" d="M60,0h992" style="stroke: rgb(128, 128, 128); stroke-opacity: 0.2; stroke-width: 1px;"/></g><g class="layer-between"><g class="shapelayer"/><g class="imagelayer"/></g><path class="xlines-below"/><path class="ylines-below"/><g class="overlines-below"/><g class="xaxislayer-below"/><g class="yaxislayer-below"/><g class="overaxes-below"/><g class="overplot"><g class="xy" transform="translate(60,50)" clip-path="url(#clip160355xyplot)"><g class="scatterlayer mlayer"><g class="trace scatter trace1fb614" style="stroke-miterlimit: 2; opacity: 1;"><g class="fills"/><g class="errorbars"/><g class="lines"><path class="js-line" d="M0,397.1L330.67,397.1L340.69,396.15L350.71,391.53L360.73,387.87L370.75,381.9L380.77,368.72L390.79,347.96L400.81,309.04L410.83,263.75L420.85,207.84L430.87,157.14L440.89,95.66L450.91,65.81L460.93,32.67L470.95,24.64L480.97,20.9L490.99,34.16L501.01,56.95L511.03,83.07L521.05,105.15L531.07,129.5L541.09,141.22L551.11,161.6L561.13,190.97L571.15,213.41L581.17,240.44L591.19,248.84L601.21,265.12L611.23,281.39L621.25,295.29L631.27,302.65L641.29,314L651.31,325.9L661.33,333.7L681.37,348.68L691.39,353.51L701.41,358.29L711.43,362.05L721.45,364.54L731.47,368.28L741.49,371.63L751.52,373.1L761.54,375.01L771.56,378.11L781.58,378.58L791.6,380.06L821.66,385.08L831.68,385.09L851.72,387.34L861.74,388.17L871.76,389.53L881.78,390.04L911.84,391.57L921.86,391.68L931.88,392.42L941.9,392.21L992,393.66" style="vector-effect: none; fill: none; stroke: rgb(124, 181, 236); stroke-opacity: 1; stroke-width: 2px; opacity: 1;"/></g><g class="points"/><g class="text"/></g><g class="trace scatter tracee56ae2" style="stroke-miterlimit: 2; opacity: 1;"><g class="fills"/><g class="errorbars"/><g class="lines"><path class="js-line" d="M0,397.1L340.69,396.68L350.71,392.2L370.75,384.65L380.77,374.07L390.79,358.71L400.81,331.02L410.83,299.42L420.85,252.65L430.87,203.3L440.89,148.64L460.93,58.34L470.95,36.44L480.97,33.63L490.99,31.68L501.01,52.56L511.03,60.84L521.05,96.47L531.07,110.62L541.09,140.53L551.11,153.92L561.13,180.68L571.15,198.47L581.17,223.67L591.19,240.76L601.21,258.46L611.23,273.62L621.25,292.02L631.27,299.79L641.29,309.47L651.31,322.06L661.33,328.98L671.35,337.79L681.37,344.78L691.39,350.09L701.41,353.54L711.43,359.79L741.49,369.02L751.52,372.39L761.54,374.12L771.56,376.66L831.68,386.04L841.7,386.71L871.76,389.47L881.78,390.04L891.8,390.86L901.82,390.81L931.88,392.26L941.9,392.72L992,394.14" style="vector-effect: none; fill: none; stroke: rgb(67, 67, 72); stroke-opacity: 1; stroke-width: 2px; opacity: 1;"/></g><g class="points"/><g class="text"/></g><g class="trace scatter trace6b374f" style="stroke-miterlimit: 2; opacity: 1;"><g class="fills"/><g class="errorbars"/><g class="lines"><path class="js-line" d="M0,397.1L330.67,397.1L340.69,396.29L360.73,389.03L370.75,384.17L380.77,371.86L390.79,353.12L400.81,317.21L410.83,278.49L420.85,221.53L430.87,172.58L440.89,112.76L450.91,87.46L460.93,51.61L470.95,53.22L480.97,64.56L490.99,67.34L501.01,85.68L511.03,109.47L521.05,134.32L531.07,148.5L541.09,154.68L551.11,178.4L561.13,203.33L571.15,221.76L581.17,240.03L591.19,249.16L611.23,276.4L621.25,288L631.27,295.97L641.29,305.29L651.31,319.45L661.33,327.95L671.35,334.61L681.37,343.41L691.39,348.44L701.41,351.42L711.43,357.03L721.45,358.77L731.47,363.17L741.49,366.63L751.52,369.32L761.54,370.52L791.6,377.17L801.62,378.61L821.66,381.52L831.68,382.66L871.76,387.63L881.78,388.19L911.84,390.01L921.86,390.57L961.94,392.46L971.96,392.8L992,393.46" style="vector-effect: none; fill: none; stroke: rgb(144, 237, 125); stroke-opacity: 1; stroke-width: 2px; opacity: 1;"/></g><g class="points"/><g class="text"/></g><g class="trace scatter tracecb2faf" style="stroke-miterlimit: 2; opacity: 1;"><g class="fills"/><g class="errorbars"/><g class="lines"><path class="js-line" d="M0,397.1L340.69,396.88L350.71,395.37L370.75,394.45L380.77,394.03L390.79,393.71L400.81,391.72L410.83,388.96L420.85,382.99L430.87,372.94L440.89,358.54L450.91,336.94L460.93,309.28L470.95,274.77L480.97,246.75L490.99,210.11L501.01,193.75L511.03,171.3L521.05,168.39L531.07,150.84L541.09,158.87L551.11,161.77L561.13,169.72L571.15,185.42L581.17,204.79L591.19,210.41L601.21,222.63L611.23,235.31L621.25,245.67L631.27,264.71L641.29,276.41L661.33,305.21L671.35,315.49L681.37,326.74L691.39,335.48L701.41,337.61L711.43,347.24L721.45,350.56L731.47,354.89L741.49,359.79L751.52,362.9L761.54,367.22L771.56,369.92L781.58,370.72L791.6,373.5L801.62,374.1L811.64,376.68L821.66,379.68L831.68,380.71L841.7,381.75L851.72,383.57L861.74,384.23L871.76,385.73L891.8,387.96L901.82,388.29L911.84,389.62L921.86,389.55L971.96,392.11L981.98,392.57L992,392.54" style="vector-effect: none; fill: none; stroke: rgb(247, 163, 92); stroke-opacity: 1; stroke-width: 2px; opacity: 1;"/></g><g class="points"/><g class="text"/></g><g class="trace scatter trace4efead" style="stroke-miterlimit: 2; opacity: 1;"><g class="fills"/><g class="errorbars"/><g class="lines"><path class="js-line" d="M0,397.1L340.69,396.85L350.71,394.4L370.75,389.76L380.77,384.55L390.79,374.57L400.81,354.89L410.83,330.39L420.85,288.07L440.89,193.04L450.91,145.35L470.95,60.09L480.97,58.82L490.99,48.69L501.01,63.84L511.03,73.9L521.05,91.83L531.07,101.82L541.09,128.66L561.13,157.33L571.15,188.7L581.17,214.98L591.19,230.16L611.23,259.61L621.25,270.65L631.27,287.83L641.29,299.64L651.31,311.01L661.33,327.14L671.35,333.3L681.37,345.08L691.39,350.68L701.41,352.08L711.43,359.6L721.45,362.76L741.49,369.87L751.52,372.16L771.56,378.04L781.58,378.96L821.66,385.59L831.68,386.21L841.7,386.47L851.72,388.51L861.74,388.97L871.76,390.21L891.8,390.84L901.82,391.86L921.86,392.16L931.88,393.02L981.98,393.78L992,394.32" style="vector-effect: none; fill: none; stroke: rgb(128, 133, 233); stroke-opacity: 1; stroke-width: 2px; opacity: 1;"/></g><g class="points"/><g class="text"/></g><g class="trace scatter trace7fded2" style="stroke-miterlimit: 2; opacity: 1;"><g class="fills"/><g class="errorbars"/><g class="lines"><path class="js-line" d="M0,397.1L340.69,396.66L350.71,392.98L360.73,388.94L370.75,384.09L380.77,372.81L390.79,354.75L400.81,327.33L410.83,302.43L420.85,266.29L430.87,238.15L440.89,217.49L450.91,200.48L460.93,192.37L470.95,194.49L480.97,208.37L490.99,219.95L501.01,236.44L511.03,250.71L521.05,264.89L531.07,274.29L541.09,290.28L551.11,296.42L571.15,320.78L581.17,331.11L591.19,337.94L601.21,343.81L621.25,355.44L631.27,359.12L671.35,376.14L681.37,379.3L701.41,381.4L711.43,384.23L721.45,385.68L731.47,385.6L741.49,387.65L751.52,388.75L771.56,390.6L781.58,390.67L801.62,392.1L811.64,392.48L821.66,393.31L831.68,393.23L891.8,395.05L901.82,395.09L992,396.15" style="vector-effect: none; fill: none; stroke: rgb(241, 92, 128); stroke-opacity: 1; stroke-width: 2px; opacity: 1;"/></g><g class="points"/><g class="text"/></g></g></g></g><g class="zerolinelayer-above"/><path class="xlines-above crisp" d="M0,0" style="fill: none;"/><path class="ylines-above crisp" d="M0,0" style="fill: none;"/><g class="overlines-above"/><g class="xaxislayer-above"><g class="xtick"><text text-anchor="middle" x="0" y="484" transform="translate(155.19,0)" style="font-family: system-ui, -apple-system, 'Segoe UI', Roboto, 'Helvetica Neue', 'Noto Sans', 'Liberation Sans', Arial, sans-serif, 'Apple Color Emoji', 'Segoe UI Emoji', 'Segoe UI Symbol', 'Noto Color Emoji'; font-size: 10px; fill: rgb(80, 80, 80); fill-opacity: 1; white-space: pre;">−200 bp</text></g><g class="xtick"><text text-anchor="middle" x="0" y="484" style="font-family: system-ui, -apple-system, 'Segoe UI', Roboto, 'Helvetica Neue', 'Noto Sans', 'Liberation Sans', Arial, sans-serif, 'Apple Color Emoji', 'Segoe UI Emoji', 'Segoe UI Symbol', 'Noto Color Emoji'; font-size: 10px; fill: rgb(80, 80, 80); fill-opacity: 1; white-space: pre;" transform="translate(255.39,0)">−150 bp</text></g><g class="xtick"><text text-anchor="middle" x="0" y="484" style="font-family: system-ui, -apple-system, 'Segoe UI', Roboto, 'Helvetica Neue', 'Noto Sans', 'Liberation Sans', Arial, sans-serif, 'Apple Color Emoji', 'Segoe UI Emoji', 'Segoe UI Symbol', 'Noto Color Emoji'; font-size: 10px; fill: rgb(80, 80, 80); fill-opacity: 1; white-space: pre;" transform="translate(355.6,0)">−100 bp</text></g><g class="xtick"><text text-anchor="middle" x="0" y="484" style="font-family: system-ui, -apple-system, 'Segoe UI', Roboto, 'Helvetica Neue', 'Noto Sans', 'Liberation Sans', Arial, sans-serif, 'Apple Color Emoji', 'Segoe UI Emoji', 'Segoe UI Symbol', 'Noto Color Emoji'; font-size: 10px; fill: rgb(80, 80, 80); fill-opacity: 1; white-space: pre;" transform="translate(455.8,0)">−50 bp</text></g><g class="xtick"><text text-anchor="middle" x="0" y="484" style="font-family: system-ui, -apple-system, 'Segoe UI', Roboto, 'Helvetica Neue', 'Noto Sans', 'Liberation Sans', Arial, sans-serif, 'Apple Color Emoji', 'Segoe UI Emoji', 'Segoe UI Symbol', 'Noto Color Emoji'; font-size: 10px; fill: rgb(80, 80, 80); fill-opacity: 1; white-space: pre;" transform="translate(556,0)">0 bp</text></g><g class="xtick"><text text-anchor="middle" x="0" y="484" style="font-family: system-ui, -apple-system, 'Segoe UI', Roboto, 'Helvetica Neue', 'Noto Sans', 'Liberation Sans', Arial, sans-serif, 'Apple Color Emoji', 'Segoe UI Emoji', 'Segoe UI Symbol', 'Noto Color Emoji'; font-size: 10px; fill: rgb(80, 80, 80); fill-opacity: 1; white-space: pre;" transform="translate(656.2,0)">50 bp</text></g><g class="xtick"><text text-anchor="middle" x="0" y="484" style="font-family: system-ui, -apple-system, 'Segoe UI', Roboto, 'Helvetica Neue', 'Noto Sans', 'Liberation Sans', Arial, sans-serif, 'Apple Color Emoji', 'Segoe UI Emoji', 'Segoe UI Symbol', 'Noto Color Emoji'; font-size: 10px; fill: rgb(80, 80, 80); fill-opacity: 1; white-space: pre;" transform="translate(756.4,0)">100 bp</text></g><g class="xtick"><text text-anchor="middle" x="0" y="484" style="font-family: system-ui, -apple-system, 'Segoe UI', Roboto, 'Helvetica Neue', 'Noto Sans', 'Liberation Sans', Arial, sans-serif, 'Apple Color Emoji', 'Segoe UI Emoji', 'Segoe UI Symbol', 'Noto Color Emoji'; font-size: 10px; fill: rgb(80, 80, 80); fill-opacity: 1; white-space: pre;" transform="translate(856.61,0)">150 bp</text></g><g class="xtick"><text text-anchor="middle" x="0" y="484" style="font-family: system-ui, -apple-system, 'Segoe UI', Roboto, 'Helvetica Neue', 'Noto Sans', 'Liberation Sans', Arial, sans-serif, 'Apple Color Emoji', 'Segoe UI Emoji', 'Segoe UI Symbol', 'Noto Color Emoji'; font-size: 10px; fill: rgb(80, 80, 80); fill-opacity: 1; white-space: pre;" transform="translate(956.81,0)">200 bp</text></g></g><g class="yaxislayer-above"><g class="ytick"><text text-anchor="end" x="54" y="3.5" transform="translate(0,447.1)" style="font-family: system-ui, -apple-system, 'Segoe UI', Roboto, 'Helvetica Neue', 'Noto Sans', 'Liberation Sans', Arial, sans-serif, 'Apple Color Emoji', 'Segoe UI Emoji', 'Segoe UI Symbol', 'Noto Color Emoji'; font-size: 10px; fill: rgb(80, 80, 80); fill-opacity: 1; white-space: pre;">0</text></g><g class="ytick"><text text-anchor="end" x="54" y="3.5" style="font-family: system-ui, -apple-system, 'Segoe UI', Roboto, 'Helvetica Neue', 'Noto Sans', 'Liberation Sans', Arial, sans-serif, 'Apple Color Emoji', 'Segoe UI Emoji', 'Segoe UI Symbol', 'Noto Color Emoji'; font-size: 10px; fill: rgb(80, 80, 80); fill-opacity: 1; white-space: pre;" transform="translate(0,371.31)">10k</text></g><g class="ytick"><text text-anchor="end" x="54" y="3.5" style="font-family: system-ui, -apple-system, 'Segoe UI', Roboto, 'Helvetica Neue', 'Noto Sans', 'Liberation Sans', Arial, sans-serif, 'Apple Color Emoji', 'Segoe UI Emoji', 'Segoe UI Symbol', 'Noto Color Emoji'; font-size: 10px; fill: rgb(80, 80, 80); fill-opacity: 1; white-space: pre;" transform="translate(0,295.51)">20k</text></g><g class="ytick"><text text-anchor="end" x="54" y="3.5" style="font-family: system-ui, -apple-system, 'Segoe UI', Roboto, 'Helvetica Neue', 'Noto Sans', 'Liberation Sans', Arial, sans-serif, 'Apple Color Emoji', 'Segoe UI Emoji', 'Segoe UI Symbol', 'Noto Color Emoji'; font-size: 10px; fill: rgb(80, 80, 80); fill-opacity: 1; white-space: pre;" transform="translate(0,219.72)">30k</text></g><g class="ytick"><text text-anchor="end" x="54" y="3.5" style="font-family: system-ui, -apple-system, 'Segoe UI', Roboto, 'Helvetica Neue', 'Noto Sans', 'Liberation Sans', Arial, sans-serif, 'Apple Color Emoji', 'Segoe UI Emoji', 'Segoe UI Symbol', 'Noto Color Emoji'; font-size: 10px; fill: rgb(80, 80, 80); fill-opacity: 1; white-space: pre;" transform="translate(0,143.93)">40k</text></g><g class="ytick"><text text-anchor="end" x="54" y="3.5" style="font-family: system-ui, -apple-system, 'Segoe UI', Roboto, 'Helvetica Neue', 'Noto Sans', 'Liberation Sans', Arial, sans-serif, 'Apple Color Emoji', 'Segoe UI Emoji', 'Segoe UI Symbol', 'Noto Color Emoji'; font-size: 10px; fill: rgb(80, 80, 80); fill-opacity: 1; white-space: pre;" transform="translate(0,68.13)">50k</text></g></g><g class="overaxes-above"/></g></g><g class="polarlayer"/><g class="smithlayer"/><g class="ternarylayer"/><g class="geolayer"/><g class="funnelarealayer"/><g class="pielayer"/><g class="iciclelayer"/><g class="treemaplayer"/><g class="sunburstlayer"/><g class="glimages"/><defs id="topdefs-160355"><g class="clips"/></defs><g class="layer-above"><g class="imagelayer"/><g class="shapelayer"/></g><g class="infolayer"><g class="g-gtitle"><text class="gtitle" x="533.3333333333334" y="25" text-anchor="middle" dy="0em" style="opacity: 1; font-family: system-ui, -apple-system, 'Segoe UI', Roboto, 'Helvetica Neue', 'Noto Sans', 'Liberation Sans', Arial, sans-serif, 'Apple Color Emoji', 'Segoe UI Emoji', 'Segoe UI Symbol', 'Noto Color Emoji'; font-size: 20px; fill: rgb(60, 60, 60); fill-opacity: 1; white-space: pre;"><tspan class="line" dy="0em" x="533.3333333333334" y="25">RSeQC: Inner Distance</tspan><tspan class="line" dy="1.3em" x="533.3333333333334" y="25">​<tspan style="font-size:70%" dy="-0.6em">Counts, 6 lines</tspan><tspan dy="0.42em">​</tspan></tspan></text></g><g class="g-xtitle"><text class="xtitle" x="556" y="520" text-anchor="middle" style="opacity: 1; font-family: system-ui, -apple-system, 'Segoe UI', Roboto, 'Helvetica Neue', 'Noto Sans', 'Liberation Sans', Arial, sans-serif, 'Apple Color Emoji', 'Segoe UI Emoji', 'Segoe UI Symbol', 'Noto Color Emoji'; font-size: 14px; fill: rgb(100, 100, 100); fill-opacity: 1; white-space: pre;">Inner Distance (bp)</text></g><g class="g-ytitle"><text class="ytitle" transform="rotate(-90,22,259)" x="22" y="259" text-anchor="middle" style="opacity: 1; font-family: system-ui, -apple-system, 'Segoe UI', Roboto, 'Helvetica Neue', 'Noto Sans', 'Liberation Sans', Arial, sans-serif, 'Apple Color Emoji', 'Segoe UI Emoji', 'Segoe UI Symbol', 'Noto Color Emoji'; font-size: 14px; fill: rgb(100, 100, 100); fill-opacity: 1; white-space: pre;">Counts</text></g></g></svg>
