<svg class="main-svg" xmlns="http://www.w3.org/2000/svg" xmlns:xlink="http://www.w3.org/1999/xlink" width="1600" height="800" style="" viewBox="0 0 1066.6666666666667 533.3333333333334"><rect x="0" y="0" width="1066.6666666666667" height="533.3333333333334" style="fill: rgb(0, 0, 0); fill-opacity: 0;"/><defs id="defs-8e62aa"><g class="clips"><clipPath id="clip8e62aaxyplot" class="plotclip"><rect width="982" height="418"/></clipPath><clipPath class="axesclip" id="clip8e62aax"><rect x="60" y="0" width="982" height="533.3333333333334"/></clipPath><clipPath class="axesclip" id="clip8e62aay"><rect x="0" y="50" width="1066.6666666666667" height="418"/></clipPath><clipPath class="axesclip" id="clip8e62aaxy"><rect x="60" y="50" width="982" height="418"/></clipPath></g><g class="gradients"/><g class="patterns"/></defs><g class="bglayer"><rect class="bg" x="55" y="45" width="992" height="428" style="fill: rgb(0, 0, 0); fill-opacity: 0; stroke-width: 0;"/></g><g class="layer-below"><g class="imagelayer"/><g class="shapelayer"/></g><g class="cartesianlayer"><g class="subplot xy"><g class="layer-subplot"><g class="shapelayer"/><g class="imagelayer"/></g><g class="minor-gridlayer"><g class="x"/><g class="y"/></g><g class="gridlayer"><g class="x"><path class="xgrid crisp" transform="translate(256.4,0)" d="M0,50v418" style="stroke: rgb(128, 128, 128); stroke-opacity: 0.15; stroke-width: 1px;"/><path class="xgrid crisp" transform="translate(452.8,0)" d="M0,50v418" style="stroke: rgb(128, 128, 128); stroke-opacity: 0.15; stroke-width: 1px;"/><path class="xgrid crisp" transform="translate(649.2,0)" d="M0,50v418" style="stroke: rgb(128, 128, 128); stroke-opacity: 0.15; stroke-width: 1px;"/><path class="xgrid crisp" transform="translate(845.6,0)" d="M0,50v418" style="stroke: rgb(128, 128, 128); stroke-opacity: 0.15; stroke-width: 1px;"/></g><g class="y"><path class="ygrid crisp" transform="translate(0,371.86)" d="M60,0h982" style="stroke: rgb(128, 128, 128); stroke-opacity: 0.15; stroke-width: 1px;"/><path class="ygrid crisp" transform="translate(0,296.62)" d="M60,0h982" style="stroke: rgb(128, 128, 128); stroke-opacity: 0.15; stroke-width: 1px;"/><path class="ygrid crisp" transform="translate(0,221.38)" d="M60,0h982" style="stroke: rgb(128, 128, 128); stroke-opacity: 0.15; stroke-width: 1px;"/><path class="ygrid crisp" transform="translate(0,146.14)" d="M60,0h982" style="stroke: rgb(128, 128, 128); stroke-opacity: 0.15; stroke-width: 1px;"/><path class="ygrid crisp" transform="translate(0,70.9)" d="M60,0h982" style="stroke: rgb(128, 128, 128); stroke-opacity: 0.15; stroke-width: 1px;"/></g></g><g class="zerolinelayer"><path class="xzl zl crisp" transform="translate(60,0)" d="M0,50v418" style="stroke: rgb(128, 128, 128); stroke-opacity: 0.2; stroke-width: 1px;"/><path class="yzl zl crisp" transform="translate(0,447.1)" d="M60,0h982" style="stroke: rgb(128, 128, 128); stroke-opacity: 0.2; stroke-width: 1px;"/></g><g class="layer-between"><g class="shapelayer"/><g class="imagelayer"/></g><path class="xlines-below"/><path class="ylines-below"/><g class="overlines-below"/><g class="xaxislayer-below"/><g class="yaxislayer-below"/><g class="overaxes-below"/><g class="overplot"><g class="xy" transform="translate(60,50)" clip-path="url(#clip8e62aaxyplot)"><g class="scatterlayer mlayer"><g class="trace scatter trace45dc89" style="stroke-miterlimit: 2; opacity: 1;"><g class="fills"/><g class="errorbars"/><g class="lines"><path class="js-line" d="M9.82,397.1L19.64,362.56L29.46,323.43L39.28,299.12L49.1,267.44L58.92,240.9L68.74,209.24L78.56,199.91L88.38,184.49L98.2,179.14L108.02,197.6L117.84,185.59L127.66,178.04L137.48,175.57L147.3,146.84L157.12,138.64L166.94,132.68L176.76,124.55L186.58,119.28L196.4,103.06L206.22,98.91L216.04,73.66L225.86,72.37L235.68,65.14L245.5,50.94L255.32,57.61L265.14,59.48L274.96,41.42L284.78,42.58L294.6,30.32L304.42,20.9L314.24,33.54L324.06,44.18L333.88,53.28L343.7,47.05L353.52,30.28L363.34,26.01L373.16,33.14L382.98,38.23L392.8,42.63L402.62,56.84L412.44,46.25L422.26,78.24L432.08,73.78L441.9,71.74L451.72,64.13L461.54,79.26L471.36,86.2L481.18,76.8L491,37.12L500.82,53.74L510.64,60.58L520.46,65.36L530.28,61.2L540.1,50.23L549.92,51.18L559.74,63.63L569.56,64.06L579.38,73.5L589.2,73.03L599.02,58.34L608.84,61.72L618.66,72.95L628.48,75.02L638.3,80.1L648.12,84.27L657.94,75.28L667.76,81.91L677.58,90.84L687.4,97.52L697.22,106.48L707.04,117.39L716.86,119.44L726.68,86.02L736.5,92.71L746.32,123.89L756.14,101.47L765.96,104.37L775.78,100.67L785.6,95.11L795.42,100.32L805.24,111.2L815.06,111.17L824.88,138.07L834.7,149.03L844.52,167.58L854.34,176.26L864.16,181.07L873.98,166.87L883.8,175.55L893.62,180.64L903.44,189.62L913.26,197.19L923.08,206.01L932.9,224.52L942.72,250.25L952.54,282.96L962.36,305.79L972.18,331.91L982,352.37" style="vector-effect: none; fill: none; stroke: rgb(124, 181, 236); stroke-opacity: 1; stroke-width: 2px; opacity: 1;"/></g><g class="points"/><g class="text"/></g><g class="trace scatter trace91e23a" style="stroke-miterlimit: 2; opacity: 1;"><g class="fills"/><g class="errorbars"/><g class="lines"><path class="js-line" d="M9.82,397.1L19.64,364.56L29.46,329.12L49.1,275.67L58.92,246.43L68.74,212.36L78.56,201.89L88.38,185.04L98.2,176.49L108.02,201.8L117.84,189.11L127.66,181.91L137.48,176.05L147.3,140.16L157.12,125.13L176.76,116.98L186.58,121.72L196.4,100.33L206.22,104.31L216.04,82.91L225.86,79.6L235.68,74.61L245.5,62.9L255.32,68.75L265.14,66.47L274.96,42.87L284.78,43.97L294.6,26.07L304.42,20.9L314.24,21.43L324.06,38.78L333.88,38.09L343.7,32.28L353.52,27.02L363.34,27.01L373.16,32.63L382.98,39.39L392.8,44.67L402.62,63.6L412.44,50.85L422.26,78.97L432.08,77.04L441.9,77.96L451.72,70.51L461.54,84.91L471.36,76.92L481.18,73.92L491,35.17L500.82,53.63L510.64,61.78L520.46,60.14L530.28,59.32L540.1,51.85L549.92,52.35L559.74,64.63L569.56,61.46L579.38,67.89L589.2,59.17L599.02,40.59L608.84,40.73L618.66,50.23L628.48,53.16L638.3,62.63L648.12,68.19L657.94,60.16L667.76,68.67L677.58,75.95L687.4,78.64L697.22,89.03L707.04,98.59L716.86,100.49L726.68,70.26L736.5,75.7L746.32,102.49L756.14,97.45L765.96,101.46L775.78,93.69L785.6,95.32L795.42,101.95L805.24,114.19L815.06,127.81L824.88,145.89L834.7,155.96L844.52,173.65L854.34,181.6L864.16,189.53L873.98,185.05L883.8,190.44L893.62,194.42L903.44,202.8L913.26,213L923.08,227.2L932.9,248.04L952.54,291.65L962.36,316.44L982,363.98" style="vector-effect: none; fill: none; stroke: rgb(67, 67, 72); stroke-opacity: 1; stroke-width: 2px; opacity: 1;"/></g><g class="points"/><g class="text"/></g><g class="trace scatter trace10e348" style="stroke-miterlimit: 2; opacity: 1;"><g class="fills"/><g class="errorbars"/><g class="lines"><path class="js-line" d="M9.82,397.1L19.64,368.87L29.46,337.49L39.28,314.55L49.1,284.41L58.92,261.99L68.74,221.2L88.38,194.97L98.2,186.43L108.02,194.19L117.84,191.15L127.66,182.64L137.48,175.99L147.3,152.63L157.12,141.99L166.94,140.47L176.76,136.18L186.58,133.03L196.4,115.17L206.22,108.84L216.04,80.41L225.86,73.41L235.68,61.67L245.5,58.72L255.32,64.8L265.14,70.8L274.96,52.54L284.78,48.34L294.6,36.5L304.42,24.92L314.24,36.21L324.06,45.04L333.88,49.19L343.7,35.9L353.52,28.27L363.34,20.9L373.16,32.56L382.98,38.38L392.8,39.31L402.62,51.92L412.44,44.73L422.26,77.26L432.08,68.61L451.72,56.46L461.54,66.15L471.36,79.79L481.18,54.96L491,25.35L500.82,41.14L510.64,44.61L520.46,46.91L530.28,44.87L540.1,37.96L549.92,33.7L559.74,45.93L569.56,46.63L579.38,64.77L589.2,70.08L599.02,55.98L608.84,58.74L618.66,67.83L628.48,69.1L638.3,75.7L648.12,74.99L657.94,70.13L667.76,76.05L677.58,80.19L687.4,81.12L697.22,87.01L707.04,98.27L716.86,102.95L726.68,76.31L736.5,81.94L746.32,109.31L756.14,93.12L765.96,97.26L775.78,93.71L785.6,90.25L795.42,102.18L805.24,113.43L815.06,116.07L824.88,135.23L834.7,149.83L844.52,165.02L854.34,173.16L864.16,183.34L873.98,175.77L883.8,183.72L893.62,187.24L903.44,197.75L913.26,212.81L923.08,226.79L932.9,251.2L942.72,271.92L952.54,294.58L962.36,320.32L972.18,342.32L982,363.2" style="vector-effect: none; fill: none; stroke: rgb(144, 237, 125); stroke-opacity: 1; stroke-width: 2px; opacity: 1;"/></g><g class="points"/><g class="text"/></g><g class="trace scatter tracee79ea2" style="stroke-miterlimit: 2; opacity: 1;"><g class="fills"/><g class="errorbars"/><g class="lines"><path class="js-line" d="M9.82,397.1L19.64,371.68L29.46,343.45L39.28,322.57L49.1,299.71L58.92,272.33L68.74,229.49L78.56,213.07L88.38,201.75L98.2,189.26L108.02,205.03L117.84,198.52L127.66,198.33L137.48,186.54L147.3,160.43L157.12,143.33L166.94,154.58L176.76,152.23L186.58,153.94L196.4,131.29L206.22,132.12L216.04,103.87L225.86,98.83L235.68,107.82L245.5,103.69L255.32,101.46L265.14,94.13L274.96,74.28L284.78,65.21L294.6,49.57L304.42,29.96L314.24,49.37L324.06,57.52L333.88,48.97L343.7,36.37L353.52,26.39L363.34,23.03L373.16,26.33L382.98,48.52L392.8,50.95L402.62,58.54L412.44,50.97L422.26,73.27L432.08,61.08L441.9,60.94L451.72,62.32L461.54,65.07L471.36,88.06L481.18,47.47L491,20.9L500.82,36.82L510.64,52.32L520.46,56.03L530.28,54.03L540.1,37.64L549.92,36.67L559.74,42.39L569.56,53.18L579.38,69.11L589.2,72.13L599.02,50.54L608.84,38.12L618.66,49.55L628.48,45.77L638.3,53.05L648.12,54.68L657.94,44.95L667.76,49.85L677.58,56.83L687.4,60.4L697.22,70.25L707.04,80.46L716.86,78.68L726.68,56.35L736.5,59.19L746.32,87.15L756.14,58.06L765.96,61L775.78,51.01L785.6,45.26L795.42,46.74L805.24,56.54L815.06,58.62L824.88,89.86L834.7,101.36L844.52,119.86L854.34,121.85L864.16,129.81L873.98,117.48L883.8,125.27L893.62,130.67L903.44,139.63L913.26,155.57L923.08,169.78L932.9,192.23L942.72,219.74L952.54,250.23L962.36,275.37L972.18,305.46L982,334.97" style="vector-effect: none; fill: none; stroke: rgb(247, 163, 92); stroke-opacity: 1; stroke-width: 2px; opacity: 1;"/></g><g class="points"/><g class="text"/></g><g class="trace scatter tracef71e9e" style="stroke-miterlimit: 2; opacity: 1;"><g class="fills"/><g class="errorbars"/><g class="lines"><path class="js-line" d="M9.82,397.1L19.64,370.22L29.46,337.83L39.28,314.96L49.1,285.41L58.92,265.13L68.74,233.6L78.56,223.03L88.38,209.26L98.2,204.38L108.02,215.2L117.84,206.48L127.66,201.9L137.48,196.28L147.3,174.19L157.12,162.61L166.94,164.04L176.76,158.08L186.58,157.91L196.4,142.61L206.22,144.28L216.04,128.37L225.86,124.69L235.68,120.44L245.5,113.03L265.14,109.48L274.96,97.58L284.78,94.04L294.6,75.68L304.42,64.8L314.24,65.36L324.06,75.84L333.88,74.71L343.7,64.71L353.52,57.35L363.34,55.94L373.16,58.08L382.98,63.71L392.8,65.77L402.62,72.92L412.44,71.14L422.26,95.9L432.08,93.46L441.9,90.76L451.72,80.42L461.54,84.15L471.36,98.45L481.18,75.16L491,56L500.82,72.15L510.64,80.91L520.46,84L530.28,82.17L549.92,74.19L559.74,82.84L569.56,82.07L579.38,87.67L589.2,81.81L599.02,59.76L608.84,51.18L618.66,52.11L628.48,46.63L638.3,52.55L648.12,53.86L657.94,44.96L667.76,53.36L677.58,59.41L687.4,63.14L697.22,69.73L707.04,79.06L716.86,79.77L726.68,55.9L736.5,54.24L746.32,77.2L756.14,46.76L765.96,45.02L775.78,26.83L785.6,20.9L795.42,24.62L805.24,29.61L815.06,38.01L824.88,72.54L834.7,85.64L844.52,103.38L854.34,102.67L864.16,115.02L873.98,98.99L893.62,97.84L903.44,102.06L913.26,110.09L923.08,122.38L932.9,150.24L942.72,184.49L952.54,221.67L962.36,253.74L982,326.68" style="vector-effect: none; fill: none; stroke: rgb(128, 133, 233); stroke-opacity: 1; stroke-width: 2px; opacity: 1;"/></g><g class="points"/><g class="text"/></g><g class="trace scatter tracec93892" style="stroke-miterlimit: 2; opacity: 1;"><g class="fills"/><g class="errorbars"/><g class="lines"><path class="js-line" d="M9.82,397.1L29.46,331.42L39.28,305.82L49.1,268.58L58.92,245.97L68.74,198.64L78.56,186.94L88.38,163.27L98.2,143.38L108.02,170.24L117.84,157.08L127.66,148.58L137.48,144.49L147.3,116.79L157.12,102.06L166.94,103.45L176.76,101.62L186.58,106.36L196.4,84.63L206.22,83.8L216.04,68.4L225.86,66.97L235.68,63.59L245.5,51.88L255.32,60.09L265.14,56.3L274.96,43.27L284.78,47.4L294.6,34.06L304.42,20.9L314.24,26.11L324.06,38.73L333.88,37.76L343.7,29.69L353.52,24.89L363.34,26.37L373.16,31.16L382.98,37.25L392.8,38.72L402.62,51.55L412.44,47.9L422.26,75.48L432.08,78.46L441.9,74L451.72,68.08L461.54,67.27L471.36,88.63L491,36.17L500.82,54.57L510.64,60.9L520.46,60.7L530.28,59.98L540.1,53.06L549.92,50.5L559.74,62.63L579.38,73.86L589.2,72.67L599.02,49.06L608.84,45.07L618.66,51.5L628.48,49.77L638.3,56.85L648.12,61.51L657.94,55.55L667.76,64.13L677.58,73.85L687.4,78.07L697.22,89.53L707.04,97.04L716.86,103.27L726.68,74.28L736.5,82.95L746.32,103.78L756.14,96.23L765.96,100.97L775.78,94.12L785.6,93.25L795.42,103.9L805.24,120.56L815.06,135.83L824.88,157.1L834.7,169.14L844.52,187.19L864.16,205.37L873.98,204.43L883.8,211.79L893.62,214.09L903.44,222.41L913.26,235.92L923.08,248.34L932.9,268.64L952.54,304.44L962.36,324.78L982,369.02" style="vector-effect: none; fill: none; stroke: rgb(241, 92, 128); stroke-opacity: 1; stroke-width: 2px; opacity: 1;"/></g><g class="points"/><g class="text"/></g></g></g></g><g class="zerolinelayer-above"/><path class="xlines-above crisp" d="M0,0" style="fill: none;"/><path class="ylines-above crisp" d="M0,0" style="fill: none;"/><g class="overlines-above"/><g class="xaxislayer-above"><g class="xtick"><text text-anchor="middle" x="0" y="484" transform="translate(60,0)" style="font-family: system-ui, -apple-system, 'Segoe UI', Roboto, 'Helvetica Neue', 'Noto Sans', 'Liberation Sans', Arial, sans-serif, 'Apple Color Emoji', 'Segoe UI Emoji', 'Segoe UI Symbol', 'Noto Color Emoji'; font-size: 10px; fill: rgb(80, 80, 80); fill-opacity: 1; white-space: pre;">0%</text></g><g class="xtick"><text text-anchor="middle" x="0" y="484" style="font-family: system-ui, -apple-system, 'Segoe UI', Roboto, 'Helvetica Neue', 'Noto Sans', 'Liberation Sans', Arial, sans-serif, 'Apple Color Emoji', 'Segoe UI Emoji', 'Segoe UI Symbol', 'Noto Color Emoji'; font-size: 10px; fill: rgb(80, 80, 80); fill-opacity: 1; white-space: pre;" transform="translate(256.4,0)">20%</text></g><g class="xtick"><text text-anchor="middle" x="0" y="484" style="font-family: system-ui, -apple-system, 'Segoe UI', Roboto, 'Helvetica Neue', 'Noto Sans', 'Liberation Sans', Arial, sans-serif, 'Apple Color Emoji', 'Segoe UI Emoji', 'Segoe UI Symbol', 'Noto Color Emoji'; font-size: 10px; fill: rgb(80, 80, 80); fill-opacity: 1; white-space: pre;" transform="translate(452.8,0)">40%</text></g><g class="xtick"><text text-anchor="middle" x="0" y="484" style="font-family: system-ui, -apple-system, 'Segoe UI', Roboto, 'Helvetica Neue', 'Noto Sans', 'Liberation Sans', Arial, sans-serif, 'Apple Color Emoji', 'Segoe UI Emoji', 'Segoe UI Symbol', 'Noto Color Emoji'; font-size: 10px; fill: rgb(80, 80, 80); fill-opacity: 1; white-space: pre;" transform="translate(649.2,0)">60%</text></g><g class="xtick"><text text-anchor="middle" x="0" y="484" style="font-family: system-ui, -apple-system, 'Segoe UI', Roboto, 'Helvetica Neue', 'Noto Sans', 'Liberation Sans', Arial, sans-serif, 'Apple Color Emoji', 'Segoe UI Emoji', 'Segoe UI Symbol', 'Noto Color Emoji'; font-size: 10px; fill: rgb(80, 80, 80); fill-opacity: 1; white-space: pre;" transform="translate(845.6,0)">80%</text></g><g class="xtick"><text text-anchor="middle" x="0" y="484" style="font-family: system-ui, -apple-system, 'Segoe UI', Roboto, 'Helvetica Neue', 'Noto Sans', 'Liberation Sans', Arial, sans-serif, 'Apple Color Emoji', 'Segoe UI Emoji', 'Segoe UI Symbol', 'Noto Color Emoji'; font-size: 10px; fill: rgb(80, 80, 80); fill-opacity: 1; white-space: pre;" transform="translate(1042,0)">100%</text></g></g><g class="yaxislayer-above"><g class="ytick"><text text-anchor="end" x="54" y="3.5" transform="translate(0,447.1)" style="font-family: system-ui, -apple-system, 'Segoe UI', Roboto, 'Helvetica Neue', 'Noto Sans', 'Liberation Sans', Arial, sans-serif, 'Apple Color Emoji', 'Segoe UI Emoji', 'Segoe UI Symbol', 'Noto Color Emoji'; font-size: 10px; fill: rgb(80, 80, 80); fill-opacity: 1; white-space: pre;">0%</text></g><g class="ytick"><text text-anchor="end" x="54" y="3.5" style="font-family: system-ui, -apple-system, 'Segoe UI', Roboto, 'Helvetica Neue', 'Noto Sans', 'Liberation Sans', Arial, sans-serif, 'Apple Color Emoji', 'Segoe UI Emoji', 'Segoe UI Symbol', 'Noto Color Emoji'; font-size: 10px; fill: rgb(80, 80, 80); fill-opacity: 1; white-space: pre;" transform="translate(0,371.86)">20%</text></g><g class="ytick"><text text-anchor="end" x="54" y="3.5" style="font-family: system-ui, -apple-system, 'Segoe UI', Roboto, 'Helvetica Neue', 'Noto Sans', 'Liberation Sans', Arial, sans-serif, 'Apple Color Emoji', 'Segoe UI Emoji', 'Segoe UI Symbol', 'Noto Color Emoji'; font-size: 10px; fill: rgb(80, 80, 80); fill-opacity: 1; white-space: pre;" transform="translate(0,296.62)">40%</text></g><g class="ytick"><text text-anchor="end" x="54" y="3.5" style="font-family: system-ui, -apple-system, 'Segoe UI', Roboto, 'Helvetica Neue', 'Noto Sans', 'Liberation Sans', Arial, sans-serif, 'Apple Color Emoji', 'Segoe UI Emoji', 'Segoe UI Symbol', 'Noto Color Emoji'; font-size: 10px; fill: rgb(80, 80, 80); fill-opacity: 1; white-space: pre;" transform="translate(0,221.38)">60%</text></g><g class="ytick"><text text-anchor="end" x="54" y="3.5" style="font-family: system-ui, -apple-system, 'Segoe UI', Roboto, 'Helvetica Neue', 'Noto Sans', 'Liberation Sans', Arial, sans-serif, 'Apple Color Emoji', 'Segoe UI Emoji', 'Segoe UI Symbol', 'Noto Color Emoji'; font-size: 10px; fill: rgb(80, 80, 80); fill-opacity: 1; white-space: pre;" transform="translate(0,146.14)">80%</text></g><g class="ytick"><text text-anchor="end" x="54" y="3.5" style="font-family: system-ui, -apple-system, 'Segoe UI', Roboto, 'Helvetica Neue', 'Noto Sans', 'Liberation Sans', Arial, sans-serif, 'Apple Color Emoji', 'Segoe UI Emoji', 'Segoe UI Symbol', 'Noto Color Emoji'; font-size: 10px; fill: rgb(80, 80, 80); fill-opacity: 1; white-space: pre;" transform="translate(0,70.9)">100%</text></g></g><g class="overaxes-above"/></g></g><g class="polarlayer"/><g class="smithlayer"/><g class="ternarylayer"/><g class="geolayer"/><g class="funnelarealayer"/><g class="pielayer"/><g class="iciclelayer"/><g class="treemaplayer"/><g class="sunburstlayer"/><g class="glimages"/><defs id="topdefs-8e62aa"><g class="clips"/></defs><g class="layer-above"><g class="imagelayer"/><g class="shapelayer"/></g><g class="infolayer"><g class="g-gtitle"><text class="gtitle" x="533.3333333333334" y="25" text-anchor="middle" dy="0em" style="opacity: 1; font-family: system-ui, -apple-system, 'Segoe UI', Roboto, 'Helvetica Neue', 'Noto Sans', 'Liberation Sans', Arial, sans-serif, 'Apple Color Emoji', 'Segoe UI Emoji', 'Segoe UI Symbol', 'Noto Color Emoji'; font-size: 20px; fill: rgb(60, 60, 60); fill-opacity: 1; white-space: pre;"><tspan class="line" dy="0em" x="533.3333333333334" y="25">RSeQC: Gene Body Coverage</tspan><tspan class="line" dy="1.3em" x="533.3333333333334" y="25">​<tspan style="font-size:70%" dy="-0.6em">Percentages, 6 lines</tspan><tspan dy="0.42em">​</tspan></tspan></text></g><g class="g-xtitle"><text class="xtitle" x="551" y="520" text-anchor="middle" style="opacity: 1; font-family: system-ui, -apple-system, 'Segoe UI', Roboto, 'Helvetica Neue', 'Noto Sans', 'Liberation Sans', Arial, sans-serif, 'Apple Color Emoji', 'Segoe UI Emoji', 'Segoe UI Symbol', 'Noto Color Emoji'; font-size: 14px; fill: rgb(100, 100, 100); fill-opacity: 1; white-space: pre;">Gene Body Percentile (5' -> 3')</text></g><g class="g-ytitle"><text class="ytitle" transform="rotate(-90,22,259)" x="22" y="259" text-anchor="middle" style="opacity: 1; font-family: system-ui, -apple-system, 'Segoe UI', Roboto, 'Helvetica Neue', 'Noto Sans', 'Liberation Sans', Arial, sans-serif, 'Apple Color Emoji', 'Segoe UI Emoji', 'Segoe UI Symbol', 'Noto Color Emoji'; font-size: 14px; fill: rgb(100, 100, 100); fill-opacity: 1; white-space: pre;">Percentage Coverage</text></g></g></svg>
