<svg class="main-svg" xmlns="http://www.w3.org/2000/svg" xmlns:xlink="http://www.w3.org/1999/xlink" width="1600" height="800" style="" viewBox="0 0 1066.6666666666667 533.3333333333334"><rect x="0" y="0" width="1066.6666666666667" height="533.3333333333334" style="fill: rgb(0, 0, 0); fill-opacity: 0;"/><defs id="defs-bbd201"><g class="clips"><clipPath id="clipbbd201xyplot" class="plotclip"><rect width="986" height="418"/></clipPath><clipPath class="axesclip" id="clipbbd201x"><rect x="60" y="0" width="986" height="533.3333333333334"/></clipPath><clipPath class="axesclip" id="clipbbd201y"><rect x="0" y="50" width="1066.6666666666667" height="418"/></clipPath><clipPath class="axesclip" id="clipbbd201xy"><rect x="60" y="50" width="986" height="418"/></clipPath></g><g class="gradients"/><g class="patterns"/></defs><g class="bglayer"><rect class="bg" x="55" y="45" width="996" height="428" style="fill: rgb(0, 0, 0); fill-opacity: 0; stroke-width: 0;"/></g><g class="layer-below"><g class="imagelayer"/><g class="shapelayer"/></g><g class="cartesianlayer"><g class="subplot xy"><g class="layer-subplot"><g class="shapelayer"/><g class="imagelayer"/></g><g class="minor-gridlayer"><g class="x"/><g class="y"/></g><g class="gridlayer"><g class="x"><path class="xgrid crisp" transform="translate(156.82,0)" d="M0,50v418" style="stroke: rgb(128, 128, 128); stroke-opacity: 0.15; stroke-width: 1px;"/><path class="xgrid crisp" transform="translate(255.62,0)" d="M0,50v418" style="stroke: rgb(128, 128, 128); stroke-opacity: 0.15; stroke-width: 1px;"/><path class="xgrid crisp" transform="translate(354.42,0)" d="M0,50v418" style="stroke: rgb(128, 128, 128); stroke-opacity: 0.15; stroke-width: 1px;"/><path class="xgrid crisp" transform="translate(453.21,0)" d="M0,50v418" style="stroke: rgb(128, 128, 128); stroke-opacity: 0.15; stroke-width: 1px;"/><path class="xgrid crisp" transform="translate(552.01,0)" d="M0,50v418" style="stroke: rgb(128, 128, 128); stroke-opacity: 0.15; stroke-width: 1px;"/><path class="xgrid crisp" transform="translate(650.81,0)" d="M0,50v418" style="stroke: rgb(128, 128, 128); stroke-opacity: 0.15; stroke-width: 1px;"/><path class="xgrid crisp" transform="translate(749.61,0)" d="M0,50v418" style="stroke: rgb(128, 128, 128); stroke-opacity: 0.15; stroke-width: 1px;"/><path class="xgrid crisp" transform="translate(848.4,0)" d="M0,50v418" style="stroke: rgb(128, 128, 128); stroke-opacity: 0.15; stroke-width: 1px;"/><path class="xgrid crisp" transform="translate(947.2,0)" d="M0,50v418" style="stroke: rgb(128, 128, 128); stroke-opacity: 0.15; stroke-width: 1px;"/></g><g class="y"><path class="ygrid crisp" transform="translate(0,447.1)" d="M60,0h986" style="stroke: rgb(128, 128, 128); stroke-opacity: 0.15; stroke-width: 1px;"/><path class="ygrid crisp" transform="translate(0,427.12)" d="M60,0h986" style="stroke: rgb(128, 128, 128); stroke-opacity: 0.15; stroke-width: 1px;"/><path class="ygrid crisp" transform="translate(0,400.71)" d="M60,0h986" style="stroke: rgb(128, 128, 128); stroke-opacity: 0.15; stroke-width: 1px;"/><path class="ygrid crisp" transform="translate(0,380.74)" d="M60,0h986" style="stroke: rgb(128, 128, 128); stroke-opacity: 0.15; stroke-width: 1px;"/><path class="ygrid crisp" transform="translate(0,360.76)" d="M60,0h986" style="stroke: rgb(128, 128, 128); stroke-opacity: 0.15; stroke-width: 1px;"/><path class="ygrid crisp" transform="translate(0,334.35)" d="M60,0h986" style="stroke: rgb(128, 128, 128); stroke-opacity: 0.15; stroke-width: 1px;"/><path class="ygrid crisp" transform="translate(0,314.38)" d="M60,0h986" style="stroke: rgb(128, 128, 128); stroke-opacity: 0.15; stroke-width: 1px;"/><path class="ygrid crisp" transform="translate(0,294.4)" d="M60,0h986" style="stroke: rgb(128, 128, 128); stroke-opacity: 0.15; stroke-width: 1px;"/><path class="ygrid crisp" transform="translate(0,267.99)" d="M60,0h986" style="stroke: rgb(128, 128, 128); stroke-opacity: 0.15; stroke-width: 1px;"/><path class="ygrid crisp" transform="translate(0,248.01)" d="M60,0h986" style="stroke: rgb(128, 128, 128); stroke-opacity: 0.15; stroke-width: 1px;"/><path class="ygrid crisp" transform="translate(0,228.04)" d="M60,0h986" style="stroke: rgb(128, 128, 128); stroke-opacity: 0.15; stroke-width: 1px;"/><path class="ygrid crisp" transform="translate(0,201.63)" d="M60,0h986" style="stroke: rgb(128, 128, 128); stroke-opacity: 0.15; stroke-width: 1px;"/><path class="ygrid crisp" transform="translate(0,181.65)" d="M60,0h986" style="stroke: rgb(128, 128, 128); stroke-opacity: 0.15; stroke-width: 1px;"/><path class="ygrid crisp" transform="translate(0,161.67000000000002)" d="M60,0h986" style="stroke: rgb(128, 128, 128); stroke-opacity: 0.15; stroke-width: 1px;"/><path class="ygrid crisp" transform="translate(0,135.26999999999998)" d="M60,0h986" style="stroke: rgb(128, 128, 128); stroke-opacity: 0.15; stroke-width: 1px;"/><path class="ygrid crisp" transform="translate(0,115.29)" d="M60,0h986" style="stroke: rgb(128, 128, 128); stroke-opacity: 0.15; stroke-width: 1px;"/><path class="ygrid crisp" transform="translate(0,95.31)" d="M60,0h986" style="stroke: rgb(128, 128, 128); stroke-opacity: 0.15; stroke-width: 1px;"/><path class="ygrid crisp" transform="translate(0,68.9)" d="M60,0h986" style="stroke: rgb(128, 128, 128); stroke-opacity: 0.15; stroke-width: 1px;"/></g></g><g class="zerolinelayer"/><g class="layer-between"><g class="shapelayer"/><g class="imagelayer"/></g><path class="xlines-below"/><path class="ylines-below"/><g class="overlines-below"/><g class="xaxislayer-below"/><g class="yaxislayer-below"/><g class="overaxes-below"/><g class="overplot"><g class="xy" transform="translate(60,50)" clip-path="url(#clipbbd201xyplot)"><g class="scatterlayer mlayer"><g class="trace scatter trace342cd5" style="stroke-miterlimit: 2; opacity: 1;"><g class="fills"/><g class="errorbars"/><g class="lines"><path class="js-line" d="M0,20.9L3.95,94.93L7.9,127.58L11.86,150.59L15.81,166.67L23.71,190.88L27.66,201.44L39.52,223.43L43.47,229.97L47.42,236.18L51.37,238.67L55.33,241.13L59.28,248.74L63.23,254.88L67.18,251.93L75.09,268.06L79.04,267.09L82.99,269.06L86.94,275.07L90.89,276.35L94.85,280.07L98.8,285.53L102.75,274.65L106.7,283.78L110.65,278.15L114.61,293.03L118.56,290.07L122.51,294.63L126.46,290.78L134.36,301.06L138.32,304.33L142.27,298.13L146.22,303.2L150.17,300.05L154.12,306.73L158.08,296.33L162.03,308.01L165.98,312.24L169.93,312.24L177.84,321.04L181.79,312.24L185.74,312.24L189.69,317.19L197.6,333.77L201.55,325.48L205.5,327.99L209.45,315.44L213.4,325.48L217.35,325.48L221.31,319.05L225.26,333.77L229.21,337.17L233.16,330.74L237.11,357.15L241.07,330.74L245.02,345.46L248.97,350.71L252.92,345.46L256.87,327.99L260.83,337.17L264.78,337.17L268.73,333.77L272.68,345.46L276.63,345.46L280.59,330.74L284.54,345.46L288.49,327.99L292.44,357.15L296.39,341.02L300.34,345.46L304.3,327.99L308.25,350.71L312.2,330.74L316.15,365.44L320.1,341.02L324.06,345.46L328.01,377.12L331.96,350.71L335.91,350.71L339.86,357.15L343.82,350.71L347.77,330.74L351.72,357.15L355.67,345.46L359.62,337.17L363.58,350.71L367.53,377.12L371.48,365.44L375.43,377.12L379.38,350.71L383.33,377.12L387.29,357.15L391.24,357.15L397.17,365.44L401.12,357.15L405.07,377.12L409.02,357.15L412.97,350.71L416.93,365.44L420.88,377.12L424.83,377.12L428.78,377.12L432.73,397.1L436.69,397.1L440.64,350.71L444.59,377.12L448.54,345.46L452.49,377.12L456.44,350.71L460.4,377.12L466.32,397.1L470.28,377.12L474.23,397.1L482.13,397.1L486.08,357.15L492.01,377.12L495.96,397.1L501.89,365.44L505.84,377.12L509.8,397.1L513.75,377.12L519.68,377.12L523.63,350.71L527.58,377.12L531.53,397.1L535.48,377.12L539.43,377.12L543.39,397.1L549.31,377.12L553.27,397.1L559.19,365.44L563.15,365.44L567.1,397.1L571.05,365.44L575,377.12L588.83,377.12L594.76,365.44L598.71,377.12L602.67,377.12L606.62,397.1L610.57,377.12L614.52,397.1L618.47,397.1L622.42,357.15L628.35,397.1L638.23,397.1L646.14,357.15L652.06,365.44L667.87,377.12L673.8,397.1L679.73,377.12L685.66,397.1L691.58,397.1L697.51,377.12L707.39,377.12L713.32,397.1L717.27,377.12L721.22,365.44L727.15,365.44L731.1,377.12L740.98,397.1L752.84,397.1L756.79,377.12L764.69,397.1L770.62,377.12L782.48,377.12L786.43,397.1L804.21,397.1L808.16,377.12L816.07,397.1L822,377.12L827.92,397.1L833.85,397.1L879.3,397.1L885.23,377.12L893.13,377.12L912.89,397.1L926.72,397.1L934.63,377.12L956.36,377.12L970.19,397.1L978.1,377.12L986,397.1" style="vector-effect: none; fill: none; stroke: rgb(124, 181, 236); stroke-opacity: 1; stroke-width: 2px; opacity: 1;"/></g><g class="points"/><g class="text"/></g><g class="trace scatter traceafd61c" style="stroke-miterlimit: 2; opacity: 1;"><g class="fills"/><g class="errorbars"/><g class="lines"><path class="js-line" d="M0,22.97L3.95,94.52L7.9,127.82L11.86,150.18L15.81,166.92L19.76,181.01L23.71,191.77L27.66,201.99L31.62,209.9L39.52,224.06L43.47,228.85L45.45,236.18L49.4,239.02L57.3,245.13L61.25,251.19L65.21,260.35L69.16,256.59L73.11,257.49L77.06,265.25L81.01,275.49L84.97,268.39L88.92,272.67L92.87,273.05L96.82,281.09L100.77,283.22L104.73,278.62L108.68,283.78L112.63,288.04L116.58,294.63L120.53,287.39L124.48,298.13L128.44,289.38L130.41,297.21L138.32,295.47L142.27,303.2L146.22,294.63L150.17,304.33L154.12,306.73L158.08,297.21L162.03,309.35L165.98,301.06L169.93,317.19L173.88,313.8L177.84,305.51L181.79,315.44L185.74,325.48L189.69,313.8L193.64,319.05L197.6,327.99L201.55,313.8L205.5,321.04L209.45,325.48L213.4,325.48L215.38,317.19L219.33,323.18L223.28,330.74L227.23,333.77L231.19,321.04L235.14,325.48L239.09,327.99L243.04,333.77L246.99,325.48L250.95,330.74L254.9,333.77L258.85,333.77L262.8,345.46L266.75,325.48L270.71,357.15L274.66,330.74L278.61,341.02L282.56,345.46L286.51,330.74L290.46,377.12L294.42,337.17L298.37,337.17L300.34,341.02L304.3,345.46L308.25,327.99L312.2,333.77L316.15,337.17L320.1,350.71L324.06,341.02L328.01,345.46L331.96,357.15L335.91,341.02L339.86,357.15L343.82,350.71L347.77,345.46L351.72,357.15L355.67,397.1L359.62,341.02L363.58,377.12L367.53,377.12L371.48,350.71L375.43,397.1L379.38,365.44L383.33,365.44L385.31,377.12L389.26,365.44L393.21,341.02L397.17,357.15L401.12,377.12L405.07,377.12L409.02,365.44L412.97,357.15L416.93,377.12L420.88,377.12L424.83,365.44L428.78,397.1L432.73,357.15L436.69,357.15L440.64,397.1L444.59,377.12L448.54,345.46L452.49,397.1L460.4,397.1L464.35,377.12L468.3,397.1L470.28,397.1L474.23,357.15L478.18,357.15L490.04,397.1L493.99,365.44L497.94,397.1L501.89,350.71L505.84,341.02L509.8,397.1L515.72,377.12L521.65,397.1L527.58,377.12L535.48,397.1L541.41,357.15L545.36,377.12L551.29,377.12L555.24,365.44L563.15,365.44L569.07,377.12L573.03,377.12L576.98,397.1L586.86,377.12L590.81,377.12L602.67,397.1L606.62,357.15L610.57,397.1L616.5,377.12L620.45,365.44L626.38,377.12L630.33,377.12L634.28,397.1L648.11,397.1L652.06,377.12L657.99,397.1L665.9,397.1L669.85,377.12L673.8,397.1L685.66,397.1L693.56,365.44L699.49,397.1L701.46,365.44L705.41,377.12L709.37,377.12L715.29,397.1L723.2,365.44L731.1,397.1L739.01,365.44L746.91,397.1L754.81,397.1L764.69,397.1L774.57,377.12L790.38,365.44L794.33,397.1L833.85,397.1L837.8,365.44L847.68,377.12L855.59,397.1L877.32,397.1L881.27,377.12L903.01,377.12L910.91,397.1L940.55,397.1L948.46,377.12L976.12,377.12L986,397.1" style="vector-effect: none; fill: none; stroke: rgb(67, 67, 72); stroke-opacity: 1; stroke-width: 2px; opacity: 1;"/></g><g class="points"/><g class="text"/></g><g class="trace scatter trace30c4c3" style="stroke-miterlimit: 2; opacity: 1;"><g class="fills"/><g class="errorbars"/><g class="lines"><path class="js-line" d="M0,22.48L3.95,98.33L7.9,131.37L11.86,153.72L15.81,170.3L23.71,196.77L27.66,203.52L35.57,219.05L39.52,227.38L43.47,231.49L47.42,238.31L55.33,249.94L59.28,252.31L63.23,251.93L67.18,259.12L71.13,261.37L75.09,262.16L79.04,265.85L82.99,272.28L90.89,274.65L94.85,279.58L98.8,281.61L102.75,281.61L106.7,280.58L110.65,288.7L118.56,293.82L122.51,290.78L126.46,300.05L130.41,298.13L134.36,298.13L138.32,313.8L142.27,308.01L146.22,308.01L150.17,300.05L154.12,313.8L158.08,298.13L162.03,310.76L165.98,309.35L169.93,312.24L173.88,312.24L177.84,309.35L181.79,312.24L185.74,330.74L189.69,330.74L193.64,323.18L199.57,323.18L203.52,325.48L207.47,323.18L211.43,323.18L215.38,325.48L219.33,337.17L223.28,337.17L227.23,330.74L231.19,321.04L235.14,325.48L239.09,325.48L243.04,337.17L246.99,377.12L250.95,341.02L254.9,317.19L258.85,337.17L262.8,330.74L266.75,333.77L270.71,345.46L274.66,330.74L278.61,350.71L282.56,337.17L286.51,341.02L290.46,365.44L294.42,365.44L298.37,377.12L302.32,350.71L306.27,333.77L314.18,341.02L318.13,341.02L324.06,345.46L328.01,357.15L331.96,330.74L335.91,350.71L339.86,377.12L343.82,345.46L347.77,365.44L351.72,345.46L355.67,350.71L359.62,345.46L363.58,350.71L367.53,345.46L371.48,350.71L375.43,365.44L379.38,365.44L383.33,345.46L387.29,397.1L391.24,365.44L397.17,365.44L401.12,357.15L405.07,357.15L409.02,377.12L414.95,357.15L420.88,397.1L424.83,377.12L430.76,357.15L434.71,365.44L438.66,337.17L442.61,397.1L448.54,365.44L454.47,357.15L458.42,345.46L462.37,365.44L466.32,377.12L472.25,397.1L476.2,377.12L499.92,377.12L505.84,350.71L509.8,397.1L513.75,397.1L517.7,397.1L521.65,350.71L525.6,377.12L529.56,397.1L535.48,397.1L541.41,377.12L547.34,397.1L553.27,397.1L563.15,397.1L567.1,377.12L573.03,365.44L576.98,397.1L584.88,365.44L588.83,397.1L592.79,397.1L596.74,377.12L600.69,397.1L606.62,397.1L610.57,377.12L616.5,397.1L620.45,377.12L626.38,397.1L630.33,397.1L636.26,377.12L640.21,397.1L644.16,377.12L650.09,377.12L656.02,397.1L659.97,397.1L665.9,377.12L671.82,357.15L677.75,397.1L683.68,365.44L687.63,397.1L697.51,397.1L707.39,377.12L711.34,377.12L717.27,397.1L731.1,377.12L735.05,365.44L742.96,397.1L750.86,377.12L760.74,365.44L766.67,397.1L774.57,397.1L786.43,377.12L792.36,397.1L800.26,397.1L804.21,365.44L814.09,397.1L829.9,397.1L839.78,377.12L853.61,397.1L859.54,397.1L873.37,397.1L883.25,377.12L889.18,397.1L893.13,377.12L906.96,397.1L912.89,365.44L928.7,397.1L934.63,397.1L944.51,365.44L952.41,397.1L984.02,397.1" style="vector-effect: none; fill: none; stroke: rgb(144, 237, 125); stroke-opacity: 1; stroke-width: 2px; opacity: 1;"/></g><g class="points"/><g class="text"/></g><g class="trace scatter traceca69f9" style="stroke-miterlimit: 2; opacity: 1;"><g class="fills"/><g class="errorbars"/><g class="lines"><path class="js-line" d="M0,28.74L3.95,103.02L7.9,136.65L11.86,159.08L15.81,176.32L21.74,195.48L25.69,207.76L29.64,215.3L33.59,225.22L37.54,229.97L41.49,237.4L47.42,244.11L51.37,251.93L55.33,255.51L59.28,262.97L67.18,261.37L71.13,273.45L75.09,269.75L79.04,267.73L81.01,277.69L84.97,279.1L88.92,279.1L92.87,294.63L96.82,285.53L100.77,289.38L108.68,285.53L112.63,294.63L118.56,292.26L122.51,294.63L126.46,299.07L130.41,309.35L134.36,312.24L138.32,305.51L142.27,308.01L144.24,312.24L148.2,303.2L152.15,315.44L156.1,308.01L160.05,309.35L164,321.04L167.96,313.8L171.91,308.01L175.86,327.99L177.84,333.77L181.79,317.19L185.74,313.8L189.69,319.05L193.64,319.05L197.6,327.99L201.55,325.48L205.5,337.17L209.45,333.77L211.43,325.48L215.38,377.12L219.33,337.17L223.28,333.77L227.23,323.18L231.19,337.17L235.14,333.77L239.09,341.02L241.07,341.02L245.02,341.02L248.97,327.99L252.92,333.77L256.87,333.77L260.83,330.74L264.78,357.15L272.68,345.46L274.66,350.71L278.61,337.17L282.56,341.02L286.51,341.02L290.46,333.77L294.42,350.71L298.37,341.02L306.27,350.71L308.25,377.12L312.2,350.71L316.15,345.46L320.1,377.12L324.06,345.46L328.01,357.15L331.96,357.15L335.91,365.44L337.89,341.02L341.84,397.1L345.79,357.15L349.74,377.12L353.7,357.15L357.65,365.44L361.6,377.12L365.55,377.12L369.5,365.44L371.48,350.71L375.43,365.44L379.38,357.15L383.33,365.44L387.29,377.12L391.24,357.15L395.19,350.71L399.14,365.44L407.05,365.44L411,377.12L414.95,357.15L420.88,377.12L424.83,365.44L428.78,365.44L432.73,377.12L436.69,357.15L438.66,365.44L442.61,357.15L446.57,365.44L450.52,377.12L454.47,397.1L458.42,377.12L472.25,377.12L476.2,365.44L482.13,397.1L486.08,397.1L492.01,377.12L497.94,377.12L501.89,397.1L505.84,397.1L511.77,397.1L515.72,377.12L519.68,397.1L523.63,397.1L537.46,397.1L541.41,365.44L553.27,365.44L559.19,397.1L563.15,365.44L567.1,397.1L586.86,397.1L596.74,377.12L600.69,397.1L602.67,397.1L614.52,397.1L620.45,350.71L628.35,397.1L634.28,377.12L644.16,377.12L648.11,397.1L659.97,397.1L661.94,365.44L667.87,397.1L671.82,397.1L689.61,397.1L693.56,377.12L697.51,397.1L701.46,397.1L709.37,377.12L715.29,377.12L719.25,397.1L725.17,397.1L776.55,397.1L786.43,365.44L792.36,397.1L796.31,397.1L804.21,377.12L814.09,397.1L822,365.44L833.85,397.1L976.12,397.1" style="vector-effect: none; fill: none; stroke: rgb(247, 163, 92); stroke-opacity: 1; stroke-width: 2px; opacity: 1;"/></g><g class="points"/><g class="text"/></g><g class="trace scatter trace2850b5" style="stroke-miterlimit: 2; opacity: 1;"><g class="fills"/><g class="errorbars"/><g class="lines"><path class="js-line" d="M0,20.91L3.95,95.47L7.9,128.04L9.88,140.18L13.83,159.59L21.74,188.17L23.71,193.12L31.62,212.93L35.57,218.75L41.49,229.53L45.45,236.73L53.35,244.98L55.33,250.47L59.28,250.65L63.23,257.49L67.18,261.89L71.13,258.41L73.11,264.38L77.06,263.24L81.01,274.65L84.97,277.24L86.94,290.07L90.89,277.69L94.85,284.35L98.8,283.78L102.75,293.03L104.73,288.7L108.68,295.47L112.63,294.63L116.58,300.05L118.56,294.63L122.51,300.05L126.46,299.07L130.41,300.05L134.36,303.2L136.34,300.05L140.29,302.11L144.24,313.8L148.2,310.76L150.17,306.73L154.12,309.35L158.08,305.51L162.03,317.19L165.98,313.8L167.96,317.19L171.91,330.74L175.86,330.74L179.81,333.77L183.76,317.19L185.74,317.19L189.69,323.18L193.64,325.48L197.6,350.71L203.52,333.77L207.47,337.17L211.43,330.74L215.38,357.15L217.35,323.18L221.31,337.17L225.26,330.74L229.21,337.17L231.19,345.46L235.14,341.02L239.09,365.44L243.04,327.99L246.99,350.71L248.97,330.74L252.92,341.02L256.87,357.15L262.8,325.48L266.75,350.71L270.71,357.15L274.66,357.15L278.61,350.71L280.59,345.46L288.49,345.46L292.44,377.12L294.42,350.71L298.37,397.1L302.32,345.46L306.27,337.17L310.22,350.71L312.2,377.12L316.15,337.17L320.1,377.12L324.06,397.1L326.03,397.1L329.98,350.71L333.94,377.12L337.89,365.44L341.84,365.44L343.82,345.46L347.77,377.12L351.72,397.1L355.67,397.1L357.65,357.15L361.6,365.44L367.53,365.44L371.48,357.15L375.43,377.12L377.41,377.12L381.36,341.02L385.31,377.12L389.26,345.46L391.24,365.44L397.17,350.71L401.12,377.12L405.07,377.12L409.02,397.1L411,397.1L414.95,377.12L418.9,357.15L422.85,397.1L424.83,365.44L430.76,397.1L434.71,365.44L438.66,365.44L444.59,365.44L446.57,377.12L450.52,365.44L454.47,365.44L458.42,377.12L460.4,365.44L464.35,357.15L472.25,397.1L478.18,365.44L482.13,397.1L492.01,365.44L497.94,377.12L509.8,397.1L515.72,397.1L519.68,397.1L529.56,377.12L535.48,365.44L539.43,397.1L584.88,397.1L592.79,377.12L596.74,397.1L600.69,365.44L604.64,397.1L614.52,397.1L630.33,397.1L636.26,377.12L640.21,397.1L646.14,377.12L648.11,397.1L654.04,377.12L657.99,397.1L663.92,377.12L669.85,377.12L673.8,397.1L685.66,397.1L689.61,377.12L693.56,397.1L703.44,397.1L733.08,397.1L744.93,377.12L746.91,397.1L764.69,397.1L782.48,397.1L784.45,377.12L790.38,377.12L794.33,397.1L808.16,377.12L820.02,397.1L845.71,397.1L853.61,377.12L857.56,397.1L863.49,397.1L908.94,397.1L910.91,377.12L922.77,397.1L926.72,365.44L944.51,365.44L948.46,377.12L970.19,397.1L982.05,397.1" style="vector-effect: none; fill: none; stroke: rgb(128, 133, 233); stroke-opacity: 1; stroke-width: 2px; opacity: 1;"/></g><g class="points"/><g class="text"/></g><g class="trace scatter trace9f128f" style="stroke-miterlimit: 2; opacity: 1;"><g class="fills"/><g class="errorbars"/><g class="lines"><path class="js-line" d="M0,36.76L3.95,115.08L5.93,134.8L9.88,164.43L13.83,184.83L15.81,194.85L19.76,206.19L29.64,233.69L31.62,235.75L39.52,250.29L41.49,251.01L45.45,252.31L49.4,261.37L51.37,262.7L55.33,270.81L57.3,272.28L61.25,279.58L65.21,276.35L67.18,282.13L71.13,278.62L75.09,286.76L77.06,288.7L81.01,289.38L84.97,298.13L86.94,306.73L90.89,302.11L94.85,293.03L96.82,294.63L100.77,301.06L102.75,304.33L106.7,308.01L110.65,309.35L112.63,304.33L116.58,303.2L120.53,306.73L122.51,323.18L126.46,321.04L130.41,319.05L132.39,317.19L136.34,337.17L138.32,357.15L142.27,317.19L146.22,325.48L148.2,337.17L152.15,317.19L156.1,327.99L158.08,323.18L162.03,325.48L165.98,330.74L167.96,319.05L171.91,337.17L173.88,327.99L177.84,365.44L181.79,315.44L183.76,350.71L187.72,333.77L191.67,345.46L193.64,341.02L197.6,350.71L201.55,333.77L203.52,350.71L207.47,341.02L209.45,345.46L213.4,350.71L217.35,365.44L219.33,350.71L223.28,350.71L227.23,333.77L229.21,345.46L233.16,357.15L239.09,377.12L241.07,397.1L245.02,397.1L248.97,350.71L250.95,365.44L256.87,377.12L258.85,333.77L262.8,345.46L266.75,337.17L268.73,365.44L272.68,365.44L276.63,365.44L278.61,377.12L288.49,377.12L292.44,357.15L294.42,365.44L298.37,377.12L302.32,397.1L304.3,397.1L312.2,397.1L314.18,377.12L318.13,365.44L322.08,365.44L324.06,397.1L328.01,397.1L329.98,377.12L333.94,377.12L337.89,357.15L339.86,397.1L351.72,357.15L357.65,377.12L363.58,365.44L371.48,377.12L377.41,377.12L383.33,365.44L387.29,377.12L395.19,345.46L397.17,377.12L401.12,377.12L405.07,397.1L407.05,365.44L416.93,365.44L418.9,357.15L422.85,365.44L424.83,377.12L428.78,397.1L432.73,397.1L434.71,397.1L438.66,377.12L442.61,397.1L444.59,397.1L454.47,397.1L456.44,377.12L464.35,397.1L468.3,397.1L472.25,397.1L480.16,377.12L482.13,377.12L492.01,397.1L499.92,397.1L503.87,377.12L513.75,397.1L517.7,397.1L533.51,397.1L539.43,365.44L541.41,397.1L549.31,397.1L555.24,397.1L559.19,365.44L567.1,377.12L569.07,397.1L600.69,397.1L604.64,377.12L610.57,365.44L614.52,397.1L616.5,397.1L630.33,365.44L634.28,397.1L636.26,397.1L640.21,377.12L648.11,397.1L669.85,397.1L681.7,377.12L693.56,397.1L695.54,397.1L737.03,397.1L740.98,377.12L744.93,397.1L758.77,397.1L772.6,397.1L778.53,377.12L784.45,397.1L786.43,377.12L790.38,397.1L802.24,397.1L833.85,397.1L837.8,377.12L843.73,397.1L855.59,397.1L974.14,397.1" style="vector-effect: none; fill: none; stroke: rgb(241, 92, 128); stroke-opacity: 1; stroke-width: 2px; opacity: 1;"/></g><g class="points"/><g class="text"/></g></g></g></g><g class="zerolinelayer-above"/><path class="xlines-above crisp" d="M0,0" style="fill: none;"/><path class="ylines-above crisp" d="M0,0" style="fill: none;"/><g class="overlines-above"/><g class="xaxislayer-above"><g class="xtick"><text text-anchor="middle" x="0" y="484" transform="translate(156.82,0)" style="font-family: system-ui, -apple-system, 'Segoe UI', Roboto, 'Helvetica Neue', 'Noto Sans', 'Liberation Sans', Arial, sans-serif, 'Apple Color Emoji', 'Segoe UI Emoji', 'Segoe UI Symbol', 'Noto Color Emoji'; font-size: 10px; fill: rgb(80, 80, 80); fill-opacity: 1; white-space: pre;">50</text></g><g class="xtick"><text text-anchor="middle" x="0" y="484" style="font-family: system-ui, -apple-system, 'Segoe UI', Roboto, 'Helvetica Neue', 'Noto Sans', 'Liberation Sans', Arial, sans-serif, 'Apple Color Emoji', 'Segoe UI Emoji', 'Segoe UI Symbol', 'Noto Color Emoji'; font-size: 10px; fill: rgb(80, 80, 80); fill-opacity: 1; white-space: pre;" transform="translate(255.62,0)">100</text></g><g class="xtick"><text text-anchor="middle" x="0" y="484" style="font-family: system-ui, -apple-system, 'Segoe UI', Roboto, 'Helvetica Neue', 'Noto Sans', 'Liberation Sans', Arial, sans-serif, 'Apple Color Emoji', 'Segoe UI Emoji', 'Segoe UI Symbol', 'Noto Color Emoji'; font-size: 10px; fill: rgb(80, 80, 80); fill-opacity: 1; white-space: pre;" transform="translate(354.42,0)">150</text></g><g class="xtick"><text text-anchor="middle" x="0" y="484" style="font-family: system-ui, -apple-system, 'Segoe UI', Roboto, 'Helvetica Neue', 'Noto Sans', 'Liberation Sans', Arial, sans-serif, 'Apple Color Emoji', 'Segoe UI Emoji', 'Segoe UI Symbol', 'Noto Color Emoji'; font-size: 10px; fill: rgb(80, 80, 80); fill-opacity: 1; white-space: pre;" transform="translate(453.21,0)">200</text></g><g class="xtick"><text text-anchor="middle" x="0" y="484" style="font-family: system-ui, -apple-system, 'Segoe UI', Roboto, 'Helvetica Neue', 'Noto Sans', 'Liberation Sans', Arial, sans-serif, 'Apple Color Emoji', 'Segoe UI Emoji', 'Segoe UI Symbol', 'Noto Color Emoji'; font-size: 10px; fill: rgb(80, 80, 80); fill-opacity: 1; white-space: pre;" transform="translate(552.01,0)">250</text></g><g class="xtick"><text text-anchor="middle" x="0" y="484" style="font-family: system-ui, -apple-system, 'Segoe UI', Roboto, 'Helvetica Neue', 'Noto Sans', 'Liberation Sans', Arial, sans-serif, 'Apple Color Emoji', 'Segoe UI Emoji', 'Segoe UI Symbol', 'Noto Color Emoji'; font-size: 10px; fill: rgb(80, 80, 80); fill-opacity: 1; white-space: pre;" transform="translate(650.81,0)">300</text></g><g class="xtick"><text text-anchor="middle" x="0" y="484" style="font-family: system-ui, -apple-system, 'Segoe UI', Roboto, 'Helvetica Neue', 'Noto Sans', 'Liberation Sans', Arial, sans-serif, 'Apple Color Emoji', 'Segoe UI Emoji', 'Segoe UI Symbol', 'Noto Color Emoji'; font-size: 10px; fill: rgb(80, 80, 80); fill-opacity: 1; white-space: pre;" transform="translate(749.61,0)">350</text></g><g class="xtick"><text text-anchor="middle" x="0" y="484" style="font-family: system-ui, -apple-system, 'Segoe UI', Roboto, 'Helvetica Neue', 'Noto Sans', 'Liberation Sans', Arial, sans-serif, 'Apple Color Emoji', 'Segoe UI Emoji', 'Segoe UI Symbol', 'Noto Color Emoji'; font-size: 10px; fill: rgb(80, 80, 80); fill-opacity: 1; white-space: pre;" transform="translate(848.4,0)">400</text></g><g class="xtick"><text text-anchor="middle" x="0" y="484" style="font-family: system-ui, -apple-system, 'Segoe UI', Roboto, 'Helvetica Neue', 'Noto Sans', 'Liberation Sans', Arial, sans-serif, 'Apple Color Emoji', 'Segoe UI Emoji', 'Segoe UI Symbol', 'Noto Color Emoji'; font-size: 10px; fill: rgb(80, 80, 80); fill-opacity: 1; white-space: pre;" transform="translate(947.2,0)">450</text></g><g class="xtick"><text text-anchor="middle" x="0" y="484" style="font-family: system-ui, -apple-system, 'Segoe UI', Roboto, 'Helvetica Neue', 'Noto Sans', 'Liberation Sans', Arial, sans-serif, 'Apple Color Emoji', 'Segoe UI Emoji', 'Segoe UI Symbol', 'Noto Color Emoji'; font-size: 10px; fill: rgb(80, 80, 80); fill-opacity: 1; white-space: pre;" transform="translate(1046,0)">500</text></g></g><g class="yaxislayer-above"><g class="ytick"><text text-anchor="end" x="54" y="2.625" transform="translate(0,467.08)" style="font-family: system-ui, -apple-system, 'Segoe UI', Roboto, 'Helvetica Neue', 'Noto Sans', 'Liberation Sans', Arial, sans-serif, 'Apple Color Emoji', 'Segoe UI Emoji', 'Segoe UI Symbol', 'Noto Color Emoji'; font-size: 7.5px; fill: rgb(80, 80, 80); fill-opacity: 1; white-space: pre;">5</text></g><g class="ytick"><text text-anchor="end" x="54" y="3.5" style="font-family: system-ui, -apple-system, 'Segoe UI', Roboto, 'Helvetica Neue', 'Noto Sans', 'Liberation Sans', Arial, sans-serif, 'Apple Color Emoji', 'Segoe UI Emoji', 'Segoe UI Symbol', 'Noto Color Emoji'; font-size: 10px; fill: rgb(80, 80, 80); fill-opacity: 1; white-space: pre;" transform="translate(0,447.1)">1</text></g><g class="ytick"><text text-anchor="end" x="54" y="2.625" style="font-family: system-ui, -apple-system, 'Segoe UI', Roboto, 'Helvetica Neue', 'Noto Sans', 'Liberation Sans', Arial, sans-serif, 'Apple Color Emoji', 'Segoe UI Emoji', 'Segoe UI Symbol', 'Noto Color Emoji'; font-size: 7.5px; fill: rgb(80, 80, 80); fill-opacity: 1; white-space: pre;" transform="translate(0,427.12)">2</text></g><g class="ytick"><text text-anchor="end" x="54" y="2.625" style="font-family: system-ui, -apple-system, 'Segoe UI', Roboto, 'Helvetica Neue', 'Noto Sans', 'Liberation Sans', Arial, sans-serif, 'Apple Color Emoji', 'Segoe UI Emoji', 'Segoe UI Symbol', 'Noto Color Emoji'; font-size: 7.5px; fill: rgb(80, 80, 80); fill-opacity: 1; white-space: pre;" transform="translate(0,400.71)">5</text></g><g class="ytick"><text text-anchor="end" x="54" y="3.5" style="font-family: system-ui, -apple-system, 'Segoe UI', Roboto, 'Helvetica Neue', 'Noto Sans', 'Liberation Sans', Arial, sans-serif, 'Apple Color Emoji', 'Segoe UI Emoji', 'Segoe UI Symbol', 'Noto Color Emoji'; font-size: 10px; fill: rgb(80, 80, 80); fill-opacity: 1; white-space: pre;" transform="translate(0,380.74)">10</text></g><g class="ytick"><text text-anchor="end" x="54" y="2.625" style="font-family: system-ui, -apple-system, 'Segoe UI', Roboto, 'Helvetica Neue', 'Noto Sans', 'Liberation Sans', Arial, sans-serif, 'Apple Color Emoji', 'Segoe UI Emoji', 'Segoe UI Symbol', 'Noto Color Emoji'; font-size: 7.5px; fill: rgb(80, 80, 80); fill-opacity: 1; white-space: pre;" transform="translate(0,360.76)">2</text></g><g class="ytick"><text text-anchor="end" x="54" y="2.625" style="font-family: system-ui, -apple-system, 'Segoe UI', Roboto, 'Helvetica Neue', 'Noto Sans', 'Liberation Sans', Arial, sans-serif, 'Apple Color Emoji', 'Segoe UI Emoji', 'Segoe UI Symbol', 'Noto Color Emoji'; font-size: 7.5px; fill: rgb(80, 80, 80); fill-opacity: 1; white-space: pre;" transform="translate(0,334.35)">5</text></g><g class="ytick"><text text-anchor="end" x="54" y="3.5" style="font-family: system-ui, -apple-system, 'Segoe UI', Roboto, 'Helvetica Neue', 'Noto Sans', 'Liberation Sans', Arial, sans-serif, 'Apple Color Emoji', 'Segoe UI Emoji', 'Segoe UI Symbol', 'Noto Color Emoji'; font-size: 10px; fill: rgb(80, 80, 80); fill-opacity: 1; white-space: pre;" transform="translate(0,314.38)">100</text></g><g class="ytick"><text text-anchor="end" x="54" y="2.625" style="font-family: system-ui, -apple-system, 'Segoe UI', Roboto, 'Helvetica Neue', 'Noto Sans', 'Liberation Sans', Arial, sans-serif, 'Apple Color Emoji', 'Segoe UI Emoji', 'Segoe UI Symbol', 'Noto Color Emoji'; font-size: 7.5px; fill: rgb(80, 80, 80); fill-opacity: 1; white-space: pre;" transform="translate(0,294.4)">2</text></g><g class="ytick"><text text-anchor="end" x="54" y="2.625" style="font-family: system-ui, -apple-system, 'Segoe UI', Roboto, 'Helvetica Neue', 'Noto Sans', 'Liberation Sans', Arial, sans-serif, 'Apple Color Emoji', 'Segoe UI Emoji', 'Segoe UI Symbol', 'Noto Color Emoji'; font-size: 7.5px; fill: rgb(80, 80, 80); fill-opacity: 1; white-space: pre;" transform="translate(0,267.99)">5</text></g><g class="ytick"><text text-anchor="end" x="54" y="3.5" style="font-family: system-ui, -apple-system, 'Segoe UI', Roboto, 'Helvetica Neue', 'Noto Sans', 'Liberation Sans', Arial, sans-serif, 'Apple Color Emoji', 'Segoe UI Emoji', 'Segoe UI Symbol', 'Noto Color Emoji'; font-size: 10px; fill: rgb(80, 80, 80); fill-opacity: 1; white-space: pre;" transform="translate(0,248.01)">1000</text></g><g class="ytick"><text text-anchor="end" x="54" y="2.625" style="font-family: system-ui, -apple-system, 'Segoe UI', Roboto, 'Helvetica Neue', 'Noto Sans', 'Liberation Sans', Arial, sans-serif, 'Apple Color Emoji', 'Segoe UI Emoji', 'Segoe UI Symbol', 'Noto Color Emoji'; font-size: 7.5px; fill: rgb(80, 80, 80); fill-opacity: 1; white-space: pre;" transform="translate(0,228.04)">2</text></g><g class="ytick"><text text-anchor="end" x="54" y="2.625" style="font-family: system-ui, -apple-system, 'Segoe UI', Roboto, 'Helvetica Neue', 'Noto Sans', 'Liberation Sans', Arial, sans-serif, 'Apple Color Emoji', 'Segoe UI Emoji', 'Segoe UI Symbol', 'Noto Color Emoji'; font-size: 7.5px; fill: rgb(80, 80, 80); fill-opacity: 1; white-space: pre;" transform="translate(0,201.63)">5</text></g><g class="ytick"><text text-anchor="end" x="54" y="3.5" style="font-family: system-ui, -apple-system, 'Segoe UI', Roboto, 'Helvetica Neue', 'Noto Sans', 'Liberation Sans', Arial, sans-serif, 'Apple Color Emoji', 'Segoe UI Emoji', 'Segoe UI Symbol', 'Noto Color Emoji'; font-size: 10px; fill: rgb(80, 80, 80); fill-opacity: 1; white-space: pre;" transform="translate(0,181.65)">10k</text></g><g class="ytick"><text text-anchor="end" x="54" y="2.625" style="font-family: system-ui, -apple-system, 'Segoe UI', Roboto, 'Helvetica Neue', 'Noto Sans', 'Liberation Sans', Arial, sans-serif, 'Apple Color Emoji', 'Segoe UI Emoji', 'Segoe UI Symbol', 'Noto Color Emoji'; font-size: 7.5px; fill: rgb(80, 80, 80); fill-opacity: 1; white-space: pre;" transform="translate(0,161.67000000000002)">2</text></g><g class="ytick"><text text-anchor="end" x="54" y="2.625" style="font-family: system-ui, -apple-system, 'Segoe UI', Roboto, 'Helvetica Neue', 'Noto Sans', 'Liberation Sans', Arial, sans-serif, 'Apple Color Emoji', 'Segoe UI Emoji', 'Segoe UI Symbol', 'Noto Color Emoji'; font-size: 7.5px; fill: rgb(80, 80, 80); fill-opacity: 1; white-space: pre;" transform="translate(0,135.26999999999998)">5</text></g><g class="ytick"><text text-anchor="end" x="54" y="3.5" style="font-family: system-ui, -apple-system, 'Segoe UI', Roboto, 'Helvetica Neue', 'Noto Sans', 'Liberation Sans', Arial, sans-serif, 'Apple Color Emoji', 'Segoe UI Emoji', 'Segoe UI Symbol', 'Noto Color Emoji'; font-size: 10px; fill: rgb(80, 80, 80); fill-opacity: 1; white-space: pre;" transform="translate(0,115.29)">100k</text></g><g class="ytick"><text text-anchor="end" x="54" y="2.625" style="font-family: system-ui, -apple-system, 'Segoe UI', Roboto, 'Helvetica Neue', 'Noto Sans', 'Liberation Sans', Arial, sans-serif, 'Apple Color Emoji', 'Segoe UI Emoji', 'Segoe UI Symbol', 'Noto Color Emoji'; font-size: 7.5px; fill: rgb(80, 80, 80); fill-opacity: 1; white-space: pre;" transform="translate(0,95.31)">2</text></g><g class="ytick"><text text-anchor="end" x="54" y="2.625" style="font-family: system-ui, -apple-system, 'Segoe UI', Roboto, 'Helvetica Neue', 'Noto Sans', 'Liberation Sans', Arial, sans-serif, 'Apple Color Emoji', 'Segoe UI Emoji', 'Segoe UI Symbol', 'Noto Color Emoji'; font-size: 7.5px; fill: rgb(80, 80, 80); fill-opacity: 1; white-space: pre;" transform="translate(0,68.9)">5</text></g></g><g class="overaxes-above"/></g></g><g class="polarlayer"/><g class="smithlayer"/><g class="ternarylayer"/><g class="geolayer"/><g class="funnelarealayer"/><g class="pielayer"/><g class="iciclelayer"/><g class="treemaplayer"/><g class="sunburstlayer"/><g class="glimages"/><defs id="topdefs-bbd201"><g class="clips"/></defs><g class="layer-above"><g class="imagelayer"/><g class="shapelayer"/></g><g class="infolayer"><g class="g-gtitle"><text class="gtitle" x="533.3333333333334" y="25" text-anchor="middle" dy="0em" style="opacity: 1; font-family: system-ui, -apple-system, 'Segoe UI', Roboto, 'Helvetica Neue', 'Noto Sans', 'Liberation Sans', Arial, sans-serif, 'Apple Color Emoji', 'Segoe UI Emoji', 'Segoe UI Symbol', 'Noto Color Emoji'; font-size: 20px; fill: rgb(60, 60, 60); fill-opacity: 1; white-space: pre;"><tspan class="line" dy="0em" x="533.3333333333334" y="25">RSeQC: Read Duplication</tspan><tspan class="line" dy="1.3em" x="533.3333333333334" y="25">​<tspan style="font-size:70%" dy="-0.6em">6 lines</tspan><tspan dy="0.42em">​</tspan></tspan></text></g><g class="g-xtitle"><text class="xtitle" x="553" y="520" text-anchor="middle" style="opacity: 1; font-family: system-ui, -apple-system, 'Segoe UI', Roboto, 'Helvetica Neue', 'Noto Sans', 'Liberation Sans', Arial, sans-serif, 'Apple Color Emoji', 'Segoe UI Emoji', 'Segoe UI Symbol', 'Noto Color Emoji'; font-size: 14px; fill: rgb(100, 100, 100); fill-opacity: 1; white-space: pre;">Occurrence of read</text></g><g class="g-ytitle"><text class="ytitle" transform="rotate(-90,22,259)" x="22" y="259" text-anchor="middle" style="opacity: 1; font-family: system-ui, -apple-system, 'Segoe UI', Roboto, 'Helvetica Neue', 'Noto Sans', 'Liberation Sans', Arial, sans-serif, 'Apple Color Emoji', 'Segoe UI Emoji', 'Segoe UI Symbol', 'Noto Color Emoji'; font-size: 14px; fill: rgb(100, 100, 100); fill-opacity: 1; white-space: pre;">Number of Reads (log10)</text></g></g></svg>
