<svg class="main-svg" xmlns="http://www.w3.org/2000/svg" xmlns:xlink="http://www.w3.org/1999/xlink" width="2200" height="1000" style="" viewBox="0 0 1100 500"><rect x="0" y="0" width="1100" height="500" style="fill: rgb(255, 255, 255); fill-opacity: 1;"/><defs id="defs-ed77e9"><g class="clips"><clipPath id="cliped77e9xyplot" class="plotclip"><rect width="1025" height="385"/></clipPath><clipPath class="axesclip" id="cliped77e9x"><rect x="60" y="0" width="1025" height="500"/></clipPath><clipPath class="axesclip" id="cliped77e9y"><rect x="0" y="50" width="1100" height="385"/></clipPath><clipPath class="axesclip" id="cliped77e9xy"><rect x="60" y="50" width="1025" height="385"/></clipPath></g><g class="gradients"/><g class="patterns"/></defs><g class="bglayer"/><g class="layer-below"><g class="imagelayer"/><g class="shapelayer"/></g><g class="cartesianlayer"><g class="subplot xy"><g class="layer-subplot"><g class="shapelayer"/><g class="imagelayer"/></g><g class="minor-gridlayer"><g class="x"/><g class="y"/></g><g class="gridlayer"><g class="x"><path class="xgrid crisp" transform="translate(265,0)" d="M0,50v385" style="stroke: rgb(128, 128, 128); stroke-opacity: 0.15; stroke-width: 1px;"/><path class="xgrid crisp" transform="translate(470,0)" d="M0,50v385" style="stroke: rgb(128, 128, 128); stroke-opacity: 0.15; stroke-width: 1px;"/><path class="xgrid crisp" transform="translate(675,0)" d="M0,50v385" style="stroke: rgb(128, 128, 128); stroke-opacity: 0.15; stroke-width: 1px;"/><path class="xgrid crisp" transform="translate(880,0)" d="M0,50v385" style="stroke: rgb(128, 128, 128); stroke-opacity: 0.15; stroke-width: 1px;"/></g><g class="y"><path class="ygrid crisp" transform="translate(0,377.13)" d="M60,0h1025" style="stroke: rgb(128, 128, 128); stroke-opacity: 0.15; stroke-width: 1px;"/><path class="ygrid crisp" transform="translate(0,319.26)" d="M60,0h1025" style="stroke: rgb(128, 128, 128); stroke-opacity: 0.15; stroke-width: 1px;"/><path class="ygrid crisp" transform="translate(0,261.39)" d="M60,0h1025" style="stroke: rgb(128, 128, 128); stroke-opacity: 0.15; stroke-width: 1px;"/><path class="ygrid crisp" transform="translate(0,203.52)" d="M60,0h1025" style="stroke: rgb(128, 128, 128); stroke-opacity: 0.15; stroke-width: 1px;"/><path class="ygrid crisp" transform="translate(0,145.65)" d="M60,0h1025" style="stroke: rgb(128, 128, 128); stroke-opacity: 0.15; stroke-width: 1px;"/><path class="ygrid crisp" transform="translate(0,87.78)" d="M60,0h1025" style="stroke: rgb(128, 128, 128); stroke-opacity: 0.15; stroke-width: 1px;"/></g></g><g class="zerolinelayer"><path class="xzl zl crisp" transform="translate(60,0)" d="M0,50v385" style="stroke: rgb(128, 128, 128); stroke-opacity: 0.2; stroke-width: 1px;"/><path class="yzl zl crisp" transform="translate(0,435)" d="M60,0h1025" style="stroke: rgb(128, 128, 128); stroke-opacity: 0.2; stroke-width: 1px;"/></g><g class="layer-between"><g class="shapelayer"/><g class="imagelayer"/></g><path class="xlines-below"/><path class="ylines-below"/><g class="overlines-below"/><g class="xaxislayer-below"/><g class="yaxislayer-below"/><g class="overaxes-below"/><g class="overplot"><g class="xy" transform="translate(60,50)" clip-path="url(#cliped77e9xyplot)"><g class="scatterlayer mlayer"><g class="trace scatter trace5025c6" style="stroke-miterlimit: 2; opacity: 1;"><g class="fills"/><g class="errorbars"/><g class="lines"><path class="js-line" d="M0,385L65.6,384.72L67.65,384.07L73.8,381.75L75.85,379.78L79.95,373.71L82,369.99L86.1,355.94L88.15,351.58L92.25,333.03L94.3,317.04L98.4,285.85L100.45,272.29L106.6,202.24L108.65,191.52L116.85,114.75L118.9,98.71L120.95,83.32L123,87.33L125.05,86.17L127.1,69.13L129.15,54.73L131.2,57.17L133.25,66.88L135.3,61.93L137.35,60.79L139.4,61.79L141.45,77.47L143.5,85.13L145.55,86.63L147.6,91.94L149.65,106.56L151.7,109.67L153.75,116.14L155.8,130.96L157.85,132.9L159.9,139.2L161.95,149.63L164,149.79L166.05,165.89L168.1,173.62L170.15,174.82L172.2,180.17L174.25,191.91L176.3,197.45L178.35,207.05L180.4,212.38L182.45,213.45L184.5,226.68L186.55,241.4L188.6,250.54L190.65,249.78L192.7,252.43L196.8,264.95L198.85,264.62L200.9,268.78L202.95,277.59L205,284.28L207.05,287.35L211.15,295.78L213.2,298.24L219.35,310.31L221.4,308.82L223.45,315.07L225.5,318.39L227.55,316.38L229.6,321.53L231.65,323.2L233.7,326.89L235.75,332.44L237.8,333.08L241.9,340.55L243.95,340.71L246,341.75L248.05,345.73L250.1,348.46L252.15,347.47L254.2,347.98L257.27,353.03L259.33,352.36L261.38,355.21L265.47,358.42L267.52,357.9L269.58,357.94L271.63,359.68L273.67,360.4L275.72,359.26L279.83,363.45L281.88,364.22L283.92,366.33L285.97,366.48L290.08,366.07L292.13,368.09L296.22,370.21L298.27,369.03L308.52,374.02L310.58,372.05L312.63,371.33L314.67,373.74L316.72,374L318.77,375.14L320.83,375.85L322.88,374.79L326.97,376.59L329.03,376.95L331.08,378.05L333.12,376.85L335.17,375.77L337.23,376.63L341.33,378.4L343.37,378.23L347.48,379.1L349.53,378.69L353.62,379.59L355.67,379.58L359.78,380.28L361.83,379.34L363.87,379.38L365.92,380.51L370.03,381.42L372.08,380.97L374.12,381.62L376.17,381.43L380.28,381.66L382.33,381.26L384.37,382.2L386.42,382.2L388.48,382.65L390.53,382.32L392.58,381.88L394.62,382.57L404.87,383.48L406.92,382.81L413.08,383.41L415.12,383.02L425.37,383.57L427.42,384.23L439.73,383.84L441.78,384.06L447.92,384.43L449.98,384.02L462.28,384.4L464.32,384.35L474.57,384.05L476.62,384.35L523.78,384.84L525.82,384.87L538.13,384.89L540.17,384.89L564.78,384.78L566.82,384.77L585.28,384.85L587.32,384.68L599.63,384.93L601.67,384.99L1025,384.9" style="vector-effect: none; fill: none; stroke: rgb(124, 181, 236); stroke-opacity: 1; stroke-width: 2px; opacity: 1;"/></g><g class="points"/><g class="text"/></g><g class="trace scatter traced0fa11" style="stroke-miterlimit: 2; opacity: 1;"><g class="fills"/><g class="errorbars"/><g class="lines"><path class="js-line" d="M0,385L65.6,384.5L67.65,383.7L71.75,382.88L73.8,381.5L79.95,373.33L82,370.66L84.05,366.31L86.1,360.17L90.2,348.74L92.25,339.76L96.35,311.51L98.4,302.96L100.45,292.31L102.5,275.8L106.6,226.37L108.65,212.61L112.75,183.7L114.8,157L116.85,131.74L118.9,115.85L120.95,108.3L123,110.6L125.05,103.55L127.1,72.68L129.15,39.76L131.2,56.2L133.25,76.23L135.3,69.68L137.35,61.76L139.4,57.44L141.45,68.64L143.5,86.43L145.55,77.96L147.6,79.11L151.7,90.77L153.75,104.02L155.8,124.98L157.85,116.41L159.9,110.51L161.95,130.37L164,136.23L166.05,151.94L168.1,157.72L170.15,152.31L172.2,154.27L174.25,180.62L176.3,195.53L178.35,198.35L182.45,206.4L184.5,220.22L188.6,237.62L190.65,236.71L192.7,245.06L194.75,249.25L196.8,257.47L198.85,258.02L200.9,264.37L202.95,267.59L205,274.48L207.05,286.02L209.1,289.97L211.15,288.19L213.2,292.24L215.25,289.52L219.35,307.44L221.4,308.42L223.45,309.9L225.5,313.12L227.55,316.3L229.6,323.9L231.65,328.77L233.7,330.22L235.75,332L237.8,332.73L239.85,337.8L241.9,335.39L243.95,336.12L246,339.36L248.05,342.16L250.1,349.26L257.27,351.41L259.33,353.82L261.38,355.87L263.42,356.15L265.47,356.17L267.52,357.28L271.63,361.48L273.67,361.91L275.72,362.21L277.77,363.69L279.83,363.71L281.88,364.6L283.92,366.75L285.97,366.32L288.02,365.55L290.08,367.88L294.17,371.23L296.22,371.07L298.27,369.55L300.33,369.62L306.47,372.7L308.52,373.13L310.58,374.28L312.63,374.47L314.67,375.93L316.72,376.22L326.97,376.96L329.03,378.02L331.08,378.12L333.12,377.06L337.23,379.15L339.28,379.34L343.37,379.17L345.42,379.87L347.48,379.89L349.53,379.1L353.62,379.58L355.67,380.08L361.83,381.31L363.87,381.11L378.23,382.05L380.28,382.64L384.37,382.68L386.42,383.16L400.78,382.77L402.83,383.14L404.87,382.82L406.92,383.53L411.03,383.57L413.08,383.33L419.23,383.9L421.28,383.81L425.37,383.94L427.42,383.74L431.53,383.99L433.58,384.19L439.73,384.49L441.78,384.75L449.98,384.39L452.03,384.55L460.23,384.41L462.28,384.64L474.57,384.35L476.62,384.53L486.87,384.81L488.92,384.7L513.53,384.92L515.57,384.85L681.62,385L683.68,384.99L838.45,385L840.5,385L1025,385" style="vector-effect: none; fill: none; stroke: rgb(67, 67, 72); stroke-opacity: 1; stroke-width: 2px; opacity: 1;"/></g><g class="points"/><g class="text"/></g><g class="trace scatter trace0fee9b" style="stroke-miterlimit: 2; opacity: 1;"><g class="fills"/><g class="errorbars"/><g class="lines"><path class="js-line" d="M0,385L65.6,384.72L67.65,383.83L71.75,383.14L73.8,381.54L75.85,380.03L77.9,377.08L82,371.76L84.05,368.1L90.2,347.7L92.25,338.28L98.4,296.51L100.45,281.69L106.6,219.93L108.65,194.19L112.75,160.91L114.8,146.09L118.9,102.97L120.95,89.58L125.05,104.56L127.1,88.54L129.15,60.23L131.2,67.75L133.25,87.45L135.3,87.89L137.35,91.76L139.4,86.89L141.45,95.01L143.5,110.26L145.55,107.32L147.6,109.33L149.65,120.86L151.7,119.99L155.8,153.02L157.85,155.66L159.9,149.94L161.95,157.46L164,166.31L166.05,179.26L168.1,179.67L170.15,178.64L172.2,176.95L174.25,191.01L176.3,202.34L178.35,206.47L180.4,214.35L182.45,217.61L186.55,233.93L188.6,241.84L192.7,246.19L194.75,246.99L196.8,254.97L198.85,258.74L200.9,265.45L202.95,267.07L205,272.83L207.05,275.1L211.15,282.01L213.2,286.83L215.25,292.59L217.3,295.81L219.35,301.07L221.4,295.22L223.45,298L225.5,303.61L227.55,308.5L229.6,315.77L231.65,315.26L233.7,320.7L235.75,327L237.8,326.58L241.9,334.12L243.95,335.71L246,336.37L248.05,335.3L250.1,337.94L252.15,342.1L257.27,344.82L259.33,345.4L263.42,351.5L265.47,350.9L267.52,350.97L269.58,351.83L271.63,352.34L273.67,355.03L275.72,357.59L277.77,357.75L279.83,357.96L281.88,357.35L283.92,357.97L285.97,360.84L290.08,361.55L292.13,361.8L294.17,364.15L296.22,364.96L298.27,365.66L300.33,364.34L304.42,366.15L306.47,367.96L308.52,369.46L310.58,367.57L314.67,369.57L316.72,372.28L318.77,372.45L320.83,371.66L322.88,371.54L324.92,372.98L326.97,372.28L329.03,372.59L331.08,374.83L333.12,373.26L335.17,373.66L337.23,375.64L339.28,375.62L341.33,376.72L347.48,377.35L349.53,378.17L353.62,378.03L355.67,378.6L357.73,378.16L359.78,378.89L361.83,379.61L363.87,378.88L365.92,378.9L367.98,380.03L380.28,380.01L382.33,380.67L388.48,380.71L390.53,381.48L394.62,381.81L396.67,381.42L404.87,382.47L406.92,381.76L413.08,382.74L415.12,382.43L419.23,383.05L421.28,382.61L425.37,382.82L427.42,382.94L439.73,383.59L441.78,383.83L447.92,383.83L449.98,383.91L464.32,384.05L466.37,384.45L474.57,384.09L476.62,384.34L480.73,384.19L482.78,384.62L486.87,384.36L488.92,384.79L497.12,384.71L499.17,384.35L536.07,384.72L538.13,384.63L554.53,384.88L556.57,384.87L589.38,384.92L591.42,384.99L607.82,384.93L609.88,384.98L726.72,385L728.78,385L1025,384.99" style="vector-effect: none; fill: none; stroke: rgb(144, 237, 125); stroke-opacity: 1; stroke-width: 2px; opacity: 1;"/></g><g class="points"/><g class="text"/></g><g class="trace scatter trace978eac" style="stroke-miterlimit: 2; opacity: 1;"><g class="fills"/><g class="errorbars"/><g class="lines"><path class="js-line" d="M0,385L71.75,384.5L73.8,384.1L77.9,382.38L79.95,383.3L84.05,382.7L86.1,381.51L88.15,381.23L90.2,381.77L94.3,379.96L96.35,377.73L100.45,375.81L102.5,372.85L104.55,368.18L106.6,360.43L110.7,354.85L112.75,350.64L116.85,326.7L118.9,316.05L123,298.34L125.05,284.5L129.15,228.08L131.2,222.5L133.25,220.45L135.3,208.42L139.4,159.89L141.45,153.14L143.5,159.45L145.55,149.61L147.6,119.87L149.65,106.13L151.7,98.08L153.75,103.37L155.8,114.91L157.85,101.87L159.9,82.91L161.95,78.05L164,82.33L166.05,96.94L168.1,94.34L170.15,84.44L172.2,79.88L174.25,98.57L176.3,115.76L178.35,124.64L180.4,123.16L182.45,117.66L184.5,134.43L186.55,143.13L188.6,150.94L190.65,151.65L192.7,147.53L194.75,159.7L196.8,174.65L198.85,177.94L200.9,171.35L202.95,172.7L207.05,203.76L209.1,210.93L211.15,216.4L213.2,217.16L215.25,217.52L217.3,232.03L219.35,244.44L221.4,247.75L223.45,248.41L225.5,259.01L227.55,262.32L229.6,270.23L231.65,274.02L233.7,280.98L235.75,288.02L237.8,289.27L243.95,305.24L246,306.13L248.05,307.42L250.1,315.8L252.15,322.54L254.2,324.96L257.27,323.35L259.33,325.23L263.42,331.83L265.47,334.91L267.52,339.25L269.58,336.06L273.67,342.41L275.72,343.68L277.77,346.22L279.83,346.83L281.88,351.08L283.92,350.14L285.97,351L288.02,353.34L292.13,356.52L294.17,356.08L296.22,355.39L298.27,357.03L300.33,357.68L302.38,357.42L306.47,362.96L308.52,363.48L312.63,364.41L314.67,366.09L316.72,365.53L318.77,367.14L326.97,370.32L329.03,370.28L331.08,372.51L333.12,372.51L335.17,371.42L337.23,371.32L341.33,374.5L343.37,373.72L347.48,374.2L349.53,374.7L351.58,373.99L353.62,375.84L355.67,376.88L357.73,375.28L359.78,375.15L361.83,376.81L365.92,376.95L367.98,378.49L374.12,378.44L376.17,379.26L386.42,381.01L388.48,380.21L392.58,380.25L394.62,381.58L396.67,380.98L398.73,381.34L400.78,382.44L402.83,381.85L406.92,382.4L408.98,382.15L415.12,382.63L417.17,382.67L431.53,383.48L433.58,383.08L454.08,383.59L456.12,384.23L460.23,383.62L462.28,383.96L480.73,384.24L482.78,384.25L536.07,384.9L538.13,384.52L552.47,384.92L554.53,384.92L587.32,384.99L589.38,385L630.38,384.97L632.42,385L1025,385" style="vector-effect: none; fill: none; stroke: rgb(247, 163, 92); stroke-opacity: 1; stroke-width: 2px; opacity: 1;"/></g><g class="points"/><g class="text"/></g><g class="trace scatter trace7e030f" style="stroke-miterlimit: 2; opacity: 1;"><g class="fills"/><g class="errorbars"/><g class="lines"><path class="js-line" d="M0,385L65.6,384.62L67.65,384.16L75.85,382L77.9,379.91L82,376.26L84.05,372.54L86.1,367.55L88.15,365.22L90.2,360.91L92.25,354L100.45,311.15L102.5,294.24L106.6,253.14L108.65,241.38L118.9,140.32L120.95,137L123,132.73L125.05,122.59L129.15,57.64L131.2,57.37L133.25,67.89L135.3,64.27L137.35,65.85L139.4,64.33L141.45,67.02L143.5,75.41L145.55,71.08L147.6,84.42L149.65,86.39L151.7,83.19L155.8,113.98L157.85,112.86L159.9,104.65L161.95,121.05L164,124.56L166.05,143.64L168.1,156.73L170.15,142.22L172.2,132.52L174.25,156.95L178.35,178.28L180.4,184.88L184.5,200.45L186.55,214.66L188.6,223.56L190.65,224.04L192.7,224.59L194.75,234.77L196.8,245.23L198.85,245.18L200.9,247.39L202.95,252.73L207.05,272.35L209.1,272.59L211.15,281.64L213.2,285.74L215.25,284.3L217.3,290.4L219.35,296.56L221.4,295.13L223.45,300.94L225.5,310.72L229.6,320.38L231.65,321.14L233.7,324.48L235.75,330.12L237.8,331.12L239.85,334.94L246,340.62L248.05,339.24L252.15,345.3L254.2,348.64L257.27,351.86L259.33,351.74L261.38,352.46L263.42,354.86L267.52,359.3L269.58,359.93L271.63,359.52L273.67,362.51L275.72,362.98L277.77,364.3L285.97,365.63L288.02,367.01L290.08,367.13L292.13,369.41L302.38,372.86L304.42,372.85L306.47,373.76L308.52,373.8L310.58,373.39L312.63,375.03L316.72,373.68L318.77,375.07L320.83,376.96L322.88,377.03L324.92,377.96L326.97,377.26L333.12,379.01L335.17,379.14L341.33,379.91L343.37,379.42L347.48,380.27L349.53,380.61L353.62,379.52L355.67,380.68L359.78,381.24L361.83,381.56L370.03,381.35L372.08,382.51L376.17,382.07L378.23,382.83L408.98,383.83L411.03,383.43L435.62,384.47L437.67,384.22L515.57,384.95L517.63,385L556.57,384.95L558.63,384.97L609.88,385L611.92,385L1025,385" style="vector-effect: none; fill: none; stroke: rgb(128, 133, 233); stroke-opacity: 1; stroke-width: 2px; opacity: 1;"/></g><g class="points"/><g class="text"/></g><g class="trace scatter trace8ca3c9" style="stroke-miterlimit: 2; opacity: 1;"><g class="fills"/><g class="errorbars"/><g class="lines"><path class="js-line" d="M0,385L55.35,384.82L57.4,384.2L65.6,383.66L67.65,381.95L73.8,377.42L75.85,371.99L82,347.06L84.05,337.06L86.1,325.73L88.15,307.93L92.25,281.12L94.3,256.98L98.4,213.83L100.45,196.14L106.6,113.54L108.65,102.44L112.75,59.3L114.8,59.72L116.85,43.15L118.9,33.39L120.95,30.47L123,39.85L125.05,48.73L127.1,25.36L129.15,19.25L131.2,30.03L133.25,54.19L135.3,63.8L137.35,68.44L139.4,76.27L143.5,107.9L145.55,102.84L147.6,114.43L149.65,121.66L151.7,130.29L153.75,149.33L155.8,158.68L157.85,159.81L159.9,162.16L161.95,172.42L164,174.21L166.05,194.16L168.1,204.49L170.15,201.19L172.2,201.06L174.25,224.47L180.4,243.32L182.45,245.49L184.5,253.57L186.55,268.01L188.6,277L190.65,276.11L192.7,278.18L194.75,281.88L198.85,293.76L200.9,292.08L202.95,295.93L205,304.03L207.05,307.27L209.1,309.02L211.15,312.84L213.2,314.01L217.3,325.78L219.35,326.37L221.4,322.7L223.45,326.13L225.5,333.12L227.55,333.47L229.6,340.69L231.65,341.89L233.7,345.07L235.75,349.68L237.8,350.37L239.85,356.09L243.95,351.89L246,354.09L248.05,354.36L250.1,358.14L252.15,358.88L254.2,360.84L257.27,362.5L259.33,359.91L261.38,360.92L263.42,366.27L265.47,367.98L267.52,368.15L271.63,368.15L273.67,369.88L275.72,368.6L277.77,369.94L279.83,372.73L281.88,373.37L285.97,372.66L288.02,371.51L290.08,373.81L292.13,374.4L294.17,374.2L296.22,376.1L298.27,376.57L300.33,376.01L302.38,374.96L304.42,375.4L306.47,377.68L308.52,377.92L312.63,377.91L314.67,377.68L316.72,378.71L318.77,378.86L320.83,380.05L322.88,380.01L324.92,380.57L326.97,379.92L331.08,380.47L333.12,380.28L337.23,381.07L339.28,382.01L343.37,381.22L345.42,381.01L347.48,381.64L349.53,381.13L353.62,382.19L355.67,381.22L359.78,382.21L361.83,381.74L372.08,382.9L374.12,382.9L380.28,383.9L382.33,383.5L386.42,383.55L388.48,383.98L390.53,383.46L392.58,384.14L400.78,383.84L402.83,383.84L411.03,384.16L413.08,384.23L417.17,383.59L419.23,384.06L435.62,383.96L437.67,384.44L441.78,384.15L443.83,384.32L458.17,384.56L460.23,383.91L468.42,384.81L470.48,384.75L488.92,384.65L490.98,384.4L495.07,384.96L497.12,384.91L579.13,385L581.17,384.96L1025,385" style="vector-effect: none; fill: none; stroke: rgb(241, 92, 128); stroke-opacity: 1; stroke-width: 2px; opacity: 1;"/></g><g class="points"/><g class="text"/></g></g></g></g><g class="zerolinelayer-above"/><path class="xlines-above crisp" d="M0,0" style="fill: none;"/><path class="ylines-above crisp" d="M0,0" style="fill: none;"/><g class="overlines-above"/><g class="xaxislayer-above"><g class="xtick"><text text-anchor="middle" x="0" y="451" transform="translate(60,0)" style="font-family: system-ui, -apple-system, 'Segoe UI', Roboto, 'Helvetica Neue', 'Noto Sans', 'Liberation Sans', Arial, sans-serif, 'Apple Color Emoji', 'Segoe UI Emoji', 'Segoe UI Symbol', 'Noto Color Emoji'; font-size: 10px; fill: rgb(80, 80, 80); fill-opacity: 1; white-space: pre;">0 bp</text></g><g class="xtick"><text text-anchor="middle" x="0" y="451" style="font-family: system-ui, -apple-system, 'Segoe UI', Roboto, 'Helvetica Neue', 'Noto Sans', 'Liberation Sans', Arial, sans-serif, 'Apple Color Emoji', 'Segoe UI Emoji', 'Segoe UI Symbol', 'Noto Color Emoji'; font-size: 10px; fill: rgb(80, 80, 80); fill-opacity: 1; white-space: pre;" transform="translate(265,0)">200 bp</text></g><g class="xtick"><text text-anchor="middle" x="0" y="451" style="font-family: system-ui, -apple-system, 'Segoe UI', Roboto, 'Helvetica Neue', 'Noto Sans', 'Liberation Sans', Arial, sans-serif, 'Apple Color Emoji', 'Segoe UI Emoji', 'Segoe UI Symbol', 'Noto Color Emoji'; font-size: 10px; fill: rgb(80, 80, 80); fill-opacity: 1; white-space: pre;" transform="translate(470,0)">400 bp</text></g><g class="xtick"><text text-anchor="middle" x="0" y="451" style="font-family: system-ui, -apple-system, 'Segoe UI', Roboto, 'Helvetica Neue', 'Noto Sans', 'Liberation Sans', Arial, sans-serif, 'Apple Color Emoji', 'Segoe UI Emoji', 'Segoe UI Symbol', 'Noto Color Emoji'; font-size: 10px; fill: rgb(80, 80, 80); fill-opacity: 1; white-space: pre;" transform="translate(675,0)">600 bp</text></g><g class="xtick"><text text-anchor="middle" x="0" y="451" style="font-family: system-ui, -apple-system, 'Segoe UI', Roboto, 'Helvetica Neue', 'Noto Sans', 'Liberation Sans', Arial, sans-serif, 'Apple Color Emoji', 'Segoe UI Emoji', 'Segoe UI Symbol', 'Noto Color Emoji'; font-size: 10px; fill: rgb(80, 80, 80); fill-opacity: 1; white-space: pre;" transform="translate(880,0)">800 bp</text></g><g class="xtick"/></g><g class="yaxislayer-above"><g class="ytick"><text text-anchor="end" x="54" y="3.5" transform="translate(0,435)" style="font-family: system-ui, -apple-system, 'Segoe UI', Roboto, 'Helvetica Neue', 'Noto Sans', 'Liberation Sans', Arial, sans-serif, 'Apple Color Emoji', 'Segoe UI Emoji', 'Segoe UI Symbol', 'Noto Color Emoji'; font-size: 10px; fill: rgb(80, 80, 80); fill-opacity: 1; white-space: pre;">0</text></g><g class="ytick"><text text-anchor="end" x="54" y="3.5" style="font-family: system-ui, -apple-system, 'Segoe UI', Roboto, 'Helvetica Neue', 'Noto Sans', 'Liberation Sans', Arial, sans-serif, 'Apple Color Emoji', 'Segoe UI Emoji', 'Segoe UI Symbol', 'Noto Color Emoji'; font-size: 10px; fill: rgb(80, 80, 80); fill-opacity: 1; white-space: pre;" transform="translate(0,377.13)">0.002</text></g><g class="ytick"><text text-anchor="end" x="54" y="3.5" style="font-family: system-ui, -apple-system, 'Segoe UI', Roboto, 'Helvetica Neue', 'Noto Sans', 'Liberation Sans', Arial, sans-serif, 'Apple Color Emoji', 'Segoe UI Emoji', 'Segoe UI Symbol', 'Noto Color Emoji'; font-size: 10px; fill: rgb(80, 80, 80); fill-opacity: 1; white-space: pre;" transform="translate(0,319.26)">0.004</text></g><g class="ytick"><text text-anchor="end" x="54" y="3.5" style="font-family: system-ui, -apple-system, 'Segoe UI', Roboto, 'Helvetica Neue', 'Noto Sans', 'Liberation Sans', Arial, sans-serif, 'Apple Color Emoji', 'Segoe UI Emoji', 'Segoe UI Symbol', 'Noto Color Emoji'; font-size: 10px; fill: rgb(80, 80, 80); fill-opacity: 1; white-space: pre;" transform="translate(0,261.39)">0.006</text></g><g class="ytick"><text text-anchor="end" x="54" y="3.5" style="font-family: system-ui, -apple-system, 'Segoe UI', Roboto, 'Helvetica Neue', 'Noto Sans', 'Liberation Sans', Arial, sans-serif, 'Apple Color Emoji', 'Segoe UI Emoji', 'Segoe UI Symbol', 'Noto Color Emoji'; font-size: 10px; fill: rgb(80, 80, 80); fill-opacity: 1; white-space: pre;" transform="translate(0,203.52)">0.008</text></g><g class="ytick"><text text-anchor="end" x="54" y="3.5" style="font-family: system-ui, -apple-system, 'Segoe UI', Roboto, 'Helvetica Neue', 'Noto Sans', 'Liberation Sans', Arial, sans-serif, 'Apple Color Emoji', 'Segoe UI Emoji', 'Segoe UI Symbol', 'Noto Color Emoji'; font-size: 10px; fill: rgb(80, 80, 80); fill-opacity: 1; white-space: pre;" transform="translate(0,145.65)">0.01</text></g><g class="ytick"><text text-anchor="end" x="54" y="3.5" style="font-family: system-ui, -apple-system, 'Segoe UI', Roboto, 'Helvetica Neue', 'Noto Sans', 'Liberation Sans', Arial, sans-serif, 'Apple Color Emoji', 'Segoe UI Emoji', 'Segoe UI Symbol', 'Noto Color Emoji'; font-size: 10px; fill: rgb(80, 80, 80); fill-opacity: 1; white-space: pre;" transform="translate(0,87.78)">0.012</text></g></g><g class="overaxes-above"/></g></g><g class="polarlayer"/><g class="smithlayer"/><g class="ternarylayer"/><g class="geolayer"/><g class="funnelarealayer"/><g class="pielayer"/><g class="iciclelayer"/><g class="treemaplayer"/><g class="sunburstlayer"/><g class="glimages"/><defs id="topdefs-ed77e9"><g class="clips"/></defs><g class="layer-above"><g class="imagelayer"/><g class="shapelayer"/></g><g class="infolayer"><g class="g-gtitle"><text class="gtitle" x="550" y="25" text-anchor="middle" dy="0em" style="opacity: 1; font-family: system-ui, -apple-system, 'Segoe UI', Roboto, 'Helvetica Neue', 'Noto Sans', 'Liberation Sans', Arial, sans-serif, 'Apple Color Emoji', 'Segoe UI Emoji', 'Segoe UI Symbol', 'Noto Color Emoji'; font-size: 20px; fill: rgb(60, 60, 60); fill-opacity: 1; white-space: pre;"><tspan class="line" dy="0em" x="550" y="25">Salmon: Fragment Length Distribution</tspan><tspan class="line" dy="1.3em" x="550" y="25">​<tspan style="font-size:70%" dy="-0.6em">6 lines</tspan><tspan dy="0.42em">​</tspan></tspan></text></g><g class="g-xtitle"><text class="xtitle" x="572.5" y="487" text-anchor="middle" style="opacity: 1; font-family: system-ui, -apple-system, 'Segoe UI', Roboto, 'Helvetica Neue', 'Noto Sans', 'Liberation Sans', Arial, sans-serif, 'Apple Color Emoji', 'Segoe UI Emoji', 'Segoe UI Symbol', 'Noto Color Emoji'; font-size: 14px; fill: rgb(100, 100, 100); fill-opacity: 1; white-space: pre;">Fragment Length (bp)</text></g><g class="g-ytitle" transform="translate(-1.640625,0)"><text class="ytitle" transform="rotate(-90,22,242.5)" x="22" y="242.5" text-anchor="middle" style="opacity: 1; font-family: system-ui, -apple-system, 'Segoe UI', Roboto, 'Helvetica Neue', 'Noto Sans', 'Liberation Sans', Arial, sans-serif, 'Apple Color Emoji', 'Segoe UI Emoji', 'Segoe UI Symbol', 'Noto Color Emoji'; font-size: 14px; fill: rgb(100, 100, 100); fill-opacity: 1; white-space: pre;">Fraction</text></g></g></svg>
