<svg xmlns="http://www.w3.org/2000/svg" xmlns:xlink="http://www.w3.org/1999/xlink" xmlns:inkscape="http://www.inkscape.org/namespaces/inkscape" version="1.1" width="720" height="648" viewBox="0 0 720 648">
<defs>
<clipPath id="clip_1">
<path transform="matrix(1,0,0,-1,0,648)" d="M0 0H720V648H0Z"/>
</clipPath>
<clipPath id="clip_2">
<path transform="matrix(1,0,0,-1,0,648)" d="M45.36 106.45H119.61V625.31H45.36Z"/>
</clipPath>
<clipPath id="clip_3">
<path transform="matrix(1,0,0,-1,0,648)" d="M125.09 106.45H199.34V625.31H125.09Z"/>
</clipPath>
<clipPath id="clip_4">
<path transform="matrix(1,0,0,-1,0,648)" d="M204.82 106.45H279.07V625.31H204.82Z"/>
</clipPath>
<clipPath id="clip_5">
<path transform="matrix(1,0,0,-1,0,648)" d="M284.55 106.45H358.8V625.31H284.55Z"/>
</clipPath>
<clipPath id="clip_6">
<path transform="matrix(1,0,0,-1,0,648)" d="M364.29 106.45H438.54V625.31H364.29Z"/>
</clipPath>
<clipPath id="clip_7">
<path transform="matrix(1,0,0,-1,0,648)" d="M444.02 106.45H518.27V625.31H444.02Z"/>
</clipPath>
<clipPath id="clip_8">
<path transform="matrix(1,0,0,-1,0,648)" d="M523.75 106.45H598V625.31H523.75Z"/>
</clipPath>
<clipPath id="clip_9">
<path transform="matrix(1,0,0,-1,0,648)" d="M603.48 106.45H677.73V625.31H603.48Z"/>
</clipPath>
<clipPath id="clip_10">
<path transform="matrix(1,0,0,-1,0,648)" d="M45.36 625.31H119.61V642.52H45.36Z"/>
</clipPath>
<clipPath id="clip_11">
<path transform="matrix(1,0,0,-1,0,648)" d="M125.09 625.31H199.34V642.52H125.09Z"/>
</clipPath>
<clipPath id="clip_12">
<path transform="matrix(1,0,0,-1,0,648)" d="M204.82 625.31H279.07V642.52H204.82Z"/>
</clipPath>
<clipPath id="clip_13">
<path transform="matrix(1,0,0,-1,0,648)" d="M284.55 625.31H358.8V642.52H284.55Z"/>
</clipPath>
<clipPath id="clip_14">
<path transform="matrix(1,0,0,-1,0,648)" d="M364.29 625.31H438.54V642.52H364.29Z"/>
</clipPath>
<clipPath id="clip_15">
<path transform="matrix(1,0,0,-1,0,648)" d="M444.02 625.31H518.27V642.52H444.02Z"/>
</clipPath>
<clipPath id="clip_16">
<path transform="matrix(1,0,0,-1,0,648)" d="M523.75 625.31H598V642.52H523.75Z"/>
</clipPath>
<clipPath id="clip_17">
<path transform="matrix(1,0,0,-1,0,648)" d="M603.48 625.31H677.73V642.52H603.48Z"/>
</clipPath>
<clipPath id="clip_18">
<path transform="matrix(1,0,0,-1,0,648)" d="M677.74 106.45H714.52V625.31H677.74Z"/>
</clipPath>
</defs>
<path transform="matrix(1,0,0,-1,0,648)" d="M0 0H720V648H0Z" fill="#ffffff"/>
<g clip-path="url(#clip_1)">
<path transform="matrix(1,0,0,-1,0,648)" d="M-0 0H720V648H-0Z" fill="#ffffff"/>
<path transform="matrix(1,0,0,-1,0,648)" stroke-width="1.07" stroke-linecap="round" stroke-linejoin="round" fill="none" stroke="#ffffff" d="M-0 0H720V648H-0Z"/>
</g>
<g clip-path="url(#clip_2)">
<path transform="matrix(1,0,0,-1,0,648)" d="M45.36 106.45H119.61V625.31H45.36Z" fill="#ffffff"/>
<path transform="matrix(1,0,0,-1,0,648)" stroke-width=".53" stroke-linecap="butt" stroke-linejoin="round" fill="none" stroke="#ebebeb" d="M45.36 217.38H119.61"/>
<path transform="matrix(1,0,0,-1,0,648)" stroke-width=".53" stroke-linecap="butt" stroke-linejoin="round" fill="none" stroke="#ebebeb" d="M45.36 392.09H119.61"/>
<path transform="matrix(1,0,0,-1,0,648)" stroke-width=".53" stroke-linecap="butt" stroke-linejoin="round" fill="none" stroke="#ebebeb" d="M45.36 566.79H119.61"/>
<path transform="matrix(1,0,0,-1,0,648)" stroke-width="1.07" stroke-linecap="butt" stroke-linejoin="round" fill="none" stroke="#ebebeb" d="M45.36 130.03H119.61"/>
<path transform="matrix(1,0,0,-1,0,648)" stroke-width="1.07" stroke-linecap="butt" stroke-linejoin="round" fill="none" stroke="#ebebeb" d="M45.36 304.73H119.61"/>
<path transform="matrix(1,0,0,-1,0,648)" stroke-width="1.07" stroke-linecap="butt" stroke-linejoin="round" fill="none" stroke="#ebebeb" d="M45.36 479.44H119.61"/>
<path transform="matrix(1,0,0,-1,0,648)" stroke-width="1.07" stroke-linecap="butt" stroke-linejoin="round" fill="none" stroke="#ebebeb" d="M65.61 106.45V625.31"/>
<path transform="matrix(1,0,0,-1,0,648)" stroke-width="1.07" stroke-linecap="butt" stroke-linejoin="round" fill="none" stroke="#ebebeb" d="M99.36 106.45V625.31"/>
<path transform="matrix(1,0,0,-1,0,648)" d="M50.42 130.03H80.799999V322.2H50.42Z" fill="#595959"/>
<path transform="matrix(1,0,0,-1,0,648)" d="M84.17 130.03H114.549999V374.61H84.17Z" fill="#595959"/>
<path transform="matrix(1,0,0,-1,0,648)" stroke-width="1.07" stroke-linecap="round" stroke-linejoin="round" fill="none" stroke="#333333" d="M45.36 106.45H119.61V625.31H45.36Z"/>
</g>
<g clip-path="url(#clip_3)">
<path transform="matrix(1,0,0,-1,0,648)" d="M125.09 106.45H199.34V625.31H125.09Z" fill="#ffffff"/>
<path transform="matrix(1,0,0,-1,0,648)" stroke-width=".53" stroke-linecap="butt" stroke-linejoin="round" fill="none" stroke="#ebebeb" d="M125.09 217.38H199.34"/>
<path transform="matrix(1,0,0,-1,0,648)" stroke-width=".53" stroke-linecap="butt" stroke-linejoin="round" fill="none" stroke="#ebebeb" d="M125.09 392.09H199.34"/>
<path transform="matrix(1,0,0,-1,0,648)" stroke-width=".53" stroke-linecap="butt" stroke-linejoin="round" fill="none" stroke="#ebebeb" d="M125.09 566.79H199.34"/>
<path transform="matrix(1,0,0,-1,0,648)" stroke-width="1.07" stroke-linecap="butt" stroke-linejoin="round" fill="none" stroke="#ebebeb" d="M125.09 130.03H199.34"/>
<path transform="matrix(1,0,0,-1,0,648)" stroke-width="1.07" stroke-linecap="butt" stroke-linejoin="round" fill="none" stroke="#ebebeb" d="M125.09 304.73H199.34"/>
<path transform="matrix(1,0,0,-1,0,648)" stroke-width="1.07" stroke-linecap="butt" stroke-linejoin="round" fill="none" stroke="#ebebeb" d="M125.09 479.44H199.34"/>
<path transform="matrix(1,0,0,-1,0,648)" stroke-width="1.07" stroke-linecap="butt" stroke-linejoin="round" fill="none" stroke="#ebebeb" d="M145.34 106.45V625.31"/>
<path transform="matrix(1,0,0,-1,0,648)" stroke-width="1.07" stroke-linecap="butt" stroke-linejoin="round" fill="none" stroke="#ebebeb" d="M179.09 106.45V625.31"/>
<path transform="matrix(1,0,0,-1,0,648)" d="M130.15 130.03H160.53V234.85H130.15Z" fill="#595959"/>
<path transform="matrix(1,0,0,-1,0,648)" d="M163.9 130.03H194.28V252.32H163.9Z" fill="#595959"/>
<path transform="matrix(1,0,0,-1,0,648)" stroke-width="1.07" stroke-linecap="round" stroke-linejoin="round" fill="none" stroke="#333333" d="M125.09 106.45H199.34V625.31H125.09Z"/>
</g>
<g clip-path="url(#clip_4)">
<path transform="matrix(1,0,0,-1,0,648)" d="M204.82 106.45H279.07V625.31H204.82Z" fill="#ffffff"/>
<path transform="matrix(1,0,0,-1,0,648)" stroke-width=".53" stroke-linecap="butt" stroke-linejoin="round" fill="none" stroke="#ebebeb" d="M204.82 217.38H279.07"/>
<path transform="matrix(1,0,0,-1,0,648)" stroke-width=".53" stroke-linecap="butt" stroke-linejoin="round" fill="none" stroke="#ebebeb" d="M204.82 392.09H279.07"/>
<path transform="matrix(1,0,0,-1,0,648)" stroke-width=".53" stroke-linecap="butt" stroke-linejoin="round" fill="none" stroke="#ebebeb" d="M204.82 566.79H279.07"/>
<path transform="matrix(1,0,0,-1,0,648)" stroke-width="1.07" stroke-linecap="butt" stroke-linejoin="round" fill="none" stroke="#ebebeb" d="M204.82 130.03H279.07"/>
<path transform="matrix(1,0,0,-1,0,648)" stroke-width="1.07" stroke-linecap="butt" stroke-linejoin="round" fill="none" stroke="#ebebeb" d="M204.82 304.73H279.07"/>
<path transform="matrix(1,0,0,-1,0,648)" stroke-width="1.07" stroke-linecap="butt" stroke-linejoin="round" fill="none" stroke="#ebebeb" d="M204.82 479.44H279.07"/>
<path transform="matrix(1,0,0,-1,0,648)" stroke-width="1.07" stroke-linecap="butt" stroke-linejoin="round" fill="none" stroke="#ebebeb" d="M225.07 106.45V625.31"/>
<path transform="matrix(1,0,0,-1,0,648)" stroke-width="1.07" stroke-linecap="butt" stroke-linejoin="round" fill="none" stroke="#ebebeb" d="M258.82 106.45V625.31"/>
<path transform="matrix(1,0,0,-1,0,648)" d="M209.88 130.03H240.26001V461.96H209.88Z" fill="#595959"/>
<path transform="matrix(1,0,0,-1,0,648)" d="M243.64 130.03H274.02V514.37H243.64Z" fill="#595959"/>
<path transform="matrix(1,0,0,-1,0,648)" stroke-width="1.07" stroke-linecap="round" stroke-linejoin="round" fill="none" stroke="#333333" d="M204.82 106.45H279.07V625.31H204.82Z"/>
</g>
<g clip-path="url(#clip_5)">
<path transform="matrix(1,0,0,-1,0,648)" d="M284.55 106.45H358.8V625.31H284.55Z" fill="#ffffff"/>
<path transform="matrix(1,0,0,-1,0,648)" stroke-width=".53" stroke-linecap="butt" stroke-linejoin="round" fill="none" stroke="#ebebeb" d="M284.55 217.38H358.81"/>
<path transform="matrix(1,0,0,-1,0,648)" stroke-width=".53" stroke-linecap="butt" stroke-linejoin="round" fill="none" stroke="#ebebeb" d="M284.55 392.09H358.81"/>
<path transform="matrix(1,0,0,-1,0,648)" stroke-width=".53" stroke-linecap="butt" stroke-linejoin="round" fill="none" stroke="#ebebeb" d="M284.55 566.79H358.81"/>
<path transform="matrix(1,0,0,-1,0,648)" stroke-width="1.07" stroke-linecap="butt" stroke-linejoin="round" fill="none" stroke="#ebebeb" d="M284.55 130.03H358.81"/>
<path transform="matrix(1,0,0,-1,0,648)" stroke-width="1.07" stroke-linecap="butt" stroke-linejoin="round" fill="none" stroke="#ebebeb" d="M284.55 304.73H358.81"/>
<path transform="matrix(1,0,0,-1,0,648)" stroke-width="1.07" stroke-linecap="butt" stroke-linejoin="round" fill="none" stroke="#ebebeb" d="M284.55 479.44H358.81"/>
<path transform="matrix(1,0,0,-1,0,648)" stroke-width="1.07" stroke-linecap="butt" stroke-linejoin="round" fill="none" stroke="#ebebeb" d="M304.8 106.45V625.31"/>
<path transform="matrix(1,0,0,-1,0,648)" stroke-width="1.07" stroke-linecap="butt" stroke-linejoin="round" fill="none" stroke="#ebebeb" d="M338.56 106.45V625.31"/>
<path transform="matrix(1,0,0,-1,0,648)" d="M289.62 130.03H320V392.08H289.62Z" fill="#595959"/>
<path transform="matrix(1,0,0,-1,0,648)" d="M323.37 130.03H353.75V601.72H323.37Z" fill="#595959"/>
<path transform="matrix(1,0,0,-1,0,648)" stroke-width="1.07" stroke-linecap="round" stroke-linejoin="round" fill="none" stroke="#333333" d="M284.55 106.45H358.8V625.31H284.55Z"/>
</g>
<g clip-path="url(#clip_6)">
<path transform="matrix(1,0,0,-1,0,648)" d="M364.29 106.45H438.54V625.31H364.29Z" fill="#ffffff"/>
<path transform="matrix(1,0,0,-1,0,648)" stroke-width=".53" stroke-linecap="butt" stroke-linejoin="round" fill="none" stroke="#ebebeb" d="M364.29 217.38H438.54"/>
<path transform="matrix(1,0,0,-1,0,648)" stroke-width=".53" stroke-linecap="butt" stroke-linejoin="round" fill="none" stroke="#ebebeb" d="M364.29 392.09H438.54"/>
<path transform="matrix(1,0,0,-1,0,648)" stroke-width=".53" stroke-linecap="butt" stroke-linejoin="round" fill="none" stroke="#ebebeb" d="M364.29 566.79H438.54"/>
<path transform="matrix(1,0,0,-1,0,648)" stroke-width="1.07" stroke-linecap="butt" stroke-linejoin="round" fill="none" stroke="#ebebeb" d="M364.29 130.03H438.54"/>
<path transform="matrix(1,0,0,-1,0,648)" stroke-width="1.07" stroke-linecap="butt" stroke-linejoin="round" fill="none" stroke="#ebebeb" d="M364.29 304.73H438.54"/>
<path transform="matrix(1,0,0,-1,0,648)" stroke-width="1.07" stroke-linecap="butt" stroke-linejoin="round" fill="none" stroke="#ebebeb" d="M364.29 479.44H438.54"/>
<path transform="matrix(1,0,0,-1,0,648)" stroke-width="1.07" stroke-linecap="butt" stroke-linejoin="round" fill="none" stroke="#ebebeb" d="M384.54 106.45V625.31"/>
<path transform="matrix(1,0,0,-1,0,648)" stroke-width="1.07" stroke-linecap="butt" stroke-linejoin="round" fill="none" stroke="#ebebeb" d="M418.29 106.45V625.31"/>
<path transform="matrix(1,0,0,-1,0,648)" d="M369.35 130.03H399.73V287.26H369.35Z" fill="#595959"/>
<path transform="matrix(1,0,0,-1,0,648)" d="M403.1 130.03H433.48V374.61H403.1Z" fill="#595959"/>
<path transform="matrix(1,0,0,-1,0,648)" stroke-width="1.07" stroke-linecap="round" stroke-linejoin="round" fill="none" stroke="#333333" d="M364.29 106.45H438.54V625.31H364.29Z"/>
</g>
<g clip-path="url(#clip_7)">
<path transform="matrix(1,0,0,-1,0,648)" d="M444.02 106.45H518.27V625.31H444.02Z" fill="#ffffff"/>
<path transform="matrix(1,0,0,-1,0,648)" stroke-width=".53" stroke-linecap="butt" stroke-linejoin="round" fill="none" stroke="#ebebeb" d="M444.02 217.38H518.27"/>
<path transform="matrix(1,0,0,-1,0,648)" stroke-width=".53" stroke-linecap="butt" stroke-linejoin="round" fill="none" stroke="#ebebeb" d="M444.02 392.09H518.27"/>
<path transform="matrix(1,0,0,-1,0,648)" stroke-width=".53" stroke-linecap="butt" stroke-linejoin="round" fill="none" stroke="#ebebeb" d="M444.02 566.79H518.27"/>
<path transform="matrix(1,0,0,-1,0,648)" stroke-width="1.07" stroke-linecap="butt" stroke-linejoin="round" fill="none" stroke="#ebebeb" d="M444.02 130.03H518.27"/>
<path transform="matrix(1,0,0,-1,0,648)" stroke-width="1.07" stroke-linecap="butt" stroke-linejoin="round" fill="none" stroke="#ebebeb" d="M444.02 304.73H518.27"/>
<path transform="matrix(1,0,0,-1,0,648)" stroke-width="1.07" stroke-linecap="butt" stroke-linejoin="round" fill="none" stroke="#ebebeb" d="M444.02 479.44H518.27"/>
<path transform="matrix(1,0,0,-1,0,648)" stroke-width="1.07" stroke-linecap="butt" stroke-linejoin="round" fill="none" stroke="#ebebeb" d="M464.27 106.45V625.31"/>
<path transform="matrix(1,0,0,-1,0,648)" stroke-width="1.07" stroke-linecap="butt" stroke-linejoin="round" fill="none" stroke="#ebebeb" d="M498.02 106.45V625.31"/>
<path transform="matrix(1,0,0,-1,0,648)" d="M449.08 130.03H479.46V182.44H449.08Z" fill="#595959"/>
<path transform="matrix(1,0,0,-1,0,648)" d="M482.83 130.03H513.20999V234.85H482.83Z" fill="#595959"/>
<path transform="matrix(1,0,0,-1,0,648)" stroke-width="1.07" stroke-linecap="round" stroke-linejoin="round" fill="none" stroke="#333333" d="M444.02 106.45H518.27V625.31H444.02Z"/>
</g>
<g clip-path="url(#clip_8)">
<path transform="matrix(1,0,0,-1,0,648)" d="M523.75 106.45H598V625.31H523.75Z" fill="#ffffff"/>
<path transform="matrix(1,0,0,-1,0,648)" stroke-width=".53" stroke-linecap="butt" stroke-linejoin="round" fill="none" stroke="#ebebeb" d="M523.75 217.38H598"/>
<path transform="matrix(1,0,0,-1,0,648)" stroke-width=".53" stroke-linecap="butt" stroke-linejoin="round" fill="none" stroke="#ebebeb" d="M523.75 392.09H598"/>
<path transform="matrix(1,0,0,-1,0,648)" stroke-width=".53" stroke-linecap="butt" stroke-linejoin="round" fill="none" stroke="#ebebeb" d="M523.75 566.79H598"/>
<path transform="matrix(1,0,0,-1,0,648)" stroke-width="1.07" stroke-linecap="butt" stroke-linejoin="round" fill="none" stroke="#ebebeb" d="M523.75 130.03H598"/>
<path transform="matrix(1,0,0,-1,0,648)" stroke-width="1.07" stroke-linecap="butt" stroke-linejoin="round" fill="none" stroke="#ebebeb" d="M523.75 304.73H598"/>
<path transform="matrix(1,0,0,-1,0,648)" stroke-width="1.07" stroke-linecap="butt" stroke-linejoin="round" fill="none" stroke="#ebebeb" d="M523.75 479.44H598"/>
<path transform="matrix(1,0,0,-1,0,648)" stroke-width="1.07" stroke-linecap="butt" stroke-linejoin="round" fill="none" stroke="#ebebeb" d="M544 106.45V625.31"/>
<path transform="matrix(1,0,0,-1,0,648)" stroke-width="1.07" stroke-linecap="butt" stroke-linejoin="round" fill="none" stroke="#ebebeb" d="M577.75 106.45V625.31"/>
<path transform="matrix(1,0,0,-1,0,648)" d="M528.81 130.03H559.19V164.97H528.81Z" fill="#595959"/>
<path transform="matrix(1,0,0,-1,0,648)" d="M562.57 130.03H592.95V164.97H562.57Z" fill="#595959"/>
<path transform="matrix(1,0,0,-1,0,648)" stroke-width="1.07" stroke-linecap="round" stroke-linejoin="round" fill="none" stroke="#333333" d="M523.75 106.45H598V625.31H523.75Z"/>
</g>
<g clip-path="url(#clip_9)">
<path transform="matrix(1,0,0,-1,0,648)" d="M603.48 106.45H677.73V625.31H603.48Z" fill="#ffffff"/>
<path transform="matrix(1,0,0,-1,0,648)" stroke-width=".53" stroke-linecap="butt" stroke-linejoin="round" fill="none" stroke="#ebebeb" d="M603.48 217.38H677.74"/>
<path transform="matrix(1,0,0,-1,0,648)" stroke-width=".53" stroke-linecap="butt" stroke-linejoin="round" fill="none" stroke="#ebebeb" d="M603.48 392.09H677.74"/>
<path transform="matrix(1,0,0,-1,0,648)" stroke-width=".53" stroke-linecap="butt" stroke-linejoin="round" fill="none" stroke="#ebebeb" d="M603.48 566.79H677.74"/>
<path transform="matrix(1,0,0,-1,0,648)" stroke-width="1.07" stroke-linecap="butt" stroke-linejoin="round" fill="none" stroke="#ebebeb" d="M603.48 130.03H677.74"/>
<path transform="matrix(1,0,0,-1,0,648)" stroke-width="1.07" stroke-linecap="butt" stroke-linejoin="round" fill="none" stroke="#ebebeb" d="M603.48 304.73H677.74"/>
<path transform="matrix(1,0,0,-1,0,648)" stroke-width="1.07" stroke-linecap="butt" stroke-linejoin="round" fill="none" stroke="#ebebeb" d="M603.48 479.44H677.74"/>
<path transform="matrix(1,0,0,-1,0,648)" stroke-width="1.07" stroke-linecap="butt" stroke-linejoin="round" fill="none" stroke="#ebebeb" d="M623.73 106.45V625.31"/>
<path transform="matrix(1,0,0,-1,0,648)" stroke-width="1.07" stroke-linecap="butt" stroke-linejoin="round" fill="none" stroke="#ebebeb" d="M657.49 106.45V625.31"/>
<path transform="matrix(1,0,0,-1,0,648)" d="M608.55 130.03H638.93V234.85H608.55Z" fill="#595959"/>
<path transform="matrix(1,0,0,-1,0,648)" d="M642.3 130.03H672.68V234.85H642.3Z" fill="#595959"/>
<path transform="matrix(1,0,0,-1,0,648)" stroke-width="1.07" stroke-linecap="round" stroke-linejoin="round" fill="none" stroke="#333333" d="M603.48 106.45H677.73V625.31H603.48Z"/>
</g>
<g clip-path="url(#clip_10)">
<path transform="matrix(1,0,0,-1,0,648)" d="M45.36 625.31H119.61V642.52H45.36Z" fill="#d9d9d9"/>
<path transform="matrix(1,0,0,-1,0,648)" stroke-width="1.07" stroke-linecap="round" stroke-linejoin="round" fill="none" stroke="#333333" d="M45.36 625.31H119.61V642.52H45.36Z"/>
<text fill="#1a1a1a" xml:space="preserve" transform="matrix(1 0 -0 1 0 648)" font-size="9" font-family="Nimbus Sans"><tspan y="-630.68" x="76.98 82.983">A3</tspan></text>
</g>
<g clip-path="url(#clip_11)">
<path transform="matrix(1,0,0,-1,0,648)" d="M125.09 625.31H199.34V642.52H125.09Z" fill="#d9d9d9"/>
<path transform="matrix(1,0,0,-1,0,648)" stroke-width="1.07" stroke-linecap="round" stroke-linejoin="round" fill="none" stroke="#333333" d="M125.09 625.31H199.34V642.52H125.09Z"/>
<text fill="#1a1a1a" xml:space="preserve" transform="matrix(1 0 -0 1 0 648)" font-size="9" font-family="Nimbus Sans"><tspan y="-630.68" x="156.71 162.71302">A5</tspan></text>
</g>
<g clip-path="url(#clip_12)">
<path transform="matrix(1,0,0,-1,0,648)" d="M204.82 625.31H279.07V642.52H204.82Z" fill="#d9d9d9"/>
<path transform="matrix(1,0,0,-1,0,648)" stroke-width="1.07" stroke-linecap="round" stroke-linejoin="round" fill="none" stroke="#333333" d="M204.82 625.31H279.07V642.52H204.82Z"/>
<text fill="#1a1a1a" xml:space="preserve" transform="matrix(1 0 -0 1 0 648)" font-size="9" font-family="Nimbus Sans"><tspan y="-630.68" x="230.73 235.653 241.152 247.155">ATSS</tspan></text>
</g>
<g clip-path="url(#clip_13)">
<path transform="matrix(1,0,0,-1,0,648)" d="M284.55 625.31H358.8V642.52H284.55Z" fill="#d9d9d9"/>
<path transform="matrix(1,0,0,-1,0,648)" stroke-width="1.07" stroke-linecap="round" stroke-linejoin="round" fill="none" stroke="#333333" d="M284.55 625.31H358.8V642.52H284.55Z"/>
<text fill="#1a1a1a" xml:space="preserve" transform="matrix(1 0 -0 1 0 648)" font-size="9" font-family="Nimbus Sans"><tspan y="-630.68" x="310.72 315.643 321.142 326.641">ATTS</tspan></text>
</g>
<g clip-path="url(#clip_14)">
<path transform="matrix(1,0,0,-1,0,648)" d="M364.29 625.31H438.54V642.52H364.29Z" fill="#d9d9d9"/>
<path transform="matrix(1,0,0,-1,0,648)" stroke-width="1.07" stroke-linecap="round" stroke-linejoin="round" fill="none" stroke="#333333" d="M364.29 625.31H438.54V642.52H364.29Z"/>
<text fill="#1a1a1a" xml:space="preserve" transform="matrix(1 0 -0 1 0 648)" font-size="9" font-family="Nimbus Sans"><tspan y="-630.68" x="395.41 401.413">ES</tspan></text>
</g>
<g clip-path="url(#clip_15)">
<path transform="matrix(1,0,0,-1,0,648)" d="M444.02 625.31H518.27V642.52H444.02Z" fill="#d9d9d9"/>
<path transform="matrix(1,0,0,-1,0,648)" stroke-width="1.07" stroke-linecap="round" stroke-linejoin="round" fill="none" stroke="#333333" d="M444.02 625.31H518.27V642.52H444.02Z"/>
<text fill="#1a1a1a" xml:space="preserve" transform="matrix(1 0 -0 1 0 648)" font-size="9" font-family="Nimbus Sans"><tspan y="-630.68" x="476.65 479.152">IR</tspan></text>
</g>
<g clip-path="url(#clip_16)">
<path transform="matrix(1,0,0,-1,0,648)" d="M523.75 625.31H598V642.52H523.75Z" fill="#d9d9d9"/>
<path transform="matrix(1,0,0,-1,0,648)" stroke-width="1.07" stroke-linecap="round" stroke-linejoin="round" fill="none" stroke="#333333" d="M523.75 625.31H598V642.52H523.75Z"/>
<text fill="#1a1a1a" xml:space="preserve" transform="matrix(1 0 -0 1 0 648)" font-size="9" font-family="Nimbus Sans"><tspan y="-630.68" x="551.13 558.627 564.63">MEE</tspan></text>
</g>
<g clip-path="url(#clip_17)">
<path transform="matrix(1,0,0,-1,0,648)" d="M603.48 625.31H677.73V642.52H603.48Z" fill="#d9d9d9"/>
<path transform="matrix(1,0,0,-1,0,648)" stroke-width="1.07" stroke-linecap="round" stroke-linejoin="round" fill="none" stroke="#333333" d="M603.48 625.31H677.73V642.52H603.48Z"/>
<text fill="#1a1a1a" xml:space="preserve" transform="matrix(1 0 -0 1 0 648)" font-size="9" font-family="Nimbus Sans"><tspan y="-630.68" x="630.86 638.357 644.36">MES</tspan></text>
</g>
<g clip-path="url(#clip_18)">
<path transform="matrix(1,0,0,-1,0,648)" d="M677.74 106.45H714.52V625.31H677.74Z" fill="#d9d9d9"/>
<path transform="matrix(1,0,0,-1,0,648)" stroke-width="1.07" stroke-linecap="round" stroke-linejoin="round" fill="none" stroke="#333333" d="M677.74 106.45H714.52V625.31H677.74Z"/>
<text fill="#1a1a1a" xml:space="preserve" transform="matrix(1 0 -0 1 0 648)" font-size="9" font-family="Nimbus Sans"><tspan y="-372.15" x="682.62 687.12 692.124 697.12808 699.63009 702.6271 707.6311">control</tspan></text>
<text fill="#1a1a1a" xml:space="preserve" transform="matrix(1 0 -0 1 0 648)" font-size="9" font-family="Nimbus Sans"><tspan y="-362.65" x="691.63 696.13">vs</tspan></text>
<text fill="#1a1a1a" xml:space="preserve" transform="matrix(1 0 -0 1 0 648)" font-size="9" font-family="Nimbus Sans"><tspan y="-353.14" x="682.12 684.622 687.619 692.62307 697.6271 700.1291 705.1331">treated</tspan></text>
</g>
<path transform="matrix(1,0,0,-1,0,648)" stroke-width="1.07" stroke-linecap="butt" stroke-linejoin="round" fill="none" stroke="#333333" d="M65.61 103.71V106.45"/>
<path transform="matrix(1,0,0,-1,0,648)" stroke-width="1.07" stroke-linecap="butt" stroke-linejoin="round" fill="none" stroke="#333333" d="M99.36 103.71V106.45"/>
<text fill="#4d4d4d" xml:space="preserve" transform="matrix(.7071068 .7071068 -.7071068 .7071068 0 648)" font-size="8.994398" font-family="Nimbus Sans"><tspan y="-111.71579" x="-25.3922 -19.392933 -14.392048 -11.891605 -9.894848 -4.893959 -2.3935128 -.39675904 4.100437 9.10133 11.331936 16.332825 19.552815 27.045155 29.545598 34.54649 39.043687 44.04457">A3 in isoform used</tspan><tspan y="-111.7158" x="49.045465 51.545907 53.542657 58.54354"> les</tspan><tspan y="-111.715808" x="63.040746">s</tspan></text>
<text fill="#4d4d4d" xml:space="preserve" transform="matrix(.7071068 .7071068 -.7071068 .7071068 0 648)" font-size="8.994398" font-family="Nimbus Sans"><tspan y="-135.58063" x="-1.5273514 4.471916 9.472801">A3 </tspan><tspan y="-135.58065" x="11.973251 13.970005 18.97089">in </tspan><tspan y="-135.58063" x="21.471337">i</tspan><tspan y="-135.58065" x="23.468094 27.96529">so</tspan><tspan y="-135.58063" x="32.96618 35.196786">fo</tspan><tspan y="-135.58065" x="40.197679 43.417669">rm</tspan><tspan y="-135.58063" x="50.91 53.410444"> u</tspan><tspan y="-135.58065" x="58.411336">s</tspan><tspan y="-135.58063" x="62.908525 67.90942">ed</tspan><tspan y="-135.58065" x="72.9103"> </tspan><tspan y="-135.58063" x="75.41074">m</tspan><tspan y="-135.58065" x="82.90308 87.90396 90.8991">ore</tspan></text>
<path transform="matrix(1,0,0,-1,0,648)" stroke-width="1.07" stroke-linecap="butt" stroke-linejoin="round" fill="none" stroke="#333333" d="M145.34 103.71V106.45"/>
<path transform="matrix(1,0,0,-1,0,648)" stroke-width="1.07" stroke-linecap="butt" stroke-linejoin="round" fill="none" stroke="#333333" d="M179.09 103.71V106.45"/>
<text fill="#4d4d4d" xml:space="preserve" transform="matrix(.7071068 .7071068 -.7071068 .7071068 0 648)" font-size="8.994398" font-family="Nimbus Sans"><tspan y="-168.09342" x="30.98542 36.984689 41.98558 44.486024 46.482786 51.48367 53.984117 55.980875 60.47807 65.47896 67.70957">A5 in isofo</tspan><tspan y="-168.09343" x="72.710468">r</tspan><tspan y="-168.09342" x="75.93045 83.42279 85.92323">m u</tspan><tspan y="-168.09343" x="90.92412">s</tspan><tspan y="-168.09342" x="95.42132 100.4222">ed</tspan><tspan y="-168.09343" x="105.42309"> </tspan><tspan y="-168.09342" x="107.92352 109.92028">le</tspan><tspan y="-168.09343" x="114.92118">s</tspan><tspan y="-168.09342" x="119.418369">s</tspan></text>
<text fill="#4d4d4d" xml:space="preserve" transform="matrix(.7071068 .7071068 -.7071068 .7071068 0 648)" font-size="8.994398" font-family="Nimbus Sans"><tspan y="-191.95825" x="54.850275 60.84954 65.850429">A5 </tspan><tspan y="-191.95827" x="68.350879 70.34764 75.348529">in </tspan><tspan y="-191.95829" x="77.848979 79.84573">is</tspan><tspan y="-191.95827" x="84.34291">o</tspan><tspan y="-191.95829" x="89.34382 91.57443 96.57532">for</tspan><tspan y="-191.95827" x="99.7953 107.28764 109.78807">m u</tspan><tspan y="-191.95829" x="114.78897">s</tspan><tspan y="-191.95825" x="119.286159">e</tspan><tspan y="-191.95829" x="124.287059 129.28794">d </tspan><tspan y="-191.95827" x="131.78838 139.28072 144.2816">mor</tspan><tspan y="-191.95829" x="147.27674">e</tspan></text>
<path transform="matrix(1,0,0,-1,0,648)" stroke-width="1.07" stroke-linecap="butt" stroke-linejoin="round" fill="none" stroke="#333333" d="M225.07 103.71V106.45"/>
<path transform="matrix(1,0,0,-1,0,648)" stroke-width="1.07" stroke-linecap="butt" stroke-linejoin="round" fill="none" stroke="#333333" d="M258.82 103.71V106.45"/>
<text fill="#4d4d4d" xml:space="preserve" transform="matrix(.7071068 .7071068 -.7071068 .7071068 0 648)" font-size="8.994398" font-family="Nimbus Sans"><tspan y="-224.47101" x="87.36303">A</tspan><tspan y="-224.47103" x="92.282978 97.77855 103.77782 109.777088">TSS </tspan><tspan y="-224.47104" x="112.27753 114.27429 119.27518 121.775638">in i</tspan><tspan y="-224.47106" x="123.772388">s</tspan><tspan y="-224.47104" x="128.26959 133.27048 135.5011 140.50199">ofor</tspan><tspan y="-224.47106" x="143.72197 151.21431">m </tspan><tspan y="-224.47104" x="153.71475 158.71564 163.21283 168.21372 173.2146 175.71503 177.71179 182.71268 187.20987">used less</tspan></text>
<text fill="#4d4d4d" xml:space="preserve" transform="matrix(.7071068 .7071068 -.7071068 .7071068 0 648)" font-size="8.994398" font-family="Nimbus Sans"><tspan y="-248.33588" x="111.22788">A</tspan><tspan y="-248.33586" x="116.14781 121.64339 127.642658">TSS</tspan><tspan y="-248.33588" x="133.64194"> </tspan><tspan y="-248.33586" x="136.14235 138.13912">in</tspan><tspan y="-248.33588" x="143.14002"> </tspan><tspan y="-248.33585" x="145.64044">i</tspan><tspan y="-248.33586" x="147.63719">s</tspan><tspan y="-248.33585" x="152.1344">o</tspan><tspan y="-248.33586" x="157.1353">f</tspan><tspan y="-248.33585" x="159.3659 164.36679">or</tspan><tspan y="-248.33586" x="167.58678 175.07912">m </tspan><tspan y="-248.33585" x="177.57956 182.58045 187.07764 192.07852 197.0794 199.57984 207.07218 212.07306 215.0682">used more</tspan></text>
<path transform="matrix(1,0,0,-1,0,648)" stroke-width="1.07" stroke-linecap="butt" stroke-linejoin="round" fill="none" stroke="#333333" d="M304.8 103.71V106.45"/>
<path transform="matrix(1,0,0,-1,0,648)" stroke-width="1.07" stroke-linecap="butt" stroke-linejoin="round" fill="none" stroke="#333333" d="M338.56 103.71V106.45"/>
<text fill="#4d4d4d" xml:space="preserve" transform="matrix(.7071068 .7071068 -.7071068 .7071068 0 648)" font-size="8.994398" font-family="Nimbus Sans"><tspan y="-280.8557" x="143.74771 148.66765">AT</tspan><tspan y="-280.85569" x="154.16323 159.6588 165.65807 168.15851 170.15528 175.15616 177.65659 179.65335 184.15055 189.15143 191.38204 196.38292 199.60292 207.09525">TS in isoform </tspan><tspan y="-280.85566" x="209.59569 214.59658 219.09377 224.09465 229.09554">used </tspan><tspan y="-280.85569" x="231.596 233.59275">le</tspan><tspan y="-280.85566" x="238.59363 243.09082">ss</tspan></text>
<text fill="#4d4d4d" xml:space="preserve" transform="matrix(.7071068 .7071068 -.7071068 .7071068 0 648)" font-size="8.994398" font-family="Nimbus Sans"><tspan y="-304.72056" x="167.61258 172.5325 178.02808 183.52365 189.52292 192.02336 194.02011 199.021">ATTS in </tspan><tspan y="-304.72053" x="201.52144">i</tspan><tspan y="-304.72056" x="203.5182">s</tspan><tspan y="-304.72053" x="208.01538 213.01628 215.24689">ofo</tspan><tspan y="-304.72056" x="220.24779">r</tspan><tspan y="-304.72053" x="223.46778">m</tspan><tspan y="-304.72056" x="230.96012"> </tspan><tspan y="-304.7205" x="233.46053">u</tspan><tspan y="-304.72053" x="238.46143 242.95862 247.95952 252.96039 255.46083">sed m</tspan><tspan y="-304.7205" x="262.95317">o</tspan><tspan y="-304.72053" x="267.95405 270.94923">re</tspan></text>
<path transform="matrix(1,0,0,-1,0,648)" stroke-width="1.07" stroke-linecap="butt" stroke-linejoin="round" fill="none" stroke="#333333" d="M384.54 103.71V106.45"/>
<path transform="matrix(1,0,0,-1,0,648)" stroke-width="1.07" stroke-linecap="butt" stroke-linejoin="round" fill="none" stroke="#333333" d="M418.29 103.71V106.45"/>
<text fill="#4d4d4d" xml:space="preserve" transform="matrix(.7071068 .7071068 -.7071068 .7071068 0 648)" font-size="8.994398" font-family="Nimbus Sans"><tspan y="-337.23335" x="200.12537 206.12464 212.12389 214.62433 216.62108 221.62195 224.12239 226.11916 230.61635 235.61725 237.84784">ES in isofo</tspan><tspan y="-337.2333" x="242.84873">r</tspan><tspan y="-337.23335" x="246.06873">m</tspan><tspan y="-337.2333" x="253.56105 256.0615"> u</tspan><tspan y="-337.23335" x="261.06239 265.55958">se</tspan><tspan y="-337.2333" x="270.56047">d</tspan><tspan y="-337.23335" x="275.56135"> </tspan><tspan y="-337.2333" x="278.0618 280.05857 285.05943 289.5566">less</tspan></text>
<text fill="#4d4d4d" xml:space="preserve" transform="matrix(.7071068 .7071068 -.7071068 .7071068 0 648)" font-size="8.994398" font-family="Nimbus Sans"><tspan y="-361.09819" x="223.9902 229.98947">ES</tspan><tspan y="-361.0982" x="235.98873"> </tspan><tspan y="-361.09819" x="238.48917 240.48592">in</tspan><tspan y="-361.0982" x="245.48682 247.98726 249.98403 254.48122"> iso</tspan><tspan y="-361.09819" x="259.4821 261.71269 266.7136 269.93357 277.42594 279.92637 284.92723">form us</tspan><tspan y="-361.09815" x="289.42445">e</tspan><tspan y="-361.09819" x="294.42533">d</tspan><tspan y="-361.09815" x="299.4262 301.92665"> m</tspan><tspan y="-361.09819" x="309.41899">o</tspan><tspan y="-361.09815" x="314.41987">r</tspan><tspan y="-361.09819" x="317.415">e</tspan></text>
<path transform="matrix(1,0,0,-1,0,648)" stroke-width="1.07" stroke-linecap="butt" stroke-linejoin="round" fill="none" stroke="#333333" d="M464.27 103.71V106.45"/>
<path transform="matrix(1,0,0,-1,0,648)" stroke-width="1.07" stroke-linecap="butt" stroke-linejoin="round" fill="none" stroke="#333333" d="M498.02 103.71V106.45"/>
<text fill="#4d4d4d" xml:space="preserve" transform="matrix(.7071068 .7071068 -.7071068 .7071068 0 648)" font-size="8.994398" font-family="Nimbus Sans"><tspan y="-393.61097" x="256.503">I</tspan><tspan y="-393.61094" x="259.0034 265.49736 267.99778 269.99455 274.99546 277.49589 279.49266 283.98985">R in iso</tspan><tspan y="-393.6109" x="288.99073 291.2213">fo</tspan><tspan y="-393.61094" x="296.2222 299.44224 306.93455 309.43498 314.43589">rm us</tspan><tspan y="-393.6109" x="318.93305 323.93397">ed</tspan><tspan y="-393.61094" x="328.93486 331.43528 333.43205"> le</tspan><tspan y="-393.61088" x="338.4329 342.93009">ss</tspan></text>
<text fill="#4d4d4d" xml:space="preserve" transform="matrix(.7071068 .7071068 -.7071068 .7071068 0 648)" font-size="8.994398" font-family="Nimbus Sans"><tspan y="-417.4758" x="280.36784 282.86827 289.3622 291.86265 293.8594">IR in</tspan><tspan y="-417.47578" x="298.8603 301.36073 303.35749"> is</tspan><tspan y="-417.4758" x="307.8547">o</tspan><tspan y="-417.47578" x="312.8556 315.08619 320.08705">for</tspan><tspan y="-417.47575" x="323.30705">m</tspan><tspan y="-417.4757" x="330.79933 333.29975"> u</tspan><tspan y="-417.47569" x="338.30064 342.79783">se</tspan><tspan y="-417.47566" x="347.7987 352.79957 355.3">d m</tspan><tspan y="-417.4756" x="362.7923 367.79316 370.78828">ore</tspan></text>
<path transform="matrix(1,0,0,-1,0,648)" stroke-width="1.07" stroke-linecap="butt" stroke-linejoin="round" fill="none" stroke="#333333" d="M544 103.71V106.45"/>
<path transform="matrix(1,0,0,-1,0,648)" stroke-width="1.07" stroke-linecap="butt" stroke-linejoin="round" fill="none" stroke="#333333" d="M577.75 103.71V106.45"/>
<text fill="#4d4d4d" xml:space="preserve" transform="matrix(.7071068 .7071068 -.7071068 .7071068 0 648)" font-size="8.994398" font-family="Nimbus Sans"><tspan y="-449.98857" x="312.88059 320.3729 326.37217 332.37144 334.87187 336.86863">MEE in</tspan><tspan y="-449.98854" x="341.8695 344.36994 346.3667"> is</tspan><tspan y="-449.9885" x="350.86387">o</tspan><tspan y="-449.98847" x="355.86476 358.09535 363.0962">for</tspan><tspan y="-449.98844" x="366.3162 373.8085 376.30894">m u</tspan><tspan y="-449.9884" x="381.3098 385.807">se</tspan><tspan y="-449.98838" x="390.80784">d</tspan><tspan y="-449.98835" x="395.80873 398.30915 400.3059"> le</tspan><tspan y="-449.9883" x="405.3068 409.804">ss</tspan></text>
<text fill="#4d4d4d" xml:space="preserve" transform="matrix(.7071068 .7071068 -.7071068 .7071068 0 648)" font-size="8.994398" font-family="Nimbus Sans"><tspan y="-473.8534" x="336.74543 344.23774 350.237 356.23628 358.7367 360.73347">MEE in</tspan><tspan y="-473.85337" x="365.73435 368.23478 370.23155 374.72874"> iso</tspan><tspan y="-473.85334" x="379.7296 381.9602 386.96107">for</tspan><tspan y="-473.8533" x="390.18107">m</tspan><tspan y="-473.85328" x="397.67335 400.17378"> u</tspan><tspan y="-473.85325" x="405.17466 409.67185 414.6727">sed</tspan><tspan y="-473.8532" x="419.67359 422.174"> m</tspan><tspan y="-473.85316" x="429.66633 434.66719 437.6623">ore</tspan></text>
<path transform="matrix(1,0,0,-1,0,648)" stroke-width="1.07" stroke-linecap="butt" stroke-linejoin="round" fill="none" stroke="#333333" d="M623.73 103.71V106.45"/>
<path transform="matrix(1,0,0,-1,0,648)" stroke-width="1.07" stroke-linecap="butt" stroke-linejoin="round" fill="none" stroke="#333333" d="M657.49 103.71V106.45"/>
<text fill="#4d4d4d" xml:space="preserve" transform="matrix(.7071068 .7071068 -.7071068 .7071068 0 648)" font-size="8.994398" font-family="Nimbus Sans"><tspan y="-506.36616" x="369.25819 376.7505 382.74977 388.74903 391.24946 393.24623">MES in</tspan><tspan y="-506.36613" x="398.2471 400.74754 402.7443 407.2415"> iso</tspan><tspan y="-506.3661" x="412.24238 414.47297 419.47383">for</tspan><tspan y="-506.36604" x="422.6938 430.1861 432.68653">m u</tspan><tspan y="-506.366" x="437.6874 442.1846 447.18547">sed</tspan><tspan y="-506.36598" x="452.18635 454.68678 456.68354"> le</tspan><tspan y="-506.3659" x="461.6844 466.18159">ss</tspan></text>
<text fill="#4d4d4d" xml:space="preserve" transform="matrix(.7071068 .7071068 -.7071068 .7071068 0 648)" font-size="8.994398" font-family="Nimbus Sans"><tspan y="-530.2381" x="393.13014">M</tspan><tspan y="-530.23806" x="400.6224 406.62168 412.62095 415.12138 417.11814 422.11903 424.61946 426.6162 431.1134 436.11427 438.34489">ES in isofo</tspan><tspan y="-530.238" x="443.34574 446.56575 454.05805">rm </tspan><tspan y="-530.2379" x="456.55845 461.55934 466.05653 471.05738 476.05827">used </tspan><tspan y="-530.23788" x="478.5587 486.05104 491.05189">mor</tspan><tspan y="-530.2378" x="494.04698">e</tspan></text>
<text fill="#4d4d4d" xml:space="preserve" transform="matrix(1 0 -0 1 0 648)" font-size="9" font-family="Nimbus Sans"><tspan y="-126.8" x="35.42">0</tspan></text>
<text fill="#4d4d4d" xml:space="preserve" transform="matrix(1 0 -0 1 0 648)" font-size="9" font-family="Nimbus Sans"><tspan y="-301.5" x="30.42 35.424">10</tspan></text>
<text fill="#4d4d4d" xml:space="preserve" transform="matrix(1 0 -0 1 0 648)" font-size="9" font-family="Nimbus Sans"><tspan y="-476.2" x="30.42 35.424">20</tspan></text>
<path transform="matrix(1,0,0,-1,0,648)" stroke-width="1.07" stroke-linecap="butt" stroke-linejoin="round" fill="none" stroke="#333333" d="M42.62 130.03H45.36"/>
<path transform="matrix(1,0,0,-1,0,648)" stroke-width="1.07" stroke-linecap="butt" stroke-linejoin="round" fill="none" stroke="#333333" d="M42.62 304.73H45.36"/>
<path transform="matrix(1,0,0,-1,0,648)" stroke-width="1.07" stroke-linecap="butt" stroke-linejoin="round" fill="none" stroke="#333333" d="M42.62 479.44H45.36"/>
<text xml:space="preserve" transform="matrix(1 0 -0 1 0 648)" font-size="11" font-family="Nimbus Sans"><tspan y="-7.9" x="263.73 271.06703 273.509 276.56703 282.683 286.621 292.737 298.853 301.911 304.353 309.578 315.694 318.752 321.81004 325.36305 331.47904 337.59504 343.09504 348.59504 352.42304 354.86503 360.98103 364.03904 366.48103 372.59703 378.713 381.77104 387.55705 392.78205 398.89805 405.01405 408.07206 411.13008 413.57206 419.68806 422.74607 425.80409 431.30409 437.42008 440.1481 446.2641 450.2021">Alternative transcription event in Isoform</tspan></text>
<text xml:space="preserve" transform="matrix(0 -1 1 0 0 648)" font-size="11" font-family="Nimbus Sans"><tspan y="13.38" x="291.94 299.882 305.998 315.16099 321.27699 327.39299 331.05598 334.11399 340.22999 343.288 346.346 351.846 354.288 360.404 366.52 368.96199 372.02 374.46199 379.96199 386.07798 392.19398 395.25199 398.31 400.75199 406.25199 412.36799 415.096 421.212 425.15 434.313">Number of significant isoforms</tspan></text>
<text xml:space="preserve" transform="matrix(0 -1 1 0 0 648)" font-size="11" font-family="Nimbus Sans"><tspan y="25.26" x="307.79 311.453 319.395 321.83699 324.895 331.011 334.069 340.185 343.243 346.30104 348.743 354.859 360.975 366.475 369.53303 372.59104 378.70704 384.82304 390.93904 393.99705 399.78306 405.00807 411.12406 417.24006 420.29808">(with at least one event)</tspan></text>
</svg>
